<svg width="36" height="48" viewBox="0 0 36 48" fill="none" xmlns="http://www.w3.org/2000/svg">
<path d="M21.4311 0.149411L9.25633 5.44601C8.59388 5.73397 8.16568 6.38746 8.16568 7.10959V13.4402C8.16568 14.0951 8.83708 14.5338 9.43687 14.2712L21.7876 8.86269C22.0159 8.76273 22.2755 8.76124 22.5038 8.85822L26.75 10.6516C27.0857 10.7933 27.3036 11.1231 27.3036 11.4871V21.7357C27.3036 22.0997 27.0857 22.4295 26.7485 22.5712L16.1464 27.0472C15.475 27.3307 15.0378 27.9886 15.0378 28.7182V35.01C15.0378 35.659 15.7003 36.0977 16.2986 35.8455L34.3577 28.2169C35.0291 27.9334 35.4663 27.2755 35.4663 26.5459V6.67393C35.4663 5.94434 35.0291 5.28637 34.3577 5.00289L22.8574 0.143444C22.3994 -0.0505157 21.8831 -0.0475312 21.4281 0.150905L21.4311 0.149411Z" fill="#C42026"/>
<path d="M16.3106 47.9059L26.21 43.5851C26.871 43.2971 27.2992 42.6436 27.2992 41.923V35.5849C27.2992 34.9315 26.6278 34.4913 26.0295 34.7539L16.1286 39.0792C15.4676 39.3672 15.0409 40.0207 15.0409 40.7413V47.0748C15.0409 47.7283 15.7123 48.167 16.3106 47.9059Z" fill="#C42026"/>
<path d="M8.71934 26.4604L19.3155 21.9829C19.9869 21.6994 20.4241 21.0414 20.4241 20.3119V14.0201C20.4241 13.3711 19.7616 12.9324 19.1633 13.1846L1.10865 20.8102C0.437246 21.0937 9.15527e-05 21.7516 9.15527e-05 22.4812V42.3577C9.15527e-05 43.0872 0.437246 43.7452 1.10865 44.0287L10.3382 47.9273C10.9364 48.1794 11.5989 47.7408 11.5989 47.0918V40.8C11.5989 40.0704 11.1632 39.4124 10.4903 39.129L8.71785 38.38C8.38215 38.2382 8.16432 37.9085 8.16432 37.5445V27.2959C8.16432 26.9319 8.38215 26.6021 8.71785 26.4604H8.71934Z" fill="#C42026"/>
</svg>
