<svg width="130" height="120" viewBox="0 0 130 120" fill="none" xmlns="http://www.w3.org/2000/svg">
<path d="M7.88034 95.505L63.8803 104.578L51.3122 82.578L7.88034 95.505Z" fill="#FF7F00"/>
<path d="M127.88 70.6672L93.1088 59.578L75.8803 80.578L127.88 70.6672Z" fill="#FF7F00"/>
<path d="M129.086 33.8575L89.81 86.2786L79.7656 99.687L64.5425 120L54.8977 107.127L42.4874 90.5613L0 33.8575L64.5425 0L129.086 33.8575Z" fill="#C42026"/>
<mask id="mask0_991_258" style="mask-type:luminance" maskUnits="userSpaceOnUse" x="0" y="0" width="130" height="120">
<path d="M129.086 33.8575L64.5425 120L0 33.8575L64.5425 0L129.086 33.8575Z" fill="white"/>
</mask>
<g mask="url(#mask0_991_258)">
<path opacity="0.12" d="M16.0981 -27.8729V116.344" stroke="white" stroke-width="8.73553" stroke-miterlimit="10"/>
<path opacity="0.12" d="M39.861 -27.8729V116.344" stroke="white" stroke-width="8.73553" stroke-miterlimit="10"/>
<path opacity="0.12" d="M63.6238 -27.8729V116.344" stroke="white" stroke-width="8.73553" stroke-miterlimit="10"/>
<path opacity="0.12" d="M87.3859 -27.8729V116.344" stroke="white" stroke-width="8.73553" stroke-miterlimit="10"/>
<path opacity="0.12" d="M111.149 -27.8729V116.344" stroke="white" stroke-width="8.73553" stroke-miterlimit="10"/>
</g>
<path opacity="0.5" d="M89.81 86.2787L79.7656 99.687L54.8977 107.127L42.4875 90.5613L89.81 86.2787Z" fill="#A30006"/>
<path d="M7.88034 70.578H127.88V90.4253L7.88034 95.578V70.578Z" fill="#FFCA00"/>
<path d="M24.8179 78.978H26.1139V84.578H24.8179V78.978ZM22.2739 84.578H20.9779V78.978H22.2739V84.578ZM24.9139 82.282H22.1779V81.186H24.9139V82.282ZM26.7029 84.578L29.1989 78.978H30.4789L32.9829 84.578H31.6229L29.5749 79.634H30.0869L28.0309 84.578H26.7029ZM27.9509 83.378L28.2949 82.394H31.1749L31.5269 83.378H27.9509ZM33.5639 84.578V78.978H35.9879C36.4892 78.978 36.9212 79.0607 37.2839 79.226C37.6465 79.386 37.9265 79.618 38.1239 79.922C38.3212 80.226 38.4199 80.5887 38.4199 81.01C38.4199 81.426 38.3212 81.786 38.1239 82.09C37.9265 82.3887 37.6465 82.618 37.2839 82.778C36.9212 82.938 36.4892 83.018 35.9879 83.018H34.2839L34.8599 82.45V84.578H33.5639ZM37.1239 84.578L35.7239 82.546H37.1079L38.5239 84.578H37.1239ZM34.8599 82.594L34.2839 81.986H35.9159C36.3159 81.986 36.6145 81.9007 36.8119 81.73C37.0092 81.554 37.1079 81.314 37.1079 81.01C37.1079 80.7007 37.0092 80.4607 36.8119 80.29C36.6145 80.1193 36.3159 80.034 35.9159 80.034H34.2839L34.8599 79.418V82.594ZM42.1507 84.674C41.708 84.674 41.3 84.6047 40.9267 84.466C40.5587 84.322 40.236 84.1193 39.9587 83.858C39.6867 83.5967 39.4734 83.29 39.3187 82.938C39.1694 82.586 39.0947 82.1993 39.0947 81.778C39.0947 81.3567 39.1694 80.97 39.3187 80.618C39.4734 80.266 39.6894 79.9593 39.9667 79.698C40.244 79.4367 40.5694 79.2367 40.9427 79.098C41.316 78.954 41.7267 78.882 42.1747 78.882C42.6707 78.882 43.116 78.9647 43.5107 79.13C43.9107 79.2953 44.2467 79.5353 44.5187 79.85L43.6867 80.618C43.484 80.4047 43.2627 80.2473 43.0227 80.146C42.7827 80.0393 42.5214 79.986 42.2387 79.986C41.9667 79.986 41.7187 80.0287 41.4947 80.114C41.2707 80.1993 41.076 80.322 40.9107 80.482C40.7507 80.642 40.6254 80.8313 40.5347 81.05C40.4494 81.2687 40.4067 81.5113 40.4067 81.778C40.4067 82.0393 40.4494 82.2793 40.5347 82.498C40.6254 82.7167 40.7507 82.9087 40.9107 83.074C41.076 83.234 41.268 83.3567 41.4867 83.442C41.7107 83.5273 41.956 83.57 42.2227 83.57C42.4787 83.57 42.7267 83.53 42.9667 83.45C43.212 83.3647 43.4494 83.2233 43.6787 83.026L44.4147 83.962C44.1107 84.1913 43.756 84.3673 43.3507 84.49C42.9507 84.6127 42.5507 84.674 42.1507 84.674ZM43.2307 83.794V81.69H44.4147V83.962L43.2307 83.794ZM44.8826 84.578L47.3786 78.978H48.6586L51.1626 84.578H49.8026L47.7546 79.634H48.2666L46.2106 84.578H44.8826ZM46.1306 83.378L46.4746 82.394H49.3546L49.7066 83.378H46.1306ZM54.0092 84.578V78.978H55.0812L57.4652 82.93H56.8972L59.2412 78.978H60.3052L60.3212 84.578H59.1052L59.0972 80.842H59.3212L57.4492 83.986H56.8652L54.9532 80.842H55.2252V84.578H54.0092ZM60.9138 84.578L63.4098 78.978H64.6898L67.1938 84.578H65.8338L63.7858 79.634H64.2978L62.2418 84.578H60.9138ZM62.1618 83.378L62.5058 82.394H65.3858L65.7378 83.378H62.1618ZM69.6148 84.674C69.1668 84.674 68.7375 84.6153 68.3268 84.498C67.9161 84.3753 67.5855 84.218 67.3348 84.026L67.7748 83.05C68.0148 83.2207 68.2975 83.362 68.6228 83.474C68.9535 83.5807 69.2868 83.634 69.6228 83.634C69.8788 83.634 70.0841 83.61 70.2388 83.562C70.3988 83.5087 70.5161 83.4367 70.5908 83.346C70.6655 83.2553 70.7028 83.1513 70.7028 83.034C70.7028 82.8847 70.6441 82.7673 70.5268 82.682C70.4095 82.5913 70.2548 82.5193 70.0628 82.466C69.8708 82.4073 69.6575 82.354 69.4228 82.306C69.1935 82.2527 68.9615 82.1887 68.7268 82.114C68.4975 82.0393 68.2868 81.9433 68.0948 81.826C67.9028 81.7087 67.7455 81.554 67.6228 81.362C67.5055 81.17 67.4468 80.9247 67.4468 80.626C67.4468 80.306 67.5321 80.0153 67.7028 79.754C67.8788 79.4873 68.1401 79.2767 68.4868 79.122C68.8388 78.962 69.2788 78.882 69.8068 78.882C70.1588 78.882 70.5055 78.9247 70.8468 79.01C71.1881 79.09 71.4895 79.2127 71.7508 79.378L71.3508 80.362C71.0895 80.2127 70.8281 80.1033 70.5668 80.034C70.3055 79.9593 70.0495 79.922 69.7988 79.922C69.5481 79.922 69.3428 79.9513 69.1828 80.01C69.0228 80.0687 68.9081 80.146 68.8388 80.242C68.7695 80.3327 68.7348 80.4393 68.7348 80.562C68.7348 80.706 68.7935 80.8233 68.9108 80.914C69.0281 80.9993 69.1828 81.0687 69.3748 81.122C69.5668 81.1753 69.7775 81.2287 70.0068 81.282C70.2415 81.3353 70.4735 81.3967 70.7028 81.466C70.9375 81.5353 71.1508 81.6287 71.3428 81.746C71.5348 81.8633 71.6895 82.018 71.8068 82.21C71.9295 82.402 71.9908 82.6447 71.9908 82.938C71.9908 83.2527 71.9028 83.5407 71.7268 83.802C71.5508 84.0633 71.2868 84.274 70.9348 84.434C70.5881 84.594 70.1481 84.674 69.6148 84.674ZM75.3644 84.674C74.5697 84.674 73.9484 84.4527 73.5004 84.01C73.0524 83.5673 72.8284 82.9353 72.8284 82.114V78.978H74.1244V82.066C74.1244 82.5993 74.2337 82.9833 74.4524 83.218C74.671 83.4527 74.9777 83.57 75.3724 83.57C75.767 83.57 76.0737 83.4527 76.2924 83.218C76.511 82.9833 76.6204 82.5993 76.6204 82.066V78.978H77.9004V82.114C77.9004 82.9353 77.6764 83.5673 77.2284 84.01C76.7804 84.4527 76.159 84.674 75.3644 84.674ZM80.3411 83.298L80.2691 81.802L82.9491 78.978H84.3891L81.9731 81.578L81.2531 82.346L80.3411 83.298ZM79.1811 84.578V78.978H80.4691V84.578H79.1811ZM83.0131 84.578L81.0211 82.138L81.8691 81.218L84.5251 84.578H83.0131ZM86.6326 84.578L89.1286 78.978H90.4086L92.9126 84.578H91.5526L89.5046 79.634H90.0166L87.9606 84.578H86.6326ZM87.8806 83.378L88.2246 82.394H91.1046L91.4566 83.378H87.8806ZM94.6536 83.298L94.5816 81.802L97.2616 78.978H98.7016L96.2856 81.578L95.5656 82.346L94.6536 83.298ZM93.4936 84.578V78.978H94.7816V84.578H93.4936ZM97.3256 84.578L95.3336 82.138L96.1816 81.218L98.8376 84.578H97.3256ZM98.4216 84.578L100.918 78.978H102.198L104.702 84.578H103.342L101.294 79.634H101.806L99.7496 84.578H98.4216ZM99.6696 83.378L100.014 82.394H102.894L103.246 83.378H99.6696ZM105.283 84.578V78.978H106.579V83.522H109.387V84.578H105.283Z" fill="#1A1A1A"/>
<path d="M36.5182 43.6394V26.8672H43.2271C44.4229 26.8672 45.3896 27.1079 46.1273 27.5893C46.865 28.063 47.4046 28.6609 47.7463 29.383C48.0879 30.1052 48.2588 30.8351 48.2588 31.5727C48.2588 32.5123 48.0452 33.2927 47.6182 33.9138C47.1988 34.535 46.6204 34.9505 45.8827 35.1601V34.5777C46.931 34.7952 47.7152 35.2805 48.2355 36.0337C48.7635 36.7869 49.0275 37.6294 49.0275 38.5611C49.0275 39.5628 48.8411 40.4441 48.4684 41.2051C48.1035 41.9661 47.5444 42.564 46.7912 42.9988C46.038 43.4259 45.0907 43.6394 43.9492 43.6394H36.5182ZM39.7329 40.6577H43.6231C44.0502 40.6577 44.4307 40.5684 44.7645 40.3898C45.0984 40.2034 45.3586 39.9472 45.5449 39.6211C45.739 39.2872 45.8361 38.895 45.8361 38.4447C45.8361 38.0487 45.7546 37.6954 45.5915 37.3848C45.4284 37.0742 45.18 36.8296 44.8461 36.651C44.52 36.4646 44.1123 36.3714 43.6231 36.3714H39.7329V40.6577ZM39.7329 33.413H43.1805C43.5377 33.413 43.8561 33.3509 44.1356 33.2267C44.4151 33.1024 44.6364 32.9122 44.7995 32.6559C44.9626 32.3919 45.0441 32.0541 45.0441 31.6426C45.0441 31.1301 44.8849 30.6992 44.5665 30.3498C44.2482 30.0003 43.7862 29.8256 43.1805 29.8256H39.7329V33.413ZM51.3504 43.6394V26.8672H62.2989V29.8256H54.5185V33.413H60.9013V36.3714H54.5185V40.681H62.2989V43.6394H51.3504ZM71.4268 43.9888C70.1845 43.9888 69.0624 43.7714 68.0608 43.3366C67.0668 42.894 66.2476 42.265 65.6032 41.4497C64.9664 40.6266 64.5627 39.6482 64.3918 38.5146L67.6997 38.0254C67.9326 38.9882 68.4141 39.7298 69.144 40.25C69.8739 40.7703 70.7047 41.0304 71.6365 41.0304C72.1567 41.0304 72.6615 40.9489 73.1507 40.7858C73.6398 40.6227 74.0397 40.382 74.3503 40.0637C74.6687 39.7453 74.8279 39.3532 74.8279 38.8873C74.8279 38.7164 74.8007 38.5534 74.7463 38.3981C74.6998 38.235 74.6182 38.0836 74.5017 37.9438C74.3853 37.8041 74.2183 37.6721 74.0009 37.5478C73.7913 37.4236 73.5234 37.311 73.1972 37.2101L68.8411 35.9288C68.515 35.8357 68.1345 35.7037 67.6997 35.5328C67.2726 35.362 66.8572 35.1174 66.4534 34.799C66.0496 34.4807 65.7119 34.0614 65.4401 33.5411C65.1761 33.0131 65.0441 32.3492 65.0441 31.5494C65.0441 30.4235 65.3275 29.4878 65.8943 28.7424C66.4612 27.997 67.2183 27.4418 68.1656 27.0768C69.1129 26.7119 70.1612 26.5333 71.3104 26.5411C72.4673 26.5566 73.5001 26.7546 74.4086 27.1351C75.3171 27.5156 76.078 28.0707 76.6915 28.8006C77.3049 29.5228 77.7475 30.408 78.0193 31.4563L74.5949 32.0386C74.4707 31.4951 74.2416 31.0369 73.9077 30.6642C73.5738 30.2915 73.1739 30.0081 72.7081 29.814C72.2499 29.6198 71.7685 29.515 71.2638 29.4995C70.7668 29.484 70.297 29.5538 69.8544 29.7091C69.4196 29.8567 69.0624 30.0741 68.7829 30.3614C68.5111 30.6487 68.3752 30.9904 68.3752 31.3864C68.3752 31.7513 68.4878 32.0503 68.713 32.2832C68.9382 32.5084 69.2216 32.6909 69.5633 32.8306C69.9049 32.9704 70.2543 33.0869 70.6115 33.1801L73.5234 33.9721C73.9582 34.0886 74.4396 34.2439 74.9676 34.438C75.4957 34.6243 76.0004 34.8883 76.4818 35.23C76.971 35.5639 77.3709 36.0065 77.6815 36.5578C77.9998 37.1091 78.159 37.808 78.159 38.6543C78.159 39.5551 77.9688 40.3432 77.5883 41.0187C77.2156 41.6865 76.7109 42.2417 76.0741 42.6843C75.4374 43.1192 74.7153 43.4453 73.9077 43.6627C73.1079 43.8801 72.281 43.9888 71.4268 43.9888ZM84.6093 43.6394V29.8256H79.3214V26.8672H93.0653V29.8256H87.7774V43.6394H84.6093Z" fill="white"/>
<path d="M39.7503 62.3901V49.811H45.0616C45.1838 49.811 45.3469 49.8168 45.5507 49.8284C45.7604 49.8343 45.9468 49.8517 46.1098 49.8809C46.8611 49.9973 47.4755 50.2448 47.953 50.6234C48.4364 51.0019 48.7916 51.4795 49.0187 52.056C49.2459 52.6267 49.3594 53.2644 49.3594 53.9691C49.3594 54.6738 49.243 55.3144 49.01 55.8909C48.7829 56.4616 48.4276 56.9363 47.9443 57.3148C47.4667 57.6933 46.8552 57.9408 46.1098 58.0573C45.9468 58.0806 45.7604 58.0981 45.5507 58.1097C45.3411 58.1214 45.178 58.1272 45.0616 58.1272H42.1264V62.3901H39.7503ZM42.1264 55.9084H44.9567C45.079 55.9084 45.213 55.9025 45.3586 55.8909C45.5042 55.8793 45.6381 55.856 45.7604 55.821C46.0807 55.7337 46.3282 55.5881 46.5029 55.3842C46.6776 55.1746 46.797 54.9446 46.8611 54.6941C46.931 54.4379 46.9659 54.1962 46.9659 53.9691C46.9659 53.742 46.931 53.5032 46.8611 53.2528C46.797 52.9965 46.6776 52.7665 46.5029 52.5627C46.3282 52.353 46.0807 52.2045 45.7604 52.1172C45.6381 52.0822 45.5042 52.0589 45.3586 52.0473C45.213 52.0356 45.079 52.0298 44.9567 52.0298H42.1264V55.9084ZM51.1134 62.3901V49.811H56.4246C56.5469 49.811 56.7099 49.8168 56.9138 49.8284C57.1234 49.8343 57.3098 49.8517 57.4728 49.8809C58.2241 49.9973 58.8385 50.2448 59.316 50.6234C59.7994 51.0019 60.1546 51.4795 60.3818 52.056C60.6089 52.6267 60.7224 53.2644 60.7224 53.9691C60.7224 55.0232 60.4604 55.9258 59.9363 56.6771C59.4121 57.4225 58.591 57.8826 57.4728 58.0573L56.4246 58.1272H53.4894V62.3901H51.1134ZM58.2066 62.3901L55.7257 57.2711L58.1717 56.7994L60.8972 62.3901H58.2066ZM53.4894 55.9084H56.3197C56.442 55.9084 56.576 55.9025 56.7216 55.8909C56.8672 55.8793 57.0011 55.856 57.1234 55.821C57.4437 55.7337 57.6912 55.5881 57.8659 55.3842C58.0406 55.1746 58.16 54.9446 58.2241 54.6941C58.294 54.4379 58.3289 54.1962 58.3289 53.9691C58.3289 53.742 58.294 53.5032 58.2241 53.2528C58.16 52.9965 58.0406 52.7665 57.8659 52.5627C57.6912 52.353 57.4437 52.2045 57.1234 52.1172C57.0011 52.0822 56.8672 52.0589 56.7216 52.0473C56.576 52.0356 56.442 52.0298 56.3197 52.0298H53.4894V55.9084ZM62.9923 62.3901V49.811H65.3684V62.3901H62.9923ZM73.3858 62.6522C72.1279 62.6522 71.0418 62.3785 70.1275 61.8311C69.219 61.2836 68.5172 60.5178 68.0222 59.5336C67.533 58.5494 67.2884 57.4051 67.2884 56.1006C67.2884 54.796 67.533 53.6517 68.0222 52.6675C68.5172 51.6833 69.219 50.9175 70.1275 50.37C71.0418 49.8226 72.1279 49.5489 73.3858 49.5489C74.8301 49.5489 76.0414 49.9071 77.0198 50.6234C78.004 51.3397 78.697 52.3093 79.0989 53.5323L76.7053 54.1962C76.4724 53.4333 76.0793 52.8422 75.526 52.4229C74.9728 51.9978 74.2594 51.7852 73.3858 51.7852C72.588 51.7852 71.9212 51.9628 71.3854 52.3181C70.8554 52.6733 70.4565 53.1742 70.1886 53.8206C69.9207 54.467 69.7868 55.227 69.7868 56.1006C69.7868 56.9741 69.9207 57.7341 70.1886 58.3805C70.4565 59.027 70.8554 59.5278 71.3854 59.883C71.9212 60.2383 72.588 60.4159 73.3858 60.4159C74.2594 60.4159 74.9728 60.2033 75.526 59.7782C76.0793 59.3531 76.4724 58.762 76.7053 58.0049L79.0989 58.6688C78.697 59.8918 78.004 60.8614 77.0198 61.5777C76.0414 62.294 74.8301 62.6522 73.3858 62.6522ZM81.0223 62.3901V49.811H89.2337V52.0298H83.3984V54.7203H88.1855V56.9392H83.3984V60.1713H89.2337V62.3901H81.0223Z" fill="white"/>
</svg>
