<svg width="261" height="140" viewBox="0 0 261 140" fill="none" xmlns="http://www.w3.org/2000/svg">
<path d="M205.415 136.513C218.761 131.013 230.55 120.596 238.634 107.159C244.68 97.1096 248.694 84.0904 244.919 72.6569C242.273 64.643 236.224 58.7498 229.799 54.4455C216.142 45.2975 199.688 41.8517 184.118 44.8791C155.654 50.4138 131.258 76.3777 102.399 75.6659C78.9665 75.0879 58.6867 56.9403 35.8656 50.7708C28.3119 48.7287 19.5696 48.328 13.6257 54.0836C9.20585 58.3634 7.2977 65.1817 6.41483 71.7629C3.16449 95.9925 11.8379 121.885 28.3634 137.287L205.415 136.513Z" stroke="#F6F0E4" stroke-width="0.755279" stroke-miterlimit="10"/>
<path d="M46.7108 136.617C33.3649 131.852 21.5762 122.828 13.4926 111.189C7.44653 102.484 3.43255 91.2063 7.20714 81.3023C9.85281 74.3604 15.9018 69.2556 22.3274 65.5271C35.9839 57.6028 52.4382 54.6179 68.008 57.2404C96.4719 62.0347 120.868 84.5255 149.727 83.9088C173.16 83.4081 193.44 67.6881 216.261 62.3439C223.814 60.575 232.557 60.2279 238.501 65.2136C242.92 68.9209 244.828 74.8272 245.711 80.528C248.962 101.516 240.288 123.946 223.763 137.287L46.7108 136.617Z" fill="#F6F0E4"/>
<path d="M167.946 21.545H143.59C140.661 21.545 138.286 19.1703 138.286 16.241V5.30403C138.286 2.37473 140.66 0 143.59 0H167.946C170.875 0 173.25 2.37473 173.25 5.30403V16.241C173.25 19.1703 170.875 21.545 167.946 21.545Z" fill="#C6EAE9"/>
<path d="M167.548 5.03613H143.988V7.08481H167.548V5.03613Z" fill="white"/>
<path d="M167.548 9.74829H143.988V11.797H167.548V9.74829Z" fill="white"/>
<path d="M167.548 14.46H143.988V16.5086H167.548V14.46Z" fill="white"/>
<path d="M161.802 19.8331L167.24 26.4617V18.8132L161.802 19.8331Z" fill="#C6EAE9"/>
<path d="M251.889 18.3413H249.628V22.5065H251.889V18.3413Z" fill="#F6F0E4"/>
<path d="M246.835 19.4986L245.236 21.0974L248.181 24.0426L249.78 22.4438L246.835 19.4986Z" fill="#F6F0E4"/>
<path d="M248.247 23.8867H244.082V26.1478H248.247V23.8867Z" fill="#F6F0E4"/>
<path d="M248.181 25.995L245.236 28.9402L246.835 30.539L249.78 27.5938L248.181 25.995Z" fill="#F6F0E4"/>
<path d="M251.889 27.5283H249.628V31.6935H251.889V27.5283Z" fill="#F6F0E4"/>
<path d="M253.331 25.9944L251.732 27.5933L254.677 30.5385L256.276 28.9396L253.331 25.9944Z" fill="#F6F0E4"/>
<path d="M257.434 23.8867H253.269V26.1478H257.434V23.8867Z" fill="#F6F0E4"/>
<path d="M254.678 19.4996L251.733 22.4448L253.332 24.0437L256.277 21.0985L254.678 19.4996Z" fill="#F6F0E4"/>
<path d="M251.889 18.3413H249.628V22.5065H251.889V18.3413Z" fill="#F6F0E4"/>
<path d="M250.758 29.963C253.49 29.963 255.704 27.7489 255.704 25.0175C255.704 22.2862 253.49 20.072 250.758 20.072C248.027 20.072 245.813 22.2862 245.813 25.0175C245.813 27.7489 248.027 29.963 250.758 29.963Z" fill="#F6F0E4"/>
<path d="M250.758 28.374C252.612 28.374 254.115 26.8713 254.115 25.0176C254.115 23.1639 252.612 21.6611 250.758 21.6611C248.905 21.6611 247.402 23.1639 247.402 25.0176C247.402 26.8713 248.905 28.374 250.758 28.374Z" fill="white"/>
<path d="M12.6861 27.3735H10.9339V30.6014H12.6861V27.3735Z" fill="#F6F0E4"/>
<path d="M8.77038 28.2691L7.53137 29.5081L9.81382 31.7905L11.0528 30.5515L8.77038 28.2691Z" fill="#F6F0E4"/>
<path d="M9.86411 31.6711H6.63622V33.4235H9.86411V31.6711Z" fill="#F6F0E4"/>
<path d="M9.81388 33.3035L7.53143 35.5859L8.77044 36.8249L11.0529 34.5425L9.81388 33.3035Z" fill="#F6F0E4"/>
<path d="M12.6861 34.4932H10.9339V37.7211H12.6861V34.4932Z" fill="#F6F0E4"/>
<path d="M13.8048 33.3035L12.5658 34.5425L14.8482 36.8249L16.0872 35.5859L13.8048 33.3035Z" fill="#F6F0E4"/>
<path d="M16.9838 31.6711H13.7559V33.4235H16.9838V31.6711Z" fill="#F6F0E4"/>
<path d="M14.8482 28.2693L12.5658 30.5518L13.8048 31.7908L16.0872 29.5083L14.8482 28.2693Z" fill="#F6F0E4"/>
<path d="M12.6861 27.3735H10.9339V30.6014H12.6861V27.3735Z" fill="#F6F0E4"/>
<path d="M13.2786 36.0892C15.2342 35.2792 16.1629 33.0372 15.3528 31.0816C14.5428 29.126 12.3008 28.1973 10.3452 29.0074C8.38958 29.8174 7.46093 32.0594 8.27098 34.015C9.08103 35.9706 11.323 36.8993 13.2786 36.0892Z" fill="#F6F0E4"/>
<path d="M14.3825 32.9514C14.6046 31.5321 13.634 30.2015 12.2146 29.9794C10.7953 29.7573 9.4646 30.7278 9.24251 32.1471C9.02042 33.5665 9.991 34.8971 11.4104 35.1192C12.8297 35.3413 14.1604 34.3708 14.3825 32.9514Z" fill="white"/>
<path d="M239.616 3.39014H237.863V6.61803H239.616V3.39014Z" fill="#F6F0E4"/>
<path d="M235.698 4.28761L234.459 5.52661L236.742 7.80906L237.981 6.57006L235.698 4.28761Z" fill="#F6F0E4"/>
<path d="M236.794 7.68774H233.566V9.43998H236.794V7.68774Z" fill="#F6F0E4"/>
<path d="M236.741 9.32107L234.459 11.6035L235.698 12.8425L237.98 10.5601L236.741 9.32107Z" fill="#F6F0E4"/>
<path d="M239.616 10.51H237.863V13.7379H239.616V10.51Z" fill="#F6F0E4"/>
<path d="M240.733 9.32155L239.494 10.5605L241.776 12.843L243.015 11.604L240.733 9.32155Z" fill="#F6F0E4"/>
<path d="M243.913 7.68774H240.685V9.43998H243.913V7.68774Z" fill="#F6F0E4"/>
<path d="M241.776 4.28736L239.494 6.56982L240.733 7.80883L243.015 5.52637L241.776 4.28736Z" fill="#F6F0E4"/>
<path d="M239.616 3.39014H237.863V6.61803H239.616V3.39014Z" fill="#F6F0E4"/>
<path d="M242.53 9.181C242.873 7.09227 241.458 5.12087 239.37 4.77776C237.281 4.43465 235.309 5.84975 234.966 7.93848C234.623 10.0272 236.038 11.9986 238.127 12.3417C240.216 12.6848 242.187 11.2697 242.53 9.181Z" fill="#F6F0E4"/>
<path d="M239.723 10.9805C241.053 10.4392 241.693 8.92165 241.152 7.59098C240.611 6.2603 239.093 5.6204 237.762 6.16171C236.432 6.70302 235.792 8.22057 236.333 9.55125C236.874 10.8819 238.392 11.5218 239.723 10.9805Z" fill="white"/>
<path d="M26.8231 10.9517H24.2573V15.6783H26.8231V10.9517Z" fill="#F6F0E4"/>
<path d="M21.0898 12.2633L19.2754 14.0776L22.6176 17.4198L24.4319 15.6055L21.0898 12.2633Z" fill="#F6F0E4"/>
<path d="M22.6908 17.2451H17.9641V19.811H22.6908V17.2451Z" fill="#F6F0E4"/>
<path d="M22.6175 19.6356L19.2753 22.9778L21.0896 24.7921L24.4318 21.4499L22.6175 19.6356Z" fill="#F6F0E4"/>
<path d="M26.8231 21.3774H24.2573V26.104H26.8231V21.3774Z" fill="#F6F0E4"/>
<path d="M28.4615 19.6351L26.6472 21.4495L29.9894 24.7916L31.8037 22.9773L28.4615 19.6351Z" fill="#F6F0E4"/>
<path d="M33.1163 17.2451H28.3897V19.811H33.1163V17.2451Z" fill="#F6F0E4"/>
<path d="M29.9894 12.2638L26.6472 15.606L28.4615 17.4203L31.8037 14.0781L29.9894 12.2638Z" fill="#F6F0E4"/>
<path d="M26.8231 10.9517H24.2573V15.6783H26.8231V10.9517Z" fill="#F6F0E4"/>
<path d="M25.5402 24.1401C28.6397 24.1401 31.1523 21.6275 31.1523 18.5281C31.1523 15.4286 28.6397 12.916 25.5402 12.916C22.4408 12.916 19.9282 15.4286 19.9282 18.5281C19.9282 21.6275 22.4408 24.1401 25.5402 24.1401Z" fill="#F6F0E4"/>
<path d="M25.5402 22.3368C27.6438 22.3368 29.3491 20.6315 29.3491 18.5279C29.3491 16.4243 27.6438 14.719 25.5402 14.719C23.4366 14.719 21.7313 16.4243 21.7313 18.5279C21.7313 20.6315 23.4366 22.3368 25.5402 22.3368Z" fill="white"/>
<path d="M46.5051 86.4196C52.218 87.6438 57.9757 85.1786 59.6576 79.3054C60.3101 77.0266 60.2656 74.4918 59.3291 72.2965C58.4205 70.1666 56.7136 68.6942 54.5095 68.0404C52.2759 67.378 49.8351 67.3307 47.7846 66.1239C45.2195 64.6144 43.3447 62.498 42.3867 59.6315C41.6282 57.3619 41.109 55.179 39.8996 53.0659C34.7784 44.1177 21.9762 44.1849 15.181 51.121C6.97077 59.5014 10.2151 74.2585 15.8998 83.0828C17.2792 85.224 18.8908 87.2138 20.6916 89.0147L46.5051 86.4196Z" fill="#1F242E"/>
<path d="M79.5434 91.5622C79.5434 91.5622 79.3139 92.2587 78.8755 93.4019L78.8427 93.4838C77.4087 97.2288 73.8603 105.53 69.1484 110.008C67.9806 111.123 66.7391 112 65.4444 112.512C64.0718 113.057 62.5189 112.889 60.8963 112.237C59.6261 111.733 58.3109 110.93 57.0038 109.943C52.3615 106.452 47.7643 100.642 45.3796 97.4091C44.3266 95.9791 43.7038 95.0531 43.7038 95.0531L46.7604 94.8564L49.2106 94.7007L58.3191 94.1189L63.031 99.6667L69.4967 90.0011L69.5008 89.997L71.6232 86.8215L79.5434 91.5622Z" fill="#F9B384"/>
<path d="M78.1951 94.987L81.0298 88.3726C84.217 85.5063 87.2995 80.1294 86.5084 77.9454C86.253 77.2402 85.4122 77.6504 85.4122 77.6504C85.4122 77.6504 87.2261 75.2706 87.162 74.557C87.0977 73.8432 85.7991 73.8438 85.7991 73.8438C86.1647 73.4489 86.5922 72.2978 85.8323 71.9231C84.9916 71.5084 83.9037 72.9636 83.9037 72.9636C84.1118 71.2347 83.0207 71.5936 83.0207 71.5936C79.668 73.7643 78.919 75.387 76.1065 78.5871C75.965 78.7136 75.7637 78.574 75.7646 78.3728C75.796 71.6008 73.5936 72.5724 73.5936 72.5724C72.2633 77.6916 71.7323 82.0151 72.5493 84.9964L69.4951 90.0005L78.1951 94.987Z" fill="#F9B384"/>
<path d="M58.3191 94.1024L51.8944 102.953C51.3454 99.9821 49.9646 96.7124 47.6659 93.1805L44.7486 80.7368C46.8956 81.5481 48.8296 82.8961 50.3456 84.6867L58.3191 94.1024Z" fill="#EE6F57"/>
<path opacity="0.3" d="M57.0039 109.943C52.3616 106.452 47.7643 100.642 45.3797 97.4091L46.7605 94.8565L47.666 93.1807C47.666 93.1807 48.2847 93.7092 49.2107 94.7008C51.5421 97.1961 55.8238 102.637 57.0039 109.943Z" fill="#6F3428"/>
<path d="M56.2704 135.451L21.8526 135.793L16.1532 104.546L15.2968 99.8386L11.9821 85.2069C13.3506 84.3629 14.8174 83.6868 16.3457 83.1787L20.3653 81.8348L28.3059 79.1797L38.7829 79.7738L40.3931 79.864C41.8969 79.9172 43.3678 80.2163 44.7486 80.7367L47.666 93.1804C49.9646 96.7123 51.3454 99.982 51.8944 102.953C52.5705 106.616 50.3292 112.54 50.3292 112.54C50.3292 112.54 54.4949 128.622 56.2704 135.451Z" fill="#EE6F57"/>
<path d="M38.2419 127.119V127.123L37.9183 133.101L37.9101 133.224L9.458 133.334C9.33508 133.334 9.21626 133.334 9.09743 133.33C5.31147 133.256 2.73423 131.097 1.64433 127.885C1.33703 126.983 1.14855 126 1.083 124.955C1.04202 124.32 1.0707 123.681 1.12397 123.046L2.39005 108.34L10.4659 102.35L15.5016 108.545L13.6578 122.579L38.2419 127.119Z" fill="#F9B384"/>
<path d="M38.2387 127.124L42.2806 126.381C43.4149 126.173 44.5881 126.485 45.4288 127.218L52.1732 133.099H34.4198L38.2387 127.124Z" fill="#F9B384"/>
<path d="M34.1626 70.2885L23.6597 70.8154L24.2906 83.3913L34.7935 82.8644L34.1626 70.2885Z" fill="#F9B384"/>
<path d="M34.3154 73.6155C31.3107 79.5226 25.7451 77.4056 23.7647 73.479L30.0815 72.3181L34.3154 73.6155Z" fill="#E28B6D"/>
<path d="M38.029 65.1833C37.7913 66.6788 37.4471 68.1006 36.9882 69.3708C36.0131 72.0832 34.5093 74.095 32.3705 74.6728C26.2818 76.3199 21.8034 74.4351 18.9353 64.1385L17.534 54.186L32.9482 52.0881L38.3363 56.2797C38.5616 59.1725 38.4879 62.3151 38.029 65.1833Z" fill="#F9B384"/>
<path d="M19.0869 64.0037C22.3569 62.8878 24.6728 60.8052 24.6183 56.3211C31.0716 54.7458 36.0105 56.6206 38.9591 63.0306L39.6761 55.7065C39.6761 55.7065 31.0204 48.7922 30.8668 48.7922C30.7131 48.7922 15.348 52.7872 15.348 52.7872L14.7847 59.2917L19.0869 64.0037Z" fill="#1F242E"/>
<path d="M16.1531 104.547L15.5713 108.546L2.32047 108.341L4.40602 96.0732C4.95916 92.8199 6.52026 89.8084 8.92131 87.5425C8.95819 87.5097 8.99506 87.477 9.03194 87.4401C9.94155 86.596 10.9331 85.8503 11.982 85.207L15.2968 99.8387L16.1531 104.547Z" fill="#EE6F57"/>
<path d="M38.7828 79.7738C37.2176 88.1952 25.1304 89.2879 20.3652 81.8348L28.3059 79.1797L38.7828 79.7738Z" fill="#F9B384"/>
<path d="M21.366 65.1767C21.366 66.931 20.9749 67.9486 19.6971 68.2598C17.9708 68.6802 16.3211 66.277 16.3211 64.5228C16.3211 62.7685 17.3583 61.5798 18.6613 61.5798C19.9644 61.5798 21.366 63.4224 21.366 65.1767Z" fill="#F9B384"/>
<path d="M16.4701 100.292L15.3134 108.646" stroke="#6F3428" stroke-width="0.50352" stroke-miterlimit="10"/>
<g opacity="0.3">
<path d="M24.1223 89.4252C24.7289 89.71 25.3673 89.9678 26.0181 90.1548C26.3404 90.2589 26.671 90.3361 26.9957 90.4281C27.3273 90.4945 27.6575 90.5644 27.9889 90.6231C29.3192 90.8337 30.6735 90.8604 31.9904 90.6423C32.155 90.6162 32.322 90.6028 32.4848 90.5675L32.9707 90.4477C33.2912 90.3567 33.6274 90.3159 33.934 90.1788L34.8773 89.8361C35.1879 89.7119 35.4774 89.5386 35.7827 89.398C36.0854 89.2513 36.3919 89.1096 36.6664 88.911L37.5233 88.3658C38.0904 87.9919 38.5926 87.5279 39.1538 87.1257L39.3792 87.3533C39.1381 87.6053 38.8915 87.8544 38.6404 88.1001L38.2652 88.4716C38.1424 88.5988 38.0145 88.7201 37.8703 88.8221C37.3015 89.237 36.7671 89.7144 36.1262 90.0306C34.9139 90.7808 33.5193 91.2204 32.1124 91.4489C30.6989 91.6688 29.2437 91.6206 27.8591 91.303C26.4716 90.9959 25.1427 90.4781 23.9535 89.6975L24.1223 89.4252Z" fill="#6F3428"/>
</g>
<path d="M30.7393 63.6636C30.7931 64.1361 30.839 64.6027 30.9863 65.003C31.0614 65.2021 31.1591 65.3823 31.2915 65.5315C31.4203 65.68 31.5971 65.8232 31.7839 65.9935C31.9642 66.162 32.177 66.389 32.2501 66.7203C32.3193 67.0586 32.1776 67.3904 31.9798 67.5967C31.7811 67.816 31.5171 67.9412 31.2719 68.009C31.0213 68.0765 30.7774 68.1023 30.537 68.1116L30.4927 67.8963C30.9368 67.734 31.3914 67.5796 31.6017 67.2788C31.8304 66.9603 31.7394 66.7108 31.3998 66.4002C31.2429 66.2444 31.0421 66.0929 30.8738 65.8696C30.7045 65.6512 30.5882 65.3982 30.5274 65.1429C30.3984 64.6298 30.4481 64.1311 30.5196 63.6587L30.7393 63.6636Z" fill="#E28B6D"/>
<path d="M27.6632 63.2149C27.7223 63.7861 27.4519 64.2822 27.0592 64.3228C26.6664 64.3635 26.3001 63.9333 26.241 63.3621C26.1819 62.7908 26.4524 62.2947 26.8451 62.2541C27.2378 62.2134 27.6041 62.6436 27.6632 63.2149Z" fill="#1F242E"/>
<path d="M34.7533 62.8888C34.8124 63.46 34.542 63.9561 34.1492 63.9968C33.7565 64.0375 33.3902 63.6072 33.3311 63.036C33.272 62.4647 33.5424 61.9686 33.9352 61.9279C34.3279 61.8874 34.6942 62.3176 34.7533 62.8888Z" fill="#1F242E"/>
<path d="M27.9712 69.7246C27.9986 69.7232 30.9692 70.0305 32.5257 69.7762C32.5257 69.7762 31.7203 71.6011 29.7741 71.2938C28.4801 71.0895 27.9712 69.7246 27.9712 69.7246Z" fill="white"/>
<path d="M24.3297 61.7575C24.5204 61.332 24.834 60.9655 25.231 60.6788C25.6297 60.3973 26.1282 60.217 26.6398 60.194C27.1514 60.1698 27.6579 60.3029 28.0795 60.5398C28.5023 60.7768 28.8546 61.104 29.0947 61.5075L28.9512 61.6855C28.5176 61.5512 28.1344 61.4115 27.7591 61.3196C27.3848 61.228 27.0289 61.1748 26.6768 61.183C26.325 61.194 25.9759 61.2657 25.6179 61.3959C25.2555 61.5199 24.8982 61.7126 24.4971 61.9134L24.3297 61.7575Z" fill="#1F242E"/>
<path d="M31.8632 61.3641C31.9809 60.9662 32.2592 60.6082 32.6187 60.3609C32.9773 60.11 33.414 59.9704 33.8513 59.9482C34.2897 59.9228 34.732 60.0227 35.1157 60.2276C35.4979 60.4303 35.825 60.7547 35.9756 61.1499L35.7965 61.2921C35.4736 61.0918 35.1644 60.9599 34.8465 60.8718C34.5294 60.7849 34.2061 60.7528 33.8867 60.7606C33.2398 60.7796 32.6377 61.0069 32.0556 61.4876L31.8632 61.3641Z" fill="#1F242E"/>
<path opacity="0.4" d="M27.1813 68.0518C27.5647 66.8148 26.8728 65.5011 25.6358 65.1176C24.3988 64.7342 23.0852 65.4262 22.7017 66.6632C22.3182 67.9003 23.0102 69.2139 24.2472 69.5974C25.4841 69.9808 26.7978 69.2889 27.1813 68.0518Z" fill="#FC8879"/>
<path opacity="0.4" d="M38.0289 65.1832C37.7913 66.6788 37.4471 68.1006 36.9882 69.3707C36.6891 69.4199 36.3777 69.4076 36.0663 69.3339C34.8043 69.0307 34.0299 67.7646 34.3372 66.5026C34.6404 65.2447 35.9065 64.4703 37.1644 64.7735C37.4881 64.8514 37.779 64.9948 38.0289 65.1832Z" fill="#FC8879"/>
<path d="M19.6945 65.256C19.6167 64.6197 19.267 64.0779 18.7945 63.7477C18.5594 63.5874 18.296 63.4981 18.0652 63.536C17.8355 63.5811 17.6258 63.7921 17.4497 64.0725L17.2412 64.0029C17.285 63.6529 17.4837 63.2317 17.92 63.0639C18.355 62.9148 18.7964 63.0658 19.1111 63.286C19.4321 63.5127 19.677 63.8231 19.8225 64.1743C19.9716 64.5228 20.0106 64.9213 19.9132 65.2777L19.6945 65.256Z" fill="#E28B6D"/>
<path opacity="0.4" d="M9.09751 133.33C5.31155 133.257 2.73431 131.097 1.64441 127.885C4.89362 127.033 7.80684 128.602 9.09751 133.33Z" fill="#FC8879"/>
<path opacity="0.4" d="M69.1484 110.008C67.9807 111.123 66.7392 112 65.4444 112.512C64.0718 113.057 62.5189 112.889 60.8963 112.237C61.6215 108.632 65.6042 107.525 69.1484 110.008Z" fill="#FC8879"/>
<path d="M83.3941 80.8419C82.8136 80.151 82.2059 79.489 81.5433 78.9013C81.2154 78.6022 80.8629 78.3369 80.5039 78.0798C80.1416 77.8255 79.7594 77.6064 79.3605 77.3895L79.4268 77.1921C79.8844 77.2906 80.34 77.4458 80.75 77.6819C81.1608 77.9142 81.5512 78.1868 81.8966 78.5058C82.5903 79.1404 83.1796 79.8816 83.5735 80.7359L83.3941 80.8419Z" fill="#E28B6D"/>
<path d="M76.3 79.4099C76.6582 79.6509 76.9516 79.9822 77.1814 80.3448C77.4144 80.7072 77.5876 81.1044 77.7132 81.5145C77.8356 81.9259 77.907 82.3537 77.9098 82.7854C77.9155 83.2155 77.8439 83.655 77.666 84.0496L77.4659 83.9924C77.5084 83.5943 77.4863 83.2025 77.4429 82.8142C77.3946 82.4262 77.3138 82.0416 77.205 81.665C76.9806 80.9134 76.6584 80.1896 76.1617 79.5655L76.3 79.4099Z" fill="#E28B6D"/>
<path d="M139.993 58.0114L136.206 51.2481C138.307 48.6573 139.568 45.357 139.568 41.761C139.568 33.4363 132.82 26.6877 124.495 26.6877C116.17 26.6877 109.422 33.4363 109.422 41.761C109.422 50.0857 116.17 56.8342 124.495 56.8342C127.456 56.8342 130.215 55.9773 132.544 54.5029C135.801 56.0481 139.993 58.0114 139.993 58.0114Z" fill="white" stroke="#708CD5" stroke-width="0.50352" stroke-miterlimit="10"/>
<path d="M127.705 46.8025V47.194C127.705 48.802 126.4 50.107 124.787 50.107H124.093C122.48 50.107 121.18 48.802 121.18 47.194V46.8025H127.705Z" fill="#FBC343"/>
<path d="M129.742 38.4528C129.742 39.4455 129.472 40.3683 128.996 41.1606C128.199 42.4936 127.705 43.9803 127.705 45.5324V45.6955H121.18V45.5324C121.18 44.013 120.737 42.5356 119.936 41.2445C119.423 40.4242 119.129 39.4502 119.139 38.4061C119.162 35.619 121.441 33.2653 124.228 33.1581C127.253 33.0417 129.742 35.456 129.742 38.4528Z" fill="#FBC343"/>
<path opacity="0.6" d="M121.935 39.2709C122.547 39.2709 123.042 38.5145 123.042 37.5814C123.042 36.6483 122.547 35.8918 121.935 35.8918C121.324 35.8918 120.828 36.6483 120.828 37.5814C120.828 38.5145 121.324 39.2709 121.935 39.2709Z" fill="white"/>
<path d="M58.8878 7.23535C50.5631 7.23535 43.8145 13.9839 43.8145 22.3086C43.8145 28.5593 47.6194 33.9209 53.0394 36.2048L52.2804 43.7181C52.2804 43.7181 55.4864 40.0847 57.8786 37.3446C58.2125 37.3667 58.5482 37.382 58.8878 37.382C67.2125 37.382 73.961 30.6334 73.961 22.3087C73.961 13.984 67.2125 7.23535 58.8878 7.23535Z" fill="white" stroke="#708CD5" stroke-width="0.50352" stroke-miterlimit="10"/>
<path d="M56.0473 20.1663H53.6774V26.1302H56.0473V20.1663Z" fill="#1F3C88"/>
<path d="M62.7462 20.1664H59.7976C61.6887 17.749 62.1047 16.4093 61.8249 15.6985C61.6984 15.377 61.2671 15.3139 61.0348 15.5696L56.864 20.1664H56.863V25.5738C56.863 25.8811 57.1121 26.1303 57.4194 26.1303H62.7461C63.4927 26.1303 64.0979 25.525 64.0979 24.7784V21.5182C64.098 20.7716 63.4927 20.1664 62.7462 20.1664Z" fill="#708CD5"/>
<path d="M217.33 37.0356C220.844 34.276 223.105 29.9916 223.105 25.1765C223.105 16.8518 216.356 10.1033 208.032 10.1033C199.707 10.1033 192.958 16.8518 192.958 25.1765C192.958 33.5012 199.707 40.2498 208.032 40.2498C209.982 40.2498 211.844 39.8753 213.554 39.201C216.184 41.3666 219.153 43.7914 219.153 43.7914L217.33 37.0356Z" fill="white" stroke="#708CD5" stroke-width="0.50352" stroke-miterlimit="10"/>
<path d="M210.872 29.135H213.242V23.1711H210.872V29.135Z" fill="#1F3C88"/>
<path d="M204.173 23.171H207.122C205.231 20.7536 204.815 19.4138 205.095 18.7031C205.221 18.3817 205.652 18.3185 205.885 18.5742L210.055 23.171H210.056V28.5785C210.056 28.8858 209.807 29.1349 209.5 29.1349H204.173C203.427 29.1349 202.821 28.5296 202.821 27.7831V24.5228C202.821 23.7762 203.427 23.171 204.173 23.171Z" fill="#708CD5"/>
<path d="M92.2284 41.9695H89.9673V46.1346H92.2284V41.9695Z" fill="#F6F0E4"/>
<path d="M87.1754 43.1255L85.5765 44.7244L88.5217 47.6696L90.1206 46.0707L87.1754 43.1255Z" fill="#F6F0E4"/>
<path d="M88.587 47.5149H84.4218V49.776H88.587V47.5149Z" fill="#F6F0E4"/>
<path d="M88.5216 49.6215L85.5764 52.5667L87.1752 54.1655L90.1204 51.2203L88.5216 49.6215Z" fill="#F6F0E4"/>
<path d="M92.2284 51.1565H89.9673V55.3217H92.2284V51.1565Z" fill="#F6F0E4"/>
<path d="M93.6715 49.6221L92.0726 51.2209L95.0178 54.1661L96.6167 52.5673L93.6715 49.6221Z" fill="#F6F0E4"/>
<path d="M97.7741 47.5149H93.6089V49.776H97.7741V47.5149Z" fill="#F6F0E4"/>
<path d="M95.0178 43.1256L92.0726 46.0708L93.6715 47.6696L96.6167 44.7245L95.0178 43.1256Z" fill="#F6F0E4"/>
<path d="M92.2284 41.9695H89.9673V46.1346H92.2284V41.9695Z" fill="#F6F0E4"/>
<path d="M92.9944 53.2147C95.5178 52.1694 96.7161 49.2764 95.6708 46.7529C94.6255 44.2295 91.7325 43.0311 89.2091 44.0764C86.6856 45.1216 85.4874 48.0147 86.5326 50.5381C87.5779 53.0616 90.4709 54.26 92.9944 53.2147Z" fill="#F6F0E4"/>
<path d="M92.3862 51.7466C94.0988 51.0372 94.9121 49.0737 94.2027 47.3611C93.4933 45.6484 91.5298 44.8352 89.8172 45.5446C88.1045 46.254 87.2912 48.2175 88.0006 49.9301C88.7101 51.6428 90.6735 52.4561 92.3862 51.7466Z" fill="white"/>
<path d="M126.745 130.257H85.7714L71.5672 95.188H112.541L126.745 130.257Z" fill="#C6C6C6"/>
<path d="M124.184 130.371H88.6871L75.2548 97.5317H110.752L124.184 130.371Z" fill="white"/>
<g opacity="0.6">
<path d="M94.0345 124.635H90.3901L88.2982 119.47H91.9425L94.0345 124.635Z" fill="#FBC343"/>
<path d="M99.7024 124.635H96.058L92.1223 114.826H95.7667L99.7024 124.635Z" fill="#FBC343"/>
<path d="M105.37 124.635H101.726L96.1514 110.524H99.7958L105.37 124.635Z" fill="#FBC343"/>
<path d="M111.038 124.635H107.394L100.453 107.656H104.098L111.038 124.635Z" fill="#FBC343"/>
<path d="M116.706 124.635H113.062L104.551 103.354H108.195L116.706 124.635Z" fill="#FBC343"/>
<path d="M89.2436 117.473L88.8551 117.344L91.4477 109.566L97.1213 107.605L101.229 102.487L106.35 99.1069L106.576 99.4486L101.481 102.811L97.3669 107.954L91.7727 109.887L89.2436 117.473Z" fill="#FBC343"/>
</g>
<path d="M139.792 133.739L91.2173 133.983C88.8034 133.995 86.6343 132.511 85.7714 130.257H139.792V133.739Z" fill="#1F242E"/>
<path d="M153.448 105.267C153.448 105.267 152.698 120.465 148.338 127.791C147.113 129.848 145.605 131.286 143.749 131.593C142.307 131.831 140.717 131.7 139.066 131.31C130.687 129.352 120.734 120.837 120.734 120.837L125.106 112.643L139.172 119.268L141.905 102.092L153.448 105.267Z" fill="#F9B384"/>
<path d="M199.781 91.644H188.615V127.803H199.781V91.644Z" fill="#E28B6D"/>
<path d="M172.909 77.2693L186.566 76.0742C192.815 75.2547 197.732 78.635 199.371 84.2689L202.444 96.1512L185.952 99.0194L172.909 77.2693Z" fill="#1F3C88"/>
<path d="M170.382 77.7129L154.197 81.7078C150.65 82.504 145.798 85.293 143.544 91.7463L140.266 104.346L154.402 105.472L156.451 94.2048L170.382 77.7129Z" fill="#1F3C88"/>
<path d="M193.942 135.998L156.246 136.203C156.246 136.203 155.976 133.822 155.57 130.221C154.308 119.117 151.739 96.3927 151.739 95.9789L149.006 87.7842L170.587 79.864L193.807 85.0554C193.884 93.1845 193.921 102.358 193.942 110.656C193.97 124.55 193.942 135.998 193.942 135.998Z" fill="#1F3C88"/>
<path d="M177.211 56.6455C180.011 53.8457 178.504 49.2816 176.971 47.2377C172.372 41.1059 160.958 37.6611 154.402 51.5921C149.383 53.1286 150.646 65.728 157.612 67.5035L177.211 56.6455Z" fill="#1F242E"/>
<path d="M171.107 84.4818C167.944 84.7358 165.174 82.3798 164.92 79.2167L164.068 68.6045L175.52 67.6826L175.635 69.129L175.758 70.6614L176.106 74.9882L176.155 75.6069L176.372 78.2948C176.626 81.4579 174.27 84.2277 171.107 84.4818Z" fill="#F9B384"/>
<path d="M176.155 75.607C170.46 76.4715 167.977 73.9844 166.69 73.2305L175.676 70.0837L175.758 70.6615L176.106 74.9883L176.155 75.607Z" fill="#E28B6D"/>
<path d="M178.433 66.2936C178.142 69.8297 176.749 72.9436 173.045 73.8205C168.149 74.9759 160.786 73.8041 157.578 65.4742C154.369 57.1401 158.159 54.5957 158.159 54.5957L169.358 50.2935L176.458 53.5713C176.458 53.5713 177.536 56.6034 178.122 60.332C178.425 62.2413 178.597 64.331 178.433 66.2936Z" fill="#F9B384"/>
<path d="M157.68 62.911C159.217 62.7061 159.393 62.8468 160.139 63.1671C160.884 63.4874 158.449 60.3696 161.812 57.1576C165.636 53.5041 171.474 59.9233 176.46 53.5724L173.148 48.98L159.217 50.7726L154.249 58.3527L156.041 63.5256L157.68 62.911Z" fill="#1F242E"/>
<path d="M160.776 63.3593C160.776 63.3593 155.963 60.2499 154.851 64.5818C154.384 66.4032 156.059 67.9492 156.95 68.2361C159.414 69.0289 161.526 67.3365 161.526 67.3365L160.776 63.3593Z" fill="#F9B384"/>
<path d="M151.739 95.9802L153.583 113.667" stroke="#1F242E" stroke-width="0.50352" stroke-miterlimit="10"/>
<g opacity="0.3">
<path d="M166.104 86.9575C166.943 87.8365 168.088 88.3409 169.264 88.5531C170.446 88.7562 171.674 88.719 172.845 88.4379C174.018 88.1726 175.144 87.6884 176.124 86.9912C177.111 86.3035 177.938 85.3883 178.536 84.3198L178.753 84.4226C178.52 85.0119 178.19 85.5632 177.804 86.0725C177.408 86.5742 176.948 87.0272 176.443 87.423C175.424 88.204 174.228 88.7438 172.979 89.0317C171.728 89.2978 170.416 89.3521 169.16 89.0616C168.534 88.9152 167.922 88.6936 167.363 88.3716C166.809 88.0436 166.301 87.627 165.919 87.1113L166.104 86.9575Z" fill="#1F242E"/>
</g>
<path d="M193.737 97.6877V89.0833" stroke="#1F242E" stroke-width="0.50352" stroke-miterlimit="10"/>
<path opacity="0.4" d="M148.338 127.791C147.113 129.848 145.605 131.286 143.749 131.593C142.307 131.831 140.717 131.7 139.066 131.31C139.959 126.984 145.798 125.754 148.338 127.791Z" fill="#FC8879"/>
<path d="M159.257 64.7602C158.983 64.5854 158.691 64.4493 158.394 64.3379C158.096 64.2301 157.791 64.146 157.497 64.1217C157.204 64.095 156.928 64.1265 156.738 64.2651C156.541 64.3982 156.411 64.6676 156.315 64.9885L156.075 64.982C156.012 64.6301 156.058 64.182 156.385 63.8572C156.456 63.7685 156.56 63.7245 156.652 63.6609C156.749 63.6125 156.851 63.5793 156.953 63.5455C157.158 63.5067 157.36 63.4921 157.555 63.5128C157.942 63.5546 158.298 63.6802 158.617 63.8634C158.934 64.0459 159.23 64.2801 159.432 64.5959L159.257 64.7602Z" fill="#E28B6D"/>
<path d="M171.596 61.1953C171.768 61.6908 171.929 62.1824 172.173 62.5892C172.299 62.7884 172.439 62.9695 172.613 63.1028C172.778 63.2369 172.999 63.3493 173.239 63.4907C173.472 63.6301 173.752 63.8326 173.904 64.1661C174.054 64.5047 174 64.8807 173.858 65.1595C173.72 65.4499 173.48 65.6689 173.24 65.8169C172.991 65.9615 172.742 66.0652 172.489 66.1447L172.38 65.9304C172.811 65.6349 173.232 65.3306 173.364 64.9428C173.511 64.5287 173.352 64.2639 172.919 64.0126C172.716 63.8802 172.46 63.7613 172.231 63.5496C172.002 63.3469 171.831 63.0949 171.71 62.8354C171.466 62.3123 171.398 61.7688 171.361 61.2433L171.596 61.1953Z" fill="#E28B6D"/>
<path d="M167.88 61.7559C168.082 62.3248 167.928 62.8981 167.537 63.0365C167.146 63.1749 166.665 62.8258 166.464 62.257C166.263 61.688 166.417 61.1147 166.808 60.9763C167.199 60.8379 167.679 61.1869 167.88 61.7559Z" fill="#1F242E"/>
<path d="M175.426 59.4338C175.628 60.0027 175.474 60.5761 175.083 60.7145C174.692 60.8528 174.211 60.5037 174.01 59.9349C173.809 59.366 173.963 58.7927 174.354 58.6543C174.745 58.5159 175.225 58.865 175.426 59.4338Z" fill="#1F242E"/>
<path d="M170.317 67.8716C171.149 67.9624 173.545 67.9013 174.982 66.8013C174.982 66.8013 174.078 69.1532 172.702 69.1151C171.326 69.0772 170.317 67.8716 170.317 67.8716Z" fill="white"/>
<path d="M164.336 61.0596C164.418 60.5927 164.618 60.1568 164.91 59.7611C165.206 59.3718 165.62 59.0324 166.116 58.8421C166.609 58.6448 167.166 58.6302 167.65 58.7565C168.137 58.8826 168.565 59.1275 168.897 59.4734L168.794 59.6905C168.331 59.6669 167.92 59.6241 167.536 59.6349C167.153 59.6468 166.806 59.694 166.479 59.8162C166.152 59.9356 165.837 60.1205 165.523 60.359C165.203 60.5926 164.9 60.8836 164.546 61.1774L164.336 61.0596Z" fill="#1F242E"/>
<path d="M172.327 58.3266C172.401 57.9589 172.567 57.6132 172.811 57.3083C173.053 57.0035 173.386 56.7436 173.777 56.5955C174.166 56.4439 174.601 56.4216 174.987 56.5136C175.376 56.6 175.723 56.7839 175.996 57.0478L175.899 57.2676C175.536 57.2547 175.213 57.2311 174.91 57.2433C174.608 57.2606 174.333 57.3014 174.072 57.3974C173.81 57.4907 173.559 57.6322 173.308 57.8139C173.056 57.9962 172.813 58.2177 172.535 58.4473L172.327 58.3266Z" fill="#1F242E"/>
<path opacity="0.4" d="M178.433 66.2937C177.04 65.9905 175.999 64.7531 175.999 63.2698C175.999 61.8972 176.889 60.7377 178.122 60.332C178.425 62.2414 178.597 64.3311 178.433 66.2937Z" fill="#FC8879"/>
<path opacity="0.4" d="M165.73 70.5677C167.441 70.5677 168.828 69.1806 168.828 67.4694C168.828 65.7583 167.441 64.3711 165.73 64.3711C164.019 64.3711 162.632 65.7583 162.632 67.4694C162.632 69.1806 164.019 70.5677 165.73 70.5677Z" fill="#FC8879"/>
<path opacity="0.2" d="M193.942 135.998L156.246 136.203C156.246 136.203 155.976 133.822 155.57 130.22C171.543 132.856 188.615 123.979 193.942 110.656C193.97 124.55 193.942 135.998 193.942 135.998Z" fill="#1F242E"/>
<path d="M123.672 123.091L117.799 118.857C113.565 118.038 108.12 114.999 107.67 112.706C107.525 111.966 108.462 111.883 108.462 111.883C108.462 111.883 105.665 110.772 105.35 110.123C105.036 109.474 106.156 108.802 106.156 108.802C105.636 108.651 104.67 107.88 105.131 107.163C105.641 106.369 107.334 107.06 107.334 107.06C106.258 105.678 107.385 105.421 107.385 105.421C111.401 105.555 113.268 106.113 117.352 107.415C117.54 107.45 117.66 107.213 117.536 107.053C113.746 102.174 116.021 101.379 116.021 101.379C119.822 105.103 122.52 108.556 123.361 111.55L128.589 114.282L123.672 123.091Z" fill="#F9B384"/>
<path d="M111.67 113.417C111.582 112.949 111.572 112.482 111.598 112.013C111.624 111.545 111.701 111.079 111.817 110.621C111.929 110.162 112.107 109.718 112.326 109.297C112.545 108.875 112.839 108.49 113.18 108.164L113.37 108.312C113.17 108.721 112.972 109.111 112.816 109.523C112.663 109.935 112.517 110.349 112.408 110.777C112.179 111.628 112.033 112.511 111.91 113.405L111.67 113.417Z" fill="#E28B6D"/>
<path d="M117.206 108.774C117.164 109.49 117.234 110.168 117.441 110.814C117.646 111.462 117.97 112.053 118.401 112.629L118.245 112.811C117.566 112.435 117.083 111.741 116.856 110.995C116.631 110.249 116.639 109.41 116.974 108.712L117.206 108.774Z" fill="#E28B6D"/>
<path d="M252.874 77.9505L241.746 79.7288L240.672 75.2299L238.947 68.0267L238.808 67.4367L249.596 63.5442L252.874 77.9505Z" fill="#F9B384"/>
<path d="M247.105 66.5967C247.105 66.5967 246 68.995 240.071 72.8301L238.947 68.0267L247.105 66.5967Z" fill="#E28B6D"/>
<path d="M219.21 102.399C219.21 102.399 225.662 106.872 237.101 102.536L228.052 98.1997L219.21 102.399Z" fill="#1F242E"/>
<path d="M230.605 58.1492C228.961 61.6902 227.803 64.6776 228.872 65.4209C230.249 66.3786 233.379 65.0111 233.379 65.0111L230.605 58.1492Z" fill="#E28B6D"/>
<path d="M231.484 46.4195C232.951 43.6543 235.372 42.0526 238.568 41.3796C240.699 40.9311 242.913 40.9952 245.031 41.4986C248.712 42.3732 251.129 44.1545 252.534 47.0853L241.744 51.8656L231.484 46.4195Z" fill="#6F3428"/>
<path d="M228.872 53.5382C229.077 53.8455 232.217 70.2347 235.325 70.952C237.988 71.5666 248.846 69.0058 250.793 63.2695L241.574 48.9287L229.384 51.0798L228.872 53.5382Z" fill="#F9B384"/>
<path d="M242.7 61.2212C242.7 61.2212 247.822 66.2746 251.441 64.5674C255.061 62.8602 258.902 53.1033 251.458 45.3184L231.484 46.4195C229.027 44.9567 227.018 44.9746 225.48 46.5455C224.614 47.431 224.164 48.6396 224.091 49.8765C223.884 53.3678 226.102 54.7799 229.384 55.2801C234.557 48.6731 239.422 59.992 239.422 59.992L242.7 61.2212Z" fill="#6F3428"/>
<path d="M247.072 136.819H217.162L234.096 102.535L242.618 73.55C247.761 72.0053 253.374 73.3329 256.222 75.5618C265.646 83.0764 257.611 109.129 247.072 136.819Z" fill="#708CD5"/>
<path opacity="0.3" d="M240.174 92.0876L235.671 126.337C235.158 130.455 232.202 133.516 228.704 133.552L216.655 133.676L238.057 99.3263L240.174 92.0876Z" fill="#1F3C88"/>
<path d="M236.862 102.605L230.613 123.706C230.461 124.267 230.199 124.882 229.871 125.513C228.97 127.234 227.757 128.725 226.327 129.946C223.672 132.216 220.255 133.552 216.653 133.675C216.207 133.691 215.785 133.699 215.404 133.704H215.375L196.4 133.814L196.384 133.642L195.581 125.48L218.014 121.555L223.34 102.502L228.052 98.2L236.862 102.605Z" fill="#F9B384"/>
<path d="M195.581 125.481L190.485 124.467C189.055 124.182 187.576 124.608 186.516 125.609L178.013 133.642H200.395L195.581 125.481Z" fill="#F9B384"/>
<path d="M242.618 73.55L237.101 102.536L219.21 102.4L226.512 83.8959C227.18 82.2119 228.298 80.7368 229.773 79.692C232.977 77.4179 237.833 74.9841 242.618 73.55Z" fill="#708CD5"/>
<path opacity="0.3" d="M241.983 63.5258C244.271 63.816 246.183 59.07 243.247 56.3726L241.65 61.3235L241.983 63.5258Z" fill="#6F3428"/>
<path d="M238.398 60.7602C238.757 57.5335 239.956 55.8072 241.42 55.536C244.186 55.0239 245.415 60.8114 241.983 63.5259L238.398 60.7602Z" fill="#F9B384"/>
<path d="M237.101 102.536L242.017 85.6003" stroke="#1F3C88" stroke-width="0.50352" stroke-miterlimit="10"/>
<path opacity="0.4" d="M226.327 129.946C223.672 132.216 220.255 133.552 216.653 133.675C216.207 133.691 215.785 133.699 215.404 133.703H215.375C215.521 130.125 219.735 127.398 223.443 128.348C224.487 128.614 225.45 129.192 226.327 129.946Z" fill="#FC8879"/>
<path d="M240.399 60.3639C240.223 59.9668 240.195 59.5259 240.24 59.1024C240.287 58.677 240.415 58.2537 240.658 57.8705C240.781 57.68 240.938 57.5005 241.137 57.3589C241.335 57.2181 241.581 57.1215 241.831 57.1078C242.081 57.0902 242.32 57.1559 242.522 57.2543C242.723 57.3573 242.895 57.4891 243.041 57.6422L242.901 57.8378C242.72 57.7653 242.547 57.6943 242.374 57.6583C242.204 57.6176 242.039 57.615 241.893 57.6456C241.602 57.7074 241.362 57.9177 241.172 58.205C240.983 58.4919 240.851 58.838 240.757 59.194C240.667 59.5524 240.615 59.9253 240.631 60.3028L240.399 60.3639Z" fill="#E28B6D"/>
<path d="M257.86 133.369H0V140H257.86V133.369Z" fill="#D3DFFF"/>
<path d="M0 133.676H257.86" stroke="#1F242E" stroke-width="0.755279" stroke-miterlimit="10"/>
</svg>
