<svg width="147" height="120" viewBox="0 0 147 120" fill="none" xmlns="http://www.w3.org/2000/svg">
<path d="M141.555 101.176L119.204 108.044L124.412 96.4186L131.416 94.2323L141.555 101.176Z" fill="#FF7F00"/>
<path d="M0 72.3877L17.3746 58.3864L18.0931 75.0774L0 72.3877Z" fill="#FF7F00"/>
<path d="M138.715 0.000732422L127.379 84.6549L125.053 101.989L123.984 109.973L18.93 120L18.4932 115.882L15.3384 86.1787L8.08441 17.8511L138.715 0.000732422Z" fill="#C42026"/>
<mask id="mask0_991_687" style="mask-type:luminance" maskUnits="userSpaceOnUse" x="8" y="0" width="131" height="120">
<path d="M8.25488 17.8536L19.0786 119.998L123.852 109.971L138.546 0L8.25488 17.8536Z" fill="white"/>
</mask>
<g mask="url(#mask0_991_687)">
<path opacity="0.12" d="M15.7613 -26.8109V134.027" stroke="white" stroke-width="9.7423" stroke-miterlimit="10"/>
<path opacity="0.12" d="M42.2619 -26.8109V134.027" stroke="white" stroke-width="9.7423" stroke-miterlimit="10"/>
<path opacity="0.12" d="M68.7635 -26.8109V134.027" stroke="white" stroke-width="9.7423" stroke-miterlimit="10"/>
<path opacity="0.12" d="M95.265 -26.8109V134.027" stroke="white" stroke-width="9.7423" stroke-miterlimit="10"/>
<path opacity="0.12" d="M121.766 -26.8109V134.027" stroke="white" stroke-width="9.7423" stroke-miterlimit="10"/>
</g>
<path opacity="0.5" d="M127.379 84.6549L125.053 101.989L124.412 102.942L18.0931 112.111L15.3384 86.1788L127.379 84.6549Z" fill="#A30006"/>
<path d="M4.61866 101.105L141.555 101.176L146.023 80.5501L0 71.45L4.61866 101.105Z" fill="#FFCA00"/>
<path d="M24.0899 89.6151L24.2577 83.9677L25.3388 83.9999L27.6245 88.0567L27.0517 88.0397L29.5339 84.1245L30.6069 84.1564L30.4553 89.8042L29.229 89.7678L29.3329 86L29.5588 86.0067L27.5767 89.1212L26.9878 89.1037L25.1538 85.8758L25.4281 85.8839L25.3162 89.6515L24.0899 89.6151ZM34.3013 90.0154C33.4999 89.9916 32.8799 89.7497 32.4414 89.2899C32.0029 88.8301 31.7959 88.186 31.8205 87.3578L31.9145 84.1952L33.2215 84.2341L33.1289 87.3482C33.113 87.886 33.2117 88.2765 33.4252 88.5197C33.6387 88.7629 33.9444 88.8905 34.3424 88.9023C34.7404 88.9141 35.0532 88.805 35.2807 88.5749C35.5083 88.3448 35.6301 87.9608 35.646 87.423L35.7386 84.3089L37.0294 84.3472L36.9354 87.5097C36.9108 88.338 36.666 88.9686 36.2009 89.4016C35.7359 89.8346 35.1027 90.0392 34.3013 90.0154ZM38.1531 90.0329L38.3209 84.3856L40.8864 84.4618C41.4995 84.48 42.0365 84.6144 42.4974 84.865C42.9585 85.1101 43.3146 85.4464 43.5656 85.8738C43.8167 86.3011 43.9337 86.8025 43.9166 87.378C43.8997 87.9481 43.7531 88.4417 43.4769 88.8588C43.2009 89.2705 42.8255 89.5877 42.3505 89.8104C41.8757 90.0278 41.3317 90.1274 40.7186 90.1092L38.1531 90.0329ZM39.4919 88.9988L40.6859 89.0342C41.0624 89.0454 41.3899 88.9852 41.6684 88.8535C41.9523 88.7166 42.1736 88.5186 42.332 88.2595C42.4958 88.0006 42.583 87.6937 42.5935 87.3387C42.6042 86.9783 42.5354 86.6668 42.3871 86.404C42.2443 86.136 42.0352 85.9279 41.7597 85.7797C41.4897 85.6264 41.1665 85.5441 40.79 85.5329L39.596 85.4974L39.4919 88.9988ZM43.9973 90.2066L46.6822 84.634L47.973 84.6724L50.3304 90.3947L48.9589 90.354L47.0417 85.3068L47.5581 85.3222L45.3366 90.2464L43.9973 90.2066ZM45.2918 89.0338L45.6682 88.0518L48.5726 88.1381L48.8981 89.141L45.2918 89.0338ZM54.9566 84.8799L56.2635 84.9187L56.0957 90.566L54.7888 90.5272L54.9566 84.8799ZM52.2233 90.451L50.9163 90.4121L51.0841 84.7648L52.3911 84.8036L52.2233 90.451ZM54.9544 88.2147L52.1953 88.1327L52.2281 87.0274L54.9872 87.1094L54.9544 88.2147ZM61.4886 90.8232C61.0745 90.8109 60.7081 90.7327 60.3894 90.5886C60.0707 90.4446 59.8206 90.2541 59.6393 90.0173C59.4579 89.7804 59.3717 89.5114 59.3806 89.2102C59.3889 88.9305 59.4582 88.6822 59.5885 88.4654C59.7189 88.2432 59.9214 88.0393 60.1961 87.8536C60.4709 87.6626 60.8182 87.4791 61.2379 87.3032C61.5433 87.1723 61.7836 87.0556 61.9589 86.9532C62.1342 86.8507 62.2583 86.7521 62.3311 86.6574C62.404 86.5573 62.442 86.4561 62.4451 86.354C62.4492 86.2141 62.4042 86.0997 62.3099 86.0108C62.221 85.922 62.0852 85.8749 61.9023 85.8695C61.7087 85.8637 61.5566 85.9077 61.4462 86.0013C61.3358 86.0949 61.2783 86.217 61.2738 86.3676C61.2714 86.4483 61.2852 86.5294 61.315 86.6111C61.3451 86.6873 61.4043 86.7779 61.4927 86.8828C61.5812 86.9823 61.7066 87.1126 61.8687 87.2735L64.7636 90.1211L64.0542 90.8994L60.8612 87.7523C60.6781 87.5746 60.5323 87.4087 60.4238 87.2548C60.3154 87.1008 60.2364 86.9505 60.1869 86.8036C60.1428 86.657 60.1231 86.5057 60.1277 86.3497C60.1359 86.0754 60.2157 85.8355 60.3671 85.6301C60.5186 85.4246 60.7278 85.2694 60.9947 85.1642C61.2617 85.0538 61.5727 85.0038 61.9277 85.0143C62.2558 85.0241 62.5366 85.0862 62.77 85.2008C63.009 85.3102 63.1929 85.4637 63.3216 85.6613C63.4556 85.8591 63.5187 86.0925 63.5107 86.3614C63.5037 86.598 63.438 86.8141 63.3138 87.0096C63.1897 87.1997 62.9987 87.3771 62.7408 87.5417C62.4883 87.7064 62.1577 87.8715 61.7491 88.037C61.4711 88.1526 61.2497 88.2671 61.0848 88.3807C60.9255 88.489 60.8091 88.6013 60.7357 88.7175C60.6622 88.8338 60.6234 88.9645 60.619 89.1097C60.615 89.2442 60.6518 89.3664 60.7293 89.4763C60.8121 89.5865 60.928 89.6734 61.0768 89.737C61.2256 89.8006 61.4023 89.8355 61.6066 89.8416C61.9347 89.8513 62.2381 89.785 62.5169 89.6425C62.7959 89.4947 63.0339 89.273 63.2311 88.9774C63.4338 88.6766 63.582 88.3095 63.6756 87.8763L64.6747 88.2209C64.5455 88.7661 64.3297 89.2361 64.0272 89.6309C63.7248 90.0256 63.3579 90.3269 62.9264 90.5348C62.495 90.7427 62.0157 90.8388 61.4886 90.8232ZM69.0407 90.9507L69.1769 86.3682L67.3697 86.3146L67.4014 85.2496L72.3226 85.3958L72.291 86.4608L70.4838 86.4071L70.3477 90.9895L69.0407 90.9507ZM72.858 91.0641L73.0258 85.4167L74.3328 85.4556L74.165 91.1029L72.858 91.0641ZM75.5052 91.1427L75.673 85.4954L78.2385 85.5716C78.8517 85.5898 79.3887 85.7242 79.8496 85.9748C80.3106 86.22 80.6667 86.5562 80.9178 86.9836C81.1688 87.4109 81.2858 87.9123 81.2687 88.4878C81.2518 89.0579 81.1052 89.5515 80.8291 89.9686C80.5531 90.3803 80.1776 90.6975 79.7026 90.9202C79.2278 91.1376 78.6839 91.2372 78.0707 91.219L75.5052 91.1427ZM76.8441 90.1086L78.0381 90.144C78.4146 90.1552 78.742 90.095 79.0205 89.9633C79.3045 89.8264 79.5257 89.6284 79.6841 89.3693C79.8479 89.1104 79.9351 88.8035 79.9456 88.4485C79.9564 88.0881 79.8876 87.7766 79.7393 87.5138C79.5965 87.2458 79.3873 87.0377 79.1118 86.8895C78.8418 86.7362 78.5186 86.6539 78.1421 86.6427L76.9481 86.6072L76.8441 90.1086ZM81.3495 91.3164L84.0344 85.7438L85.3252 85.7822L87.6825 91.5045L86.3111 91.4638L84.3939 86.4166L84.9102 86.432L82.6887 91.3562L81.3495 91.3164ZM82.644 90.1436L83.0204 89.1616L85.9247 89.2479L86.2502 90.2508L82.644 90.1436ZM89.4766 90.2659L89.4488 88.7551L92.2361 85.9875L93.6883 86.0307L91.1739 88.5802L90.4249 89.3332L89.4766 90.2659ZM88.2685 91.5219L88.4363 85.8746L89.7351 85.9132L89.5673 91.5605L88.2685 91.5219ZM92.1328 91.6368L90.1971 89.1165L91.0799 88.2141L93.6576 91.6821L92.1328 91.6368ZM96.5252 91.7673L96.693 86.1199L99.1374 86.1926C99.643 86.2076 100.076 86.3039 100.437 86.4815C100.798 86.6537 101.073 86.8961 101.263 87.2085C101.453 87.521 101.542 87.8897 101.529 88.3146C101.517 88.7341 101.406 89.0942 101.198 89.3949C100.99 89.6902 100.701 89.913 100.331 90.0635C99.96 90.214 99.522 90.2817 99.0164 90.2667L97.298 90.2157L97.8959 89.6601L97.8321 91.8061L96.5252 91.7673ZM100.115 91.8739L98.7643 89.7828L100.16 89.8243L101.527 91.9159L100.115 91.8739ZM97.8916 89.8053L97.3289 89.1749L98.9747 89.2238C99.3781 89.2358 99.6818 89.1587 99.886 88.9925C100.09 88.8209 100.197 88.5819 100.206 88.2753C100.215 87.9634 100.123 87.7184 99.9291 87.5403C99.7352 87.3623 99.4366 87.2673 99.0332 87.2553L97.3874 87.2064L97.9867 86.6025L97.8916 89.8053ZM102.458 91.9435L102.625 86.2962L103.932 86.335L103.765 91.9824L102.458 91.9435ZM105.105 92.0222L105.273 86.3749L108.032 86.4568C108.742 86.4779 109.27 86.6282 109.617 86.9077C109.97 87.1873 110.139 87.5476 110.126 87.9887C110.117 88.2845 110.037 88.5405 109.885 88.7567C109.734 88.9675 109.53 89.1283 109.273 89.2391C109.017 89.35 108.725 89.4005 108.397 89.3907L108.56 89.0645C108.915 89.0751 109.228 89.1436 109.499 89.2701C109.77 89.3911 109.977 89.5669 110.121 89.7973C110.27 90.0278 110.34 90.3071 110.33 90.6352C110.316 91.1192 110.114 91.4927 109.723 91.7557C109.334 92.0133 108.768 92.131 108.025 92.109L105.105 92.0222ZM106.433 91.0765L107.958 91.1218C108.297 91.1319 108.554 91.0857 108.729 90.9833C108.91 90.8756 109.004 90.7007 109.011 90.4587C109.018 90.2221 108.935 90.0446 108.76 89.9264C108.592 89.803 108.338 89.7362 107.999 89.7261L106.378 89.678L106.406 88.726L107.802 88.7674C108.119 88.7769 108.363 88.7303 108.533 88.6277C108.708 88.5198 108.799 88.353 108.806 88.1271C108.812 87.9066 108.731 87.74 108.562 87.6273C108.399 87.5094 108.159 87.4457 107.841 87.4363L106.542 87.3977L106.433 91.0765ZM112.576 88.8689L115.295 88.9497L115.265 89.9662L112.546 89.8855L112.576 88.8689ZM112.604 91.1953L115.678 91.2866L115.646 92.3354L111.274 92.2055L111.442 86.5581L115.709 86.685L115.678 87.7337L112.709 87.6455L112.604 91.1953ZM117.856 92.4011L117.992 87.8186L116.185 87.765L116.217 86.7L121.138 86.8462L121.106 87.9112L119.299 87.8575L119.163 92.4399L117.856 92.4011Z" fill="#1A1A1A"/>
<path d="M44.7356 45.33C43.1516 45.33 41.784 44.9853 40.6326 44.296C39.4886 43.6067 38.605 42.6423 37.9816 41.403C37.3656 40.1637 37.0576 38.7227 37.0576 37.08C37.0576 35.4373 37.3656 33.9963 37.9816 32.757C38.605 31.5177 39.4886 30.5533 40.6326 29.864C41.784 29.1747 43.1516 28.83 44.7356 28.83C46.5543 28.83 48.0796 29.281 49.3116 30.183C50.551 31.085 51.4236 32.306 51.9296 33.846L48.9156 34.682C48.6223 33.7213 48.1273 32.977 47.4306 32.449C46.734 31.9137 45.8356 31.646 44.7356 31.646C43.731 31.646 42.8913 31.8697 42.2166 32.317C41.5493 32.7643 41.047 33.395 40.7096 34.209C40.3723 35.023 40.2036 35.98 40.2036 37.08C40.2036 38.18 40.3723 39.137 40.7096 39.951C41.047 40.765 41.5493 41.3957 42.2166 41.843C42.8913 42.2903 43.731 42.514 44.7356 42.514C45.8356 42.514 46.734 42.2463 47.4306 41.711C48.1273 41.1757 48.6223 40.4313 48.9156 39.478L51.9296 40.314C51.4236 41.854 50.551 43.075 49.3116 43.977C48.0796 44.879 46.5543 45.33 44.7356 45.33ZM54.5717 45V29.16H57.5637V42.206H64.3837V45H54.5717ZM66.2541 45V29.16H76.5941V31.954H69.2461V35.342H75.2741V38.136H69.2461V42.206H76.5941V45H66.2541ZM78.1306 45L82.9706 29.16H87.4366L92.2766 45H89.1966L84.8846 31.03H85.4566L81.2106 45H78.1306ZM81.0346 41.7V38.906H89.3946V41.7H81.0346ZM94.2482 45V29.16H97.2842L104.17 39.72V29.16H107.206V45H104.17L97.2842 34.44V45H94.2482Z" fill="white"/>
<path d="M35.1201 62.3776V50.8576H39.9841C40.0961 50.8576 40.2455 50.8629 40.4321 50.8736C40.6241 50.8789 40.7948 50.8949 40.9441 50.9216C41.6321 51.0282 42.1948 51.2549 42.6321 51.6016C43.0748 51.9482 43.4001 52.3856 43.6081 52.9136C43.8161 53.4362 43.9201 54.0202 43.9201 54.6656C43.9201 55.3109 43.8135 55.8976 43.6001 56.4256C43.3921 56.9482 43.0668 57.3829 42.6241 57.7296C42.1868 58.0762 41.6268 58.3029 40.9441 58.4096C40.7948 58.4309 40.6241 58.4469 40.4321 58.4576C40.2401 58.4682 40.0908 58.4736 39.9841 58.4736H37.2961V62.3776H35.1201ZM37.2961 56.4416H39.8881C40.0001 56.4416 40.1228 56.4362 40.2561 56.4256C40.3895 56.4149 40.5121 56.3936 40.6241 56.3616C40.9175 56.2816 41.1441 56.1482 41.3041 55.9616C41.4641 55.7696 41.5735 55.5589 41.6321 55.3296C41.6961 55.0949 41.7281 54.8736 41.7281 54.6656C41.7281 54.4576 41.6961 54.2389 41.6321 54.0096C41.5735 53.7749 41.4641 53.5642 41.3041 53.3776C41.1441 53.1856 40.9175 53.0496 40.6241 52.9696C40.5121 52.9376 40.3895 52.9162 40.2561 52.9056C40.1228 52.8949 40.0001 52.8896 39.8881 52.8896H37.2961V56.4416ZM45.5264 62.3776V50.8576H50.3904C50.5024 50.8576 50.6517 50.8629 50.8384 50.8736C51.0304 50.8789 51.201 50.8949 51.3504 50.9216C52.0384 51.0282 52.601 51.2549 53.0384 51.6016C53.481 51.9482 53.8064 52.3856 54.0144 52.9136C54.2224 53.4362 54.3264 54.0202 54.3264 54.6656C54.3264 55.6309 54.0864 56.4576 53.6064 57.1456C53.1264 57.8282 52.3744 58.2496 51.3504 58.4096L50.3904 58.4736H47.7024V62.3776H45.5264ZM52.0224 62.3776L49.7504 57.6896L51.9904 57.2576L54.4864 62.3776H52.0224ZM47.7024 56.4416H50.2944C50.4064 56.4416 50.529 56.4362 50.6624 56.4256C50.7957 56.4149 50.9184 56.3936 51.0304 56.3616C51.3237 56.2816 51.5504 56.1482 51.7104 55.9616C51.8704 55.7696 51.9797 55.5589 52.0384 55.3296C52.1024 55.0949 52.1344 54.8736 52.1344 54.6656C52.1344 54.4576 52.1024 54.2389 52.0384 54.0096C51.9797 53.7749 51.8704 53.5642 51.7104 53.3776C51.5504 53.1856 51.3237 53.0496 51.0304 52.9696C50.9184 52.9376 50.7957 52.9162 50.6624 52.9056C50.529 52.8949 50.4064 52.8896 50.2944 52.8896H47.7024V56.4416ZM61.1891 62.6176C60.0371 62.6176 59.0425 62.3669 58.2051 61.8656C57.3731 61.3642 56.7305 60.6629 56.2771 59.7616C55.8291 58.8602 55.6051 57.8122 55.6051 56.6176C55.6051 55.4229 55.8291 54.3749 56.2771 53.4736C56.7305 52.5722 57.3731 51.8709 58.2051 51.3696C59.0425 50.8682 60.0371 50.6176 61.1891 50.6176C62.3411 50.6176 63.3331 50.8682 64.1651 51.3696C65.0025 51.8709 65.6451 52.5722 66.0931 53.4736C66.5465 54.3749 66.7731 55.4229 66.7731 56.6176C66.7731 57.8122 66.5465 58.8602 66.0931 59.7616C65.6451 60.6629 65.0025 61.3642 64.1651 61.8656C63.3331 62.3669 62.3411 62.6176 61.1891 62.6176ZM61.1891 60.5696C61.9198 60.5802 62.5278 60.4229 63.0131 60.0976C63.4985 59.7722 63.8611 59.3109 64.1011 58.7136C64.3465 58.1162 64.4691 57.4176 64.4691 56.6176C64.4691 55.8176 64.3465 55.1242 64.1011 54.5376C63.8611 53.9509 63.4985 53.4949 63.0131 53.1696C62.5278 52.8442 61.9198 52.6762 61.1891 52.6656C60.4585 52.6549 59.8505 52.8122 59.3651 53.1376C58.8798 53.4629 58.5145 53.9242 58.2691 54.5216C58.0291 55.1189 57.9091 55.8176 57.9091 56.6176C57.9091 57.4176 58.0291 58.1109 58.2691 58.6976C58.5145 59.2842 58.8798 59.7402 59.3651 60.0656C59.8505 60.3909 60.4585 60.5589 61.1891 60.5696ZM73.3141 62.6176C72.1621 62.6176 71.1675 62.3669 70.3301 61.8656C69.4981 61.3642 68.8555 60.6629 68.4021 59.7616C67.9541 58.8602 67.7301 57.8122 67.7301 56.6176C67.7301 55.4229 67.9541 54.3749 68.4021 53.4736C68.8555 52.5722 69.4981 51.8709 70.3301 51.3696C71.1675 50.8682 72.1621 50.6176 73.3141 50.6176C74.6368 50.6176 75.7461 50.9456 76.6421 51.6016C77.5435 52.2576 78.1781 53.1456 78.5461 54.2656L76.3541 54.8736C76.1408 54.1749 75.7808 53.6336 75.2741 53.2496C74.7675 52.8602 74.1141 52.6656 73.3141 52.6656C72.5835 52.6656 71.9728 52.8282 71.4821 53.1536C70.9968 53.4789 70.6315 53.9376 70.3861 54.5296C70.1408 55.1216 70.0181 55.8176 70.0181 56.6176C70.0181 57.4176 70.1408 58.1136 70.3861 58.7056C70.6315 59.2976 70.9968 59.7562 71.4821 60.0816C71.9728 60.4069 72.5835 60.5696 73.3141 60.5696C74.1141 60.5696 74.7675 60.3749 75.2741 59.9856C75.7808 59.5962 76.1408 59.0549 76.3541 58.3616L78.5461 58.9696C78.1781 60.0896 77.5435 60.9776 76.6421 61.6336C75.7461 62.2896 74.6368 62.6176 73.3141 62.6176ZM80.3076 62.3776V50.8576H87.8276V52.8896H82.4836V55.3536H86.8676V57.3856H82.4836V60.3456H87.8276V62.3776H80.3076ZM94.0971 62.6176C93.2438 62.6176 92.4731 62.4682 91.7851 62.1696C91.1025 61.8656 90.5398 61.4336 90.0971 60.8736C89.6598 60.3082 89.3825 59.6362 89.2651 58.8576L91.5371 58.5216C91.6971 59.1829 92.0278 59.6922 92.5291 60.0496C93.0305 60.4069 93.6011 60.5856 94.2411 60.5856C94.5985 60.5856 94.9451 60.5296 95.2811 60.4176C95.6171 60.3056 95.8918 60.1402 96.1051 59.9216C96.3238 59.7029 96.4331 59.4336 96.4331 59.1136C96.4331 58.9962 96.4145 58.8842 96.3771 58.7776C96.3451 58.6656 96.2891 58.5616 96.2091 58.4656C96.1291 58.3696 96.0145 58.2789 95.8651 58.1936C95.7211 58.1082 95.5371 58.0309 95.3131 57.9616L92.3211 57.0816C92.0971 57.0176 91.8358 56.9269 91.5371 56.8096C91.2438 56.6922 90.9585 56.5242 90.6811 56.3056C90.4038 56.0869 90.1718 55.7989 89.9851 55.4416C89.8038 55.0789 89.7131 54.6229 89.7131 54.0736C89.7131 53.3002 89.9078 52.6576 90.2971 52.1456C90.6865 51.6336 91.2065 51.2522 91.8571 51.0016C92.5078 50.7509 93.2278 50.6282 94.0171 50.6336C94.8118 50.6442 95.5211 50.7802 96.1451 51.0416C96.7691 51.3029 97.2918 51.6842 97.7131 52.1856C98.1345 52.6816 98.4385 53.2896 98.6251 54.0096L96.2731 54.4096C96.1878 54.0362 96.0305 53.7216 95.8011 53.4656C95.5718 53.2096 95.2971 53.0149 94.9771 52.8816C94.6625 52.7482 94.3318 52.6762 93.9851 52.6656C93.6438 52.6549 93.3211 52.7029 93.0171 52.8096C92.7185 52.9109 92.4731 53.0602 92.2811 53.2576C92.0945 53.4549 92.0011 53.6896 92.0011 53.9616C92.0011 54.2122 92.0785 54.4176 92.2331 54.5776C92.3878 54.7322 92.5825 54.8576 92.8171 54.9536C93.0518 55.0496 93.2918 55.1296 93.5371 55.1936L95.5371 55.7376C95.8358 55.8176 96.1665 55.9242 96.5291 56.0576C96.8918 56.1856 97.2385 56.3669 97.5691 56.6016C97.9051 56.8309 98.1798 57.1349 98.3931 57.5136C98.6118 57.8922 98.7211 58.3722 98.7211 58.9536C98.7211 59.5722 98.5905 60.1136 98.3291 60.5776C98.0731 61.0362 97.7265 61.4176 97.2891 61.7216C96.8518 62.0202 96.3558 62.2442 95.8011 62.3936C95.2518 62.5429 94.6838 62.6176 94.0971 62.6176ZM105.066 62.6176C104.213 62.6176 103.442 62.4682 102.754 62.1696C102.071 61.8656 101.509 61.4336 101.066 60.8736C100.629 60.3082 100.351 59.6362 100.234 58.8576L102.506 58.5216C102.666 59.1829 102.997 59.6922 103.498 60.0496C103.999 60.4069 104.57 60.5856 105.21 60.5856C105.567 60.5856 105.914 60.5296 106.25 60.4176C106.586 60.3056 106.861 60.1402 107.074 59.9216C107.293 59.7029 107.402 59.4336 107.402 59.1136C107.402 58.9962 107.383 58.8842 107.346 58.7776C107.314 58.6656 107.258 58.5616 107.178 58.4656C107.098 58.3696 106.983 58.2789 106.834 58.1936C106.69 58.1082 106.506 58.0309 106.282 57.9616L103.29 57.0816C103.066 57.0176 102.805 56.9269 102.506 56.8096C102.213 56.6922 101.927 56.5242 101.65 56.3056C101.373 56.0869 101.141 55.7989 100.954 55.4416C100.773 55.0789 100.682 54.6229 100.682 54.0736C100.682 53.3002 100.877 52.6576 101.266 52.1456C101.655 51.6336 102.175 51.2522 102.826 51.0016C103.477 50.7509 104.197 50.6282 104.986 50.6336C105.781 50.6442 106.49 50.7802 107.114 51.0416C107.738 51.3029 108.261 51.6842 108.682 52.1856C109.103 52.6816 109.407 53.2896 109.594 54.0096L107.242 54.4096C107.157 54.0362 106.999 53.7216 106.77 53.4656C106.541 53.2096 106.266 53.0149 105.946 52.8816C105.631 52.7482 105.301 52.6762 104.954 52.6656C104.613 52.6549 104.29 52.7029 103.986 52.8096C103.687 52.9109 103.442 53.0602 103.25 53.2576C103.063 53.4549 102.97 53.6896 102.97 53.9616C102.97 54.2122 103.047 54.4176 103.202 54.5776C103.357 54.7322 103.551 54.8576 103.786 54.9536C104.021 55.0496 104.261 55.1296 104.506 55.1936L106.506 55.7376C106.805 55.8176 107.135 55.9242 107.498 56.0576C107.861 56.1856 108.207 56.3669 108.538 56.6016C108.874 56.8309 109.149 57.1349 109.362 57.5136C109.581 57.8922 109.69 58.3722 109.69 58.9536C109.69 59.5722 109.559 60.1136 109.298 60.5776C109.042 61.0362 108.695 61.4176 108.258 61.7216C107.821 62.0202 107.325 62.2442 106.77 62.3936C106.221 62.5429 105.653 62.6176 105.066 62.6176Z" fill="white"/>
</svg>
