<svg width="221" height="140" viewBox="0 0 221 140" fill="none" xmlns="http://www.w3.org/2000/svg">
<path d="M48.1313 138.135H11.3553C11.3553 138.135 -2.90754 124.274 0.536566 104C4.91909 78.2016 23.8456 77.2575 23.8456 77.2575C23.8456 77.2575 23.7413 36.3394 69.1036 38.7155C69.1036 38.7155 109.377 17.1623 135.083 47.061C135.083 47.061 153.184 27.5362 186.875 41.1569C225.078 56.6016 227.695 120.259 200.531 138.135H48.1313Z" fill="#EBEBEB"/>
<path d="M182.662 81.0777C181.408 81.0777 180.452 80.7696 179.793 80.1534C179.134 79.5373 178.804 78.6668 178.804 77.5419C178.804 76.3812 179.126 75.4928 179.771 74.8766C180.416 74.2533 181.376 73.9416 182.652 73.9416C183.081 73.9416 183.465 73.9739 183.801 74.0383C184.138 74.1028 184.461 74.1924 184.769 74.307V76.0695C184.153 75.7973 183.493 75.6612 182.791 75.6612C182.139 75.6612 181.656 75.8116 181.34 76.1125C181.025 76.4063 180.868 76.8827 180.868 77.5419C180.868 78.1867 181.032 78.6524 181.362 78.939C181.699 79.2184 182.182 79.3582 182.813 79.3582C183.157 79.3582 183.49 79.3259 183.812 79.2614C184.142 79.1969 184.468 79.0966 184.79 78.9605V80.7338C184.482 80.8412 184.156 80.9236 183.812 80.981C183.475 81.0454 183.092 81.0777 182.662 81.0777ZM187.815 81.0777C187.349 81.0777 186.908 81.0419 186.493 80.9702C186.077 80.8914 185.723 80.7839 185.429 80.6478V78.982C185.751 79.1325 186.109 79.2543 186.504 79.3474C186.898 79.4405 187.267 79.4871 187.61 79.4871C187.969 79.4871 188.237 79.4585 188.416 79.4011C188.603 79.3367 188.696 79.1969 188.696 78.982C188.696 78.8315 188.642 78.7133 188.535 78.6274C188.434 78.5414 188.273 78.4626 188.051 78.3909C187.836 78.3193 187.553 78.2297 187.202 78.1222C186.736 77.9718 186.367 77.807 186.095 77.6279C185.823 77.4488 185.626 77.2302 185.504 76.9723C185.389 76.7144 185.332 76.3991 185.332 76.0266C185.332 75.3459 185.572 74.8301 186.052 74.479C186.539 74.1207 187.259 73.9416 188.212 73.9416C188.592 73.9416 188.983 73.9739 189.384 74.0383C189.792 74.1028 190.122 74.1745 190.372 74.2533V75.9298C190.036 75.7937 189.713 75.697 189.405 75.6397C189.097 75.5823 188.807 75.5537 188.535 75.5537C188.219 75.5537 187.951 75.5788 187.729 75.6289C187.507 75.6791 187.396 75.808 187.396 76.0158C187.396 76.1949 187.489 76.3275 187.675 76.4135C187.868 76.4923 188.209 76.5962 188.696 76.7251C189.262 76.8756 189.692 77.0583 189.986 77.2732C190.286 77.4882 190.491 77.7389 190.598 78.0255C190.706 78.3049 190.759 78.6238 190.759 78.982C190.759 79.6125 190.516 80.1212 190.029 80.5081C189.541 80.8878 188.803 81.0777 187.815 81.0777ZM193.671 81.0777C193.205 81.0777 192.765 81.0419 192.349 80.9702C191.934 80.8914 191.579 80.7839 191.285 80.6478V78.982C191.608 79.1325 191.966 79.2543 192.36 79.3474C192.754 79.4405 193.123 79.4871 193.467 79.4871C193.825 79.4871 194.094 79.4585 194.273 79.4011C194.459 79.3367 194.552 79.1969 194.552 78.982C194.552 78.8315 194.499 78.7133 194.391 78.6274C194.291 78.5414 194.13 78.4626 193.907 78.3909C193.692 78.3193 193.409 78.2297 193.058 78.1222C192.593 77.9718 192.224 77.807 191.951 77.6279C191.679 77.4488 191.482 77.2302 191.36 76.9723C191.246 76.7144 191.188 76.3991 191.188 76.0266C191.188 75.3459 191.428 74.8301 191.908 74.479C192.396 74.1207 193.116 73.9416 194.069 73.9416C194.448 73.9416 194.839 73.9739 195.24 74.0383C195.648 74.1028 195.978 74.1745 196.229 74.2533V75.9298C195.892 75.7937 195.57 75.697 195.262 75.6397C194.953 75.5823 194.663 75.5537 194.391 75.5537C194.076 75.5537 193.807 75.5788 193.585 75.6289C193.363 75.6791 193.252 75.808 193.252 76.0158C193.252 76.1949 193.345 76.3275 193.531 76.4135C193.725 76.4923 194.065 76.5962 194.552 76.7251C195.118 76.8756 195.548 77.0583 195.842 77.2732C196.143 77.4882 196.347 77.7389 196.454 78.0255C196.562 78.3049 196.616 78.6238 196.616 78.982C196.616 79.6125 196.372 80.1212 195.885 80.5081C195.398 80.8878 194.66 81.0777 193.671 81.0777Z" fill="#407BFF"/>
<path d="M9.63058 68.9627H32.7261C34.1381 68.9627 35.2828 67.8179 35.2828 66.406V56.7554C35.2828 55.3435 34.1381 54.1987 32.7261 54.1987H9.63058C8.21862 54.1987 7.07385 55.3435 7.07385 56.7554V66.406C7.07347 67.8183 8.21824 68.9627 9.63058 68.9627Z" fill="#407BFF"/>
<path d="M18.8307 64.5934L14.5921 62.7173V61.371L18.8307 59.4949V61.0149L16.3292 62.0398L18.8307 63.0734V64.5934ZM19.2658 64.7498L21.2983 58.9998H22.9746L20.9421 64.7498H19.2658ZM23.4051 64.5934V63.0734L25.9066 62.0398L23.4051 61.0149V59.4949L27.6438 61.371V62.7173L23.4051 64.5934Z" fill="white"/>
<path d="M194.996 116.927H218.091C219.503 116.927 220.648 115.782 220.648 114.37V104.72C220.648 103.308 219.503 102.163 218.091 102.163H194.996C193.584 102.163 192.439 103.308 192.439 104.72V114.37C192.439 115.783 193.583 116.927 194.996 116.927Z" fill="#407BFF"/>
<path d="M204.196 112.558L199.957 110.681V109.335L204.196 107.459V108.979L201.694 110.004L204.196 111.038V112.558ZM204.631 112.714L206.663 106.964H208.34L206.307 112.714H204.631ZM208.77 112.558V111.038L211.272 110.004L208.77 108.979V107.459L213.009 109.335V110.681L208.77 112.558Z" fill="white"/>
<path d="M31.0101 105.729L29.7433 104.876C29.9024 104.267 29.9958 103.631 29.9958 102.972C29.9958 102.239 29.8858 101.533 29.6908 100.863L31.0014 99.9751C31.6039 99.5669 31.7615 98.7475 31.3529 98.1447L30.1205 96.3261C29.7123 95.7237 28.8929 95.5661 28.2901 95.9746L26.9243 96.9002C26.2977 96.4349 25.5993 96.0638 24.846 95.8087V94.1477C24.846 93.4198 24.2561 92.8298 23.5282 92.8298H21.3313C20.6034 92.8298 20.0134 93.4198 20.0134 94.1477V95.8087C19.2526 96.0661 18.5481 96.4421 17.9174 96.9134L16.5489 95.9916C15.9453 95.585 15.1263 95.7448 14.7197 96.3488L13.4925 98.1712C13.0859 98.7747 13.2457 99.5937 13.8497 100L15.1634 100.885C14.9725 101.549 14.864 102.248 14.864 102.972C14.864 103.639 14.9593 104.282 15.1222 104.899L13.8584 105.755C13.2559 106.163 13.0983 106.983 13.5069 107.586L14.7393 109.404C15.1475 110.007 15.9669 110.164 16.5697 109.756L17.7859 108.932C18.4495 109.45 19.2005 109.86 20.0142 110.135V111.583C20.0142 112.31 20.6041 112.9 21.332 112.9H23.5289C24.2568 112.9 24.8468 112.31 24.8468 111.583V110.135C25.668 109.858 26.425 109.443 27.0932 108.918L28.3113 109.739C28.9152 110.145 29.7339 109.985 30.1405 109.381L31.3677 107.559C31.7739 106.955 31.6141 106.136 31.0101 105.729ZM22.4299 106.804C20.3169 106.804 18.598 105.085 18.598 102.972C18.598 100.859 20.3169 99.1398 22.4299 99.1398C24.5429 99.1398 26.2625 100.859 26.2625 102.972C26.2622 105.085 24.5429 106.804 22.4299 106.804Z" fill="#A6A6A6"/>
<path d="M120.11 45.1139C120.11 45.1139 116.796 42.0076 116.227 38.2801C115.657 34.5525 119.397 31.7569 119.397 31.7569C119.397 31.7569 119.412 29.3109 122.336 27.5116C123.009 27.0974 124.924 23.5769 126.943 23.3698C128.962 23.1627 128.911 26.4243 128.911 26.4243C128.911 26.4243 133.259 23.318 134.657 23.6805C136.055 24.0429 135.123 25.9583 135.123 25.9583C135.123 25.9583 139.886 23.5251 141.077 24.2496C142.267 24.9745 141.491 28.2879 141.491 28.2879C141.491 28.2879 143.096 30.255 146.202 31.6012C149.308 32.947 153.347 35.0181 153.295 40.8681C153.243 46.7182 148.946 54.0698 148.946 54.0698L123.578 52.1026L120.11 45.1139Z" fill="#263238"/>
<path d="M126.173 41.863C125.808 41.7919 125.479 41.5788 125.201 41.3293C124.922 41.0776 124.679 40.7825 124.48 40.4624C124.086 39.8172 123.833 39.1014 123.635 38.3788C123.296 36.9219 123.148 35.423 123.342 33.9101C123.438 33.1577 123.67 32.4297 123.944 31.726C124.267 31.0442 124.611 30.3666 125.085 29.7812C125.985 28.5824 127.135 27.5793 128.443 26.8945C127.847 27.3284 127.297 27.8133 126.798 28.3431C126.285 28.8587 125.828 29.4259 125.435 30.0287C124.637 31.2268 124.077 32.5749 123.893 33.9899L123.819 34.519C123.802 34.6962 123.807 34.8754 123.8 35.0534L123.786 35.5885L123.815 36.1312C123.833 36.858 123.942 37.5719 124.051 38.2858C124.192 38.9914 124.39 39.6895 124.717 40.3282C125.027 40.9658 125.489 41.5761 126.173 41.863Z" fill="#455A64"/>
<path d="M127.344 41.6694C126.932 40.1339 126.824 38.5201 126.934 36.9222C127.036 35.3213 127.438 33.7302 128.132 32.2653C128.845 30.8114 129.854 29.5072 131.064 28.4523C132.265 27.3896 133.635 26.5158 135.123 25.9587C134.428 26.3401 133.762 26.7622 133.138 27.2411C132.505 27.7033 131.906 28.212 131.357 28.7653C130.81 29.3205 130.281 29.893 129.834 30.5272C129.365 31.1447 128.973 31.8152 128.633 32.508C127.96 33.8995 127.558 35.4165 127.358 36.9646C127.257 37.7389 127.209 38.5228 127.212 39.3081C127.2 40.095 127.251 40.8822 127.344 41.6694Z" fill="#455A64"/>
<path d="M123.511 41.6693C122.583 41.4047 121.766 40.7883 121.126 40.0506C120.478 39.3083 120.026 38.4141 119.709 37.4912C119.381 36.5657 119.258 35.5921 119.189 34.6295C119.182 34.1465 119.189 33.6635 119.209 33.1839C119.272 32.7051 119.317 32.2281 119.396 31.7568C119.442 32.2368 119.452 32.7111 119.482 33.1839L119.621 34.5913C119.776 35.5158 119.916 36.4425 120.237 37.3132C120.526 38.19 120.925 39.0317 121.465 39.7815C122.015 40.5181 122.672 41.2059 123.511 41.6693Z" fill="#455A64"/>
<path d="M128.909 41.1565C129.759 40.1523 130.652 39.1916 131.551 38.2373C132.445 37.2785 133.371 36.3511 134.297 35.4236C135.232 34.5052 136.168 33.588 137.134 32.7014L138.584 31.3726C139.082 30.944 139.566 30.5022 140.076 30.0857C139.655 30.5917 139.209 31.0725 138.776 31.5664L137.435 33.0056C136.54 33.964 135.615 34.8919 134.688 35.8189C133.753 36.7366 132.817 37.6542 131.851 38.5405C130.889 39.4312 129.92 40.3156 128.909 41.1565Z" fill="#455A64"/>
<path d="M124.956 111.277L122.296 132.833H112.137L116.31 103.989L124.956 111.277Z" fill="#FFBE9D"/>
<path d="M167.595 106.035L177.967 134.403L189.475 134.137L177.835 99.8372L167.595 106.035Z" fill="#FFBE9D"/>
<path d="M145.907 57.134L147.246 69.9804C147.523 72.6418 146.812 73.8516 145.393 76.1199C144.001 78.3441 141.883 79.7167 138.004 79.7167C129.632 79.7167 130.844 64.4539 130.844 64.4539L145.907 57.134Z" fill="#FFBE9D"/>
<path d="M131.454 72.8705C131.609 73.5281 131.798 74.177 132.028 74.7991C132.892 75.4174 134.81 76.2224 138.332 75.1491C143.229 73.6566 144.274 67.0054 144.274 67.0054C141.82 71.2828 131.478 72.8667 131.454 72.8705Z" fill="#EB996E"/>
<path d="M147.651 50.8634C147.086 50.8634 146.549 50.976 146.057 51.1763V51.1479C141.259 50.702 144.52 39.1943 144.52 39.1943C144.52 39.1943 142.111 39.997 141.041 39.8186C139.97 39.6402 142.468 37.3208 142.468 37.3208C142.468 37.3208 139.614 38.6587 138.543 38.3912C137.473 38.1236 138.989 36.3394 138.989 36.3394C138.989 36.3394 133.637 39.1047 128.909 41.1565C124.181 43.2083 119.453 40.443 119.453 40.443C119.007 51.2368 121.36 63.0755 121.36 63.0755C122.516 68.768 127.549 73.0526 133.583 73.0526C140.223 73.0526 145.65 67.8632 146.032 61.3189L146.056 61.3174V59.0252C146.549 59.2255 147.086 59.3378 147.65 59.3378C149.991 59.3378 151.888 57.4405 151.888 55.1004C151.888 52.7606 149.991 50.8634 147.651 50.8634Z" fill="#FFBE9D"/>
<path d="M182.093 100.728C180.548 98.145 176.905 91.9855 174.497 87.372C171.374 81.3852 170.072 79.0424 165.386 76.96C160.701 74.8775 150.028 73.5759 150.028 73.5759L137.864 80.2846L129.818 76.6304C129.818 76.6304 120.783 80.8648 119.397 83.2072C118.011 85.55 113.976 110.565 113.976 110.565L125.352 113.505L126.228 105.755L131.843 133.48L170.189 134.403L164.085 100.257L167.693 108.94C168.023 109.734 168.883 110.167 169.715 109.954C172.357 109.278 178.002 107.407 181.884 103.094C182.47 102.444 182.542 101.479 182.093 100.728Z" fill="#407BFF"/>
<path d="M164.085 100.257C163.652 99.2947 163.271 98.3154 162.909 97.3305C162.543 96.3464 162.208 95.3524 161.879 94.3562C161.56 93.3569 161.247 92.3558 160.966 91.3441C160.681 90.3339 160.415 89.3172 160.202 88.2839C160.636 89.2458 161.017 90.225 161.38 91.2103C161.745 92.1944 162.08 93.1884 162.408 94.1846C162.726 95.1843 163.039 96.1854 163.32 97.1968C163.605 98.2073 163.871 99.2236 164.085 100.257Z" fill="#1E4284"/>
<path d="M160.65 75.4644C160.157 76.0441 159.775 76.6828 159.461 77.3461C159.153 78.012 158.922 78.7067 158.765 79.4198C158.702 79.7796 158.62 80.1371 158.596 80.5041C158.579 80.6866 158.543 80.8684 158.541 81.0525C158.537 81.2365 158.528 81.421 158.517 81.6058C158.499 81.791 158.512 81.9758 158.514 82.1617L158.519 82.7222C158.535 83.0963 158.573 83.4701 158.575 83.8549C158.452 83.4958 158.341 83.1288 158.248 82.7566C158.19 82.3798 158.098 82.0019 158.083 81.6167C158.011 80.8473 158.078 80.0672 158.222 79.3023C158.399 78.5441 158.673 77.8038 159.081 77.1401C159.483 76.4802 160 75.8737 160.65 75.4644Z" fill="#1E4284"/>
<path d="M126.228 105.754C125.94 104.55 125.646 103.349 125.402 102.139C125.147 100.93 124.922 99.7162 124.702 98.5016C124.282 96.0684 123.9 93.6285 123.684 91.1587C124.334 93.5514 124.814 95.9743 125.25 98.4052C125.459 99.6221 125.661 100.841 125.828 102.065C126 103.288 126.152 104.516 126.228 105.754Z" fill="#1E4284"/>
<path d="M119.397 83.2066C119.653 83.0539 119.977 83.0305 120.285 83.0785C120.59 83.1412 120.882 83.2769 121.131 83.4632C121.639 83.8329 121.977 84.3555 122.261 84.8786C122.519 85.4168 122.721 85.9742 122.842 86.5476C122.981 87.1167 123.038 87.7002 123.052 88.2838C122.811 87.746 122.638 87.2018 122.427 86.6742C122.331 86.4066 122.222 86.1481 122.111 85.89C122.017 85.6243 121.882 85.3828 121.765 85.1307C121.512 84.6435 121.231 84.1692 120.853 83.7954C120.479 83.4323 119.988 83.1412 119.397 83.2066Z" fill="#1E4284"/>
<path d="M147.817 70.5007L138.588 78.9876H136.996L131.603 73.7925C131.473 73.6667 131.263 73.678 131.147 73.8171L128.773 76.6576C128.616 76.8451 128.598 77.1123 128.728 77.3194L132.337 83.0648C132.967 84.067 134.431 84.0565 135.046 83.0447L136.681 80.3557L136.879 90.6098C136.885 90.9258 137.152 91.1741 137.467 91.1578L139.397 91.0588C139.707 91.0429 139.944 90.7788 139.927 90.4692L139.377 80.4755L141.817 83.6695C142.459 84.5096 143.726 84.5028 144.358 83.6558L151.888 73.5775L147.817 70.5007Z" fill="#356BBA"/>
<path d="M138.662 81.9365C138.662 82.2672 138.394 82.5352 138.063 82.5352C137.733 82.5352 137.465 82.2672 137.465 81.9365C137.465 81.6059 137.733 81.3379 138.063 81.3379C138.394 81.3379 138.662 81.6059 138.662 81.9365Z" fill="white"/>
<path d="M138.939 88.906C138.939 89.2367 138.671 89.5047 138.34 89.5047C138.009 89.5047 137.741 89.2367 137.741 88.906C137.741 88.5753 138.009 88.3074 138.34 88.3074C138.671 88.3074 138.939 88.5753 138.939 88.906Z" fill="white"/>
<path d="M138.788 85.5344C138.788 85.8651 138.52 86.1331 138.189 86.1331C137.858 86.1331 137.591 85.8651 137.591 85.5344C137.591 85.2037 137.858 84.9358 138.189 84.9358C138.52 84.9358 138.788 85.2037 138.788 85.5344Z" fill="white"/>
<path d="M138.063 121.487C139.338 122.568 140.724 123.495 142.154 124.325C143.593 125.139 145.092 125.846 146.659 126.355C148.219 126.878 149.841 127.213 151.484 127.334C152.306 127.393 153.134 127.405 153.96 127.349C154.791 127.325 155.61 127.181 156.438 127.055C154.845 127.556 153.155 127.825 151.464 127.767C149.772 127.733 148.089 127.412 146.483 126.883C144.877 126.35 143.349 125.602 141.929 124.696C140.513 123.787 139.19 122.725 138.063 121.487Z" fill="#1E4284"/>
<path d="M136.765 53.9191C136.701 54.5321 136.152 54.9773 135.539 54.9134C134.926 54.8496 134.481 54.3012 134.545 53.6882C134.609 53.0752 135.157 52.63 135.77 52.6938C136.383 52.7577 136.829 53.3061 136.765 53.9191Z" fill="#263238"/>
<path d="M133.58 51.1732C133.538 50.6607 133.773 50.1218 134.182 49.7443C134.383 49.5489 134.637 49.4219 134.892 49.3134C135.155 49.2261 135.422 49.1694 135.696 49.1558C135.97 49.1384 136.249 49.18 136.517 49.2469C136.778 49.3372 137.038 49.4408 137.252 49.6105C137.688 49.931 138.009 50.3803 138.132 50.8781C137.413 50.1664 136.593 49.7537 135.727 49.8198C135.29 49.8319 134.866 49.9393 134.496 50.1543C134.133 50.3788 133.81 50.7216 133.58 51.1732Z" fill="#263238"/>
<path d="M132.785 47.1864C133.621 47.0212 135.612 46.7359 138.289 47.0605C138.513 47.0877 138.669 46.8364 138.542 46.6497C138.152 46.079 137.179 45.2189 134.886 45.3836C133.322 45.4955 132.718 46.2971 132.488 46.8228C132.402 47.019 132.575 47.228 132.785 47.1864Z" fill="#263238"/>
<path d="M125.904 54.5472C125.947 55.1511 125.607 55.6678 125.144 55.701C124.682 55.7343 124.272 55.2713 124.228 54.6674C124.185 54.0634 124.525 53.5468 124.988 53.5139C125.45 53.4803 125.86 53.9433 125.904 54.5472Z" fill="#263238"/>
<path d="M122.131 52.6878C122.012 52.2672 122.048 51.7966 122.246 51.3699C122.434 50.9357 122.848 50.5846 123.305 50.4357C123.54 50.3665 123.791 50.325 124.041 50.362C124.288 50.3983 124.525 50.4833 124.72 50.6175C125.113 50.8813 125.386 51.2603 125.512 51.6791C125.186 51.3941 124.851 51.1587 124.508 51.0185C124.159 50.8858 123.821 50.8801 123.488 50.9882C123.152 51.102 122.86 51.3 122.636 51.599C122.413 51.8975 122.252 52.2721 122.131 52.6878Z" fill="#263238"/>
<path d="M120.935 48.8803C121.539 48.5855 122.994 47.9899 125.057 47.8882C125.229 47.8796 125.309 47.6071 125.185 47.443C124.807 46.9415 123.945 46.2469 122.244 46.7707C121.085 47.1278 120.75 48.0137 120.656 48.5685C120.621 48.7753 120.783 48.9544 120.935 48.8803Z" fill="#263238"/>
<path d="M127.581 50.781C127.447 51.9466 127.341 53.1106 127.261 54.2724C127.193 55.433 127.143 56.5982 127.245 57.7414C127.285 58.023 127.29 58.3144 127.358 58.588L127.44 59.0037L127.568 59.3998C127.749 59.9085 128.071 60.3843 128.521 60.6662C128.739 60.8227 129.005 60.8722 129.27 60.9096C129.54 60.9134 129.819 60.8896 130.088 60.7985C130.635 60.6436 131.139 60.3321 131.605 59.9799C131.206 60.4108 130.72 60.7702 130.164 61.0105C129.886 61.1341 129.578 61.1897 129.263 61.2105C128.951 61.198 128.62 61.1458 128.344 60.978C127.772 60.6727 127.396 60.1273 127.162 59.554L127.012 59.1171L126.917 58.6734C126.842 58.3775 126.832 58.0797 126.788 57.7822C126.692 56.591 126.764 55.408 126.906 54.2395C127.046 53.0698 127.272 51.9137 127.581 50.781Z" fill="#263238"/>
<path d="M129.158 64.1412C129.79 64.346 130.434 64.459 131.07 64.4572C131.704 64.4496 132.332 64.3453 132.905 64.0906C133.185 63.9545 133.476 63.8298 133.726 63.6348C133.853 63.5418 133.997 63.4692 134.112 63.3593C134.23 63.2523 134.351 63.148 134.473 63.0444C134.603 62.9473 134.701 62.8184 134.813 62.7028L135.149 62.3487C135.354 62.0958 135.551 61.8332 135.773 61.5803C135.639 61.8834 135.49 62.1839 135.332 62.4806C135.135 62.7508 134.965 63.0486 134.73 63.2943C134.287 63.8132 133.715 64.224 133.084 64.5123C132.444 64.7871 131.733 64.8819 131.051 64.8128C130.37 64.7463 129.709 64.5188 129.158 64.1412Z" fill="#263238"/>
<path d="M147.569 51.9485C148.3 52.0101 149.035 52.3442 149.568 52.9224C150.125 53.492 150.354 54.3283 150.344 55.0993C150.337 55.868 150.046 56.7086 149.43 57.2294C148.828 57.7581 148.032 57.9588 147.305 57.89C148.01 57.7063 148.661 57.382 149.096 56.8885C149.303 56.6379 149.488 56.3692 149.573 56.0536C149.638 55.9066 149.651 55.7376 149.695 55.5819C149.709 55.4172 149.73 55.2516 149.732 55.0865C149.734 54.7543 149.716 54.4198 149.618 54.1088C149.588 53.9459 149.511 53.8015 149.454 53.6477C149.371 53.5067 149.301 53.3567 149.199 53.2244C148.812 52.6821 148.232 52.2539 147.569 51.9485Z" fill="#EB996E"/>
<path d="M77.3924 102.941L85.1295 138.135H33.475C33.475 138.135 35.9222 108.173 39.4101 98.4561C41.6887 92.108 56.3593 90.9814 66.2922 92.5196C71.7892 93.3707 76.1982 97.5079 77.3924 102.941Z" fill="#37474F"/>
<path d="M111.969 106.509L21.631 134.196V138.135H197.372V134.403L119.166 106.467C116.815 105.777 114.312 105.791 111.969 106.509Z" fill="#9FC1F7"/>
<path d="M21.631 134.196L197.372 134.403V138.135H21.631V134.196Z" fill="#82A5D8"/>
<path d="M65.2797 23.6313C65.2797 23.6313 60.7433 23.2012 54.213 29.9058C47.9333 36.3533 49.479 48.3727 49.479 48.3727L69.7623 41.9936L73.0908 30.4409L65.2797 23.6313Z" fill="#1D272B"/>
<path d="M69.1777 35.6656C69.1777 35.6656 49.7999 40.1388 45.1694 50.5063C40.5393 60.8738 40.5393 77.0652 40.5393 77.0652L36.4214 97.748C36.198 98.8705 36.6274 100.017 37.5265 100.725C40.7242 103.242 49.174 108.468 62.3454 106.49C75.2907 104.545 79.3305 98.6785 80.5312 95.9328C80.8868 95.1199 80.914 94.203 80.6279 93.3628L78.9068 88.3121L83.1771 62.8424L107.421 100.171C107.775 100.717 108.532 100.822 109.018 100.389C110.436 99.129 113.379 96.6441 116.975 94.3523C116.975 94.3523 93.0143 54.3578 85.4689 42.8679C77.9234 31.3783 69.1777 35.6656 69.1777 35.6656Z" fill="#C42026"/>
<path d="M70.8689 79.9077C70.8689 79.9077 71.5927 82.6397 71.7786 83.7342C71.9646 84.8291 71.3587 85.0392 71.3587 85.0392L64.828 89.0264C64.828 89.0264 51.6669 96.2877 48.8909 97.4857C46.115 98.6842 45.3074 97.279 45.3074 97.279C41.9955 93.2975 40.7317 78.0872 40.5605 75.8279C40.5397 76.6143 40.539 77.0652 40.539 77.0652L36.421 97.748C36.1977 98.8705 36.627 100.017 37.5261 100.725C37.5767 100.764 37.6323 100.807 37.6856 100.848C40.7835 101.865 44.66 102.99 46.2934 102.854C49.2114 102.61 71.3682 88.506 72.5568 87.4592C73.7458 86.4119 73.6377 83.967 73.6377 83.967L80.1971 80.6129L81.0633 75.4465L70.8689 79.9077Z" fill="#A30006"/>
<path d="M40.5394 77.0654C40.9211 79.511 41.3206 81.9483 41.816 84.3637C42.1841 86.7968 42.6343 89.2201 43.2601 91.5875C43.578 92.7678 43.9389 93.939 44.4177 95.0441C44.6581 95.5944 44.9302 96.1299 45.2609 96.6035C45.5878 97.0698 45.9979 97.4939 46.4468 97.6163C46.558 97.6469 46.6695 97.6594 46.7825 97.6537C46.906 97.6466 47.05 97.6246 47.188 97.5993C47.4688 97.5453 47.7556 97.4636 48.0402 97.3737C48.6109 97.1942 49.1782 96.9682 49.7405 96.7335C50.8653 96.258 51.973 95.7233 53.0713 95.1707C57.4587 92.9379 61.7233 90.4405 65.9554 87.9027L69.1176 85.9771L70.6913 85.0028L71.0832 84.7571C71.158 84.7087 71.1906 84.6883 71.2272 84.6551C71.2631 84.623 71.2967 84.5878 71.3243 84.5481C71.4358 84.3902 71.4914 84.1967 71.4581 83.9907C71.0107 81.57 70.5295 79.1308 70.1047 76.6958C70.8224 79.0685 71.4853 81.4366 72.1796 83.824C72.2983 84.2182 72.2129 84.6883 71.9487 85.0213C71.8848 85.106 71.8092 85.1819 71.728 85.2496C71.6482 85.318 71.5473 85.3773 71.4918 85.4113L71.0976 85.6562L69.5201 86.6328L66.3515 88.5622C62.1092 91.106 57.8389 93.6076 53.4171 95.8582C52.3086 96.416 51.1895 96.9561 50.0387 97.4429C49.4612 97.6836 48.8792 97.916 48.2715 98.1076C47.9673 98.2033 47.6593 98.2917 47.3331 98.3552C47.1676 98.3854 47.0062 98.4115 46.821 98.4228C46.6256 98.433 46.4264 98.4104 46.2401 98.3582C45.8641 98.2539 45.5504 98.0434 45.2926 97.8113C45.0345 97.5766 44.8198 97.3162 44.6309 97.0468C44.2545 96.5063 43.9665 95.933 43.7121 95.3525C43.2083 94.1888 42.841 92.9912 42.5163 91.7871C41.8757 89.3766 41.4347 86.9314 41.0469 84.4824C40.9139 83.2484 40.8134 82.0122 40.7242 80.7764C40.6339 79.5405 40.5681 78.3032 40.5394 77.0654Z" fill="#103254"/>
<path d="M69.6966 74.4429C66.4604 76.441 63.1398 78.2812 59.7985 80.0824C56.4485 81.8681 53.0777 83.6142 49.6212 85.2008C52.8566 83.2015 56.1772 81.3613 59.5192 79.5612C62.8696 77.7766 66.2408 76.0309 69.6966 74.4429Z" fill="#103254"/>
<path d="M54.1544 82.7279C53.9084 81.6773 53.7243 80.6179 53.521 79.5605L53.2285 76.3556C53.0429 74.218 52.8917 72.0774 52.7712 69.9341C52.6468 67.7912 52.5739 65.6438 52.5637 63.4937C52.552 62.4189 52.5849 61.3422 52.6204 60.2654L52.8698 58.6619C52.9703 58.1297 53.0943 57.6025 53.2153 57.0798L53.1778 58.6895L53.2115 60.293C53.1763 61.358 53.1438 62.4234 53.1555 63.4919C53.1657 65.6272 53.2383 67.7655 53.3623 69.9012C53.4828 72.0373 53.6332 74.1723 53.8184 76.305C53.9118 77.3711 54.0059 78.4372 54.1147 79.5019C54.1227 80.5764 54.1556 81.6493 54.1544 82.7279Z" fill="#103254"/>
<path d="M47.2787 47.1898C48.1408 46.9721 49.0606 46.9679 49.9522 47.155C50.8434 47.3387 51.7145 47.7703 52.3747 48.4453C53.0358 49.1203 53.4356 50.013 53.5853 50.909C53.7459 51.8078 53.6994 52.7174 53.504 53.5818C53.4545 52.6974 53.3664 51.8282 53.1351 51.0118C53.0221 50.6037 52.8714 50.211 52.6726 49.8486C52.4836 49.4808 52.2398 49.1464 51.9507 48.8576C51.3857 48.265 50.6389 47.8591 49.8343 47.5998C49.0259 47.3447 48.1627 47.2162 47.2787 47.1898Z" fill="#103254"/>
<path d="M70.124 55.4775C70.124 55.4775 73.3569 63.684 75.6827 63.4002C78.0085 63.1167 81.2666 55.8831 81.2666 55.8831L70.124 55.4775Z" fill="#FE653B"/>
<path d="M81.0637 75.4461C81.4522 71.4192 82.0176 67.4195 82.6265 63.4267C83.2531 59.4364 83.9239 55.4534 84.7735 51.4976C84.3865 55.5248 83.8207 59.5245 83.2108 63.517C82.583 67.5072 81.9118 71.4903 81.0637 75.4461Z" fill="#103254"/>
<path d="M74.4782 88.2424C73.4872 89.2417 72.35 90.0985 71.1418 90.832C69.9331 91.5694 68.6383 92.1665 67.2982 92.6352C66.9592 92.7406 66.6273 92.8702 66.2819 92.9541L65.2486 93.2157C64.9025 93.295 64.548 93.337 64.1987 93.399L63.6734 93.4844C63.4969 93.5021 63.3189 93.5105 63.1417 93.5237C61.7286 93.6881 60.3 93.5267 58.9228 93.2833C59.2762 93.2803 59.6265 93.2822 59.9753 93.2912L60.4976 93.3011C60.6715 93.2962 60.8461 93.2769 61.0196 93.2652L62.0585 93.2036L63.0884 93.0649C64.4546 92.8581 65.8053 92.5452 67.1054 92.0762C68.4131 91.6314 69.6837 91.0735 70.9146 90.4322C71.525 90.1022 72.1354 89.7674 72.7272 89.3997C73.3311 89.0467 73.9052 88.6495 74.4782 88.2424Z" fill="#103254"/>
<path d="M65.9414 29.9057C65.9414 29.9057 61.2887 24.3505 62.568 13.4565C63.8477 2.56258 72.1063 -0.112811 80.7137 0.00359234C89.3212 0.119996 94.0903 5.70321 95.2536 15.5903C96.4169 25.4775 92.4618 29.7757 92.4618 29.7757L65.9414 29.9057Z" fill="#263238"/>
<path d="M75.0515 7.875C76.0213 8.32436 76.9151 8.88597 77.7904 9.47366C78.6581 10.0731 79.5074 10.6993 80.2799 11.4389C79.3093 10.9903 78.4159 10.4287 77.541 9.84025C76.6736 9.2401 75.8244 8.61348 75.0515 7.875Z" fill="#455A64"/>
<path d="M83.5021 12.85C83.6563 12.8096 83.8041 12.7366 83.8959 12.6274C83.9931 12.5216 84.0184 12.3855 84.0006 12.2499C83.9625 11.9721 83.8037 11.7105 83.6272 11.4615C83.2629 10.9622 82.8434 10.4857 82.425 10.0121C81.5887 9.06048 80.7228 8.12849 79.9246 7.11865C80.4484 7.4947 80.9356 7.91231 81.4065 8.34731C81.8785 8.7808 82.3264 9.24037 82.7565 9.71884C83.1798 10.2033 83.5925 10.7003 83.9269 11.2703C84.0898 11.5545 84.2452 11.8799 84.2293 12.2476C84.2214 12.4294 84.1344 12.6236 83.9825 12.7249C83.8359 12.8307 83.662 12.8587 83.5021 12.85Z" fill="#455A64"/>
<path d="M85.7447 13.0995C86.0675 13.03 86.281 12.7764 86.3869 12.502C86.5021 12.2234 86.5335 11.9203 86.5218 11.6203C86.49 11.0129 86.3234 10.4003 86.131 9.80203C85.9417 9.19998 85.7107 8.60738 85.4794 8.01213L84.7667 6.21997C85.1612 6.73623 85.4946 7.29368 85.7931 7.86928C86.0932 8.44449 86.3479 9.04465 86.5528 9.66673C86.7448 10.2907 86.9058 10.9415 86.8706 11.624C86.8529 11.9646 86.7671 12.3115 86.5834 12.6052C86.4069 12.8966 86.0807 13.1388 85.7447 13.0995Z" fill="#455A64"/>
<path d="M86.6983 12.1937C87.1715 12.513 87.7395 12.4454 88.238 12.3108C88.7494 12.1665 89.2195 11.9223 89.6488 11.6052C90.0846 11.2976 90.4757 10.9223 90.8499 10.5274C91.2184 10.1256 91.5608 9.69742 91.89 9.23975C91.726 9.78057 91.4512 10.2859 91.1175 10.7469C90.7811 11.2073 90.3775 11.6238 89.9081 11.965C89.4402 12.301 88.8899 12.5629 88.3109 12.648C88.0222 12.6956 87.721 12.6986 87.4315 12.6362C87.1469 12.5682 86.8604 12.4322 86.6983 12.1937Z" fill="#455A64"/>
<path d="M67.8099 32.124L67.4781 37.6751C66.5125 38.7329 65.6969 41.0659 66.9682 46.2123C67.3477 47.7486 67.763 48.9149 68.1912 49.8026L70.1244 55.4777C70.1244 55.4777 75.3761 57.777 81.267 55.8832C81.267 55.8832 82.7477 53.9886 83.1687 46.2123C83.5894 38.4355 67.8099 32.124 67.8099 32.124Z" fill="#FFBE9D"/>
<path d="M74.4703 50.2938C77.8195 52.0976 80.7096 51.5829 82.7489 50.635C82.9235 49.4306 83.0736 47.9736 83.1688 46.2117C83.2293 45.0945 82.9473 44.0095 82.4337 42.9671L68.3542 38.2766C68.3542 38.2766 69.6762 47.7117 74.4703 50.2938Z" fill="#EB996E"/>
<path d="M93.1051 37.5658C93.1844 37.2487 93.2525 36.9278 93.3076 36.6013C93.8401 33.8284 94.7151 28.4413 94.1557 17.428C94.1277 16.8773 93.8587 16.3679 93.4187 16.0353C92.5563 15.383 91.0895 13.9653 90.2702 11.4385C90.2702 11.4385 88.0502 13.3557 86.6375 12.1448C86.6375 12.1448 86.3348 14.163 84.1148 12.3467C84.1148 12.3467 84.1148 13.9612 80.2803 11.4385H74.4272C74.4272 11.4385 73.7719 15.0905 70.206 16.982C69.968 17.1082 69.841 17.3743 69.909 17.6351C70.3088 19.1736 71.4162 24.3139 69.124 26.8506C68.1584 26.0581 66.8681 25.6473 65.4823 25.8495C63.4388 26.148 61.8072 27.8382 61.5714 29.8896C61.2483 32.6995 63.4365 35.082 66.1814 35.082C66.8545 35.082 67.4925 34.9358 68.07 34.678V35.6569C68.07 42.6792 73.7628 47.1884 80.7848 47.1884C86.5124 47.1884 91.353 43.4 92.9437 38.1928H92.9456C92.9456 38.1939 93.0079 37.9849 93.1051 37.5658Z" fill="#FFBE9D"/>
<path d="M85.6779 26.9341L86.6133 29.9927C86.9338 31.0041 87.2437 32.0173 87.6235 32.9969C87.7157 33.2429 87.8087 33.4878 87.913 33.7271L87.9889 33.9077C88.0135 33.9689 88.0487 34.0536 88.0713 34.1277C88.1174 34.283 88.1413 34.4451 88.1386 34.6073C88.1318 35.2547 87.6737 35.8817 87.0468 36.0328C86.4749 36.1765 85.8941 36.1341 85.3619 35.9625C84.8321 35.7838 84.3668 35.4769 83.9791 35.1073C84.4451 35.3722 84.9292 35.5933 85.4349 35.6817C85.9334 35.777 86.4568 35.7433 86.9103 35.5925C87.3211 35.4455 87.5963 35.0302 87.5785 34.6058C87.5721 34.5015 87.5585 34.3975 87.5264 34.2977C87.5082 34.2452 87.4916 34.2067 87.4659 34.1451L87.3839 33.9584C87.2709 33.7104 87.1696 33.4595 87.0713 33.2074C86.6915 32.1942 86.4016 31.1579 86.1692 30.1106C85.9394 29.0626 85.7599 28.0048 85.6779 26.9341Z" fill="#263238"/>
<path d="M80.4866 28.2055C80.4866 28.9077 79.9174 29.4768 79.2152 29.4768C78.513 29.4768 77.9438 28.9077 77.9438 28.2055C77.9438 27.5032 78.513 26.9341 79.2152 26.9341C79.9174 26.9341 80.4866 27.5032 80.4866 28.2055Z" fill="#263238"/>
<path d="M90.7532 28.0426C90.7532 28.7448 90.2974 29.314 89.735 29.314C89.1727 29.314 88.7165 28.7448 88.7165 28.0426C88.7165 27.3404 89.1723 26.7712 89.735 26.7712C90.2974 26.7712 90.7532 27.3404 90.7532 28.0426Z" fill="#263238"/>
<path d="M76.1898 25.0468C76.2314 24.4542 76.533 23.8691 77.0167 23.4519C77.496 23.0199 78.1691 22.8162 78.7995 22.8211C79.1162 22.8211 79.4302 22.868 79.739 22.9598C80.0425 23.0679 80.3414 23.2074 80.5893 23.4179C81.0856 23.8344 81.3853 24.4504 81.3596 25.0472C81.0716 24.5332 80.6804 24.1522 80.2473 23.9111C79.8044 23.6813 79.31 23.5891 78.7979 23.5902C78.2953 23.5929 77.8059 23.6802 77.3675 23.9368C76.926 24.1855 76.5303 24.5679 76.1898 25.0468Z" fill="#263238"/>
<path d="M87.8586 25.0466C87.8208 24.5504 87.9485 24.0432 88.2475 23.5954C88.4017 23.3754 88.6061 23.1721 88.8627 23.0285C89.1216 22.8943 89.4194 22.813 89.7082 22.8206C90.2739 22.8055 90.8745 23.1146 91.1753 23.575C91.4826 24.0296 91.5903 24.5546 91.5128 25.0463C91.2762 24.615 91.023 24.2333 90.7184 23.971C90.5687 23.838 90.4077 23.742 90.238 23.683C90.0733 23.6162 89.8866 23.5905 89.704 23.5893C89.5203 23.5803 89.3533 23.6241 89.1847 23.6812C89.0192 23.7488 88.8605 23.8558 88.7051 23.988C88.3933 24.2594 88.128 24.6351 87.8586 25.0466Z" fill="#263238"/>
<path d="M74.81 20.451C75.6989 20.2752 77.8146 19.9721 80.6601 20.3172C80.8986 20.3463 81.0637 20.0787 80.9284 19.8803C80.515 19.2737 79.4798 18.3599 77.0425 18.5345C75.3811 18.6535 74.7382 19.5054 74.4941 20.0644C74.403 20.2726 74.5871 20.4948 74.81 20.451Z" fill="#263238"/>
<path d="M87.5052 20.4862C88.1722 20.2874 89.7569 19.9288 91.868 20.1979C92.0449 20.2205 92.1753 19.9492 92.0797 19.7553C91.7875 19.1616 91.0407 18.2772 89.2195 18.5164C87.9784 18.6793 87.4768 19.5455 87.2799 20.1094C87.2066 20.3192 87.3381 20.5361 87.5052 20.4862Z" fill="#263238"/>
<path d="M65.8564 33.6674C65.079 33.6021 64.2985 33.2468 63.732 32.6323C63.1398 32.0268 62.8957 31.1383 62.907 30.3186C62.9142 29.5015 63.2241 28.6084 63.8787 28.0548C64.5177 27.4928 65.3636 27.2792 66.1372 27.3526C65.3878 27.5479 64.6961 27.8926 64.2335 28.4172C64.0124 28.6836 63.8167 28.969 63.7256 29.3046C63.6564 29.4607 63.6428 29.6406 63.5963 29.8057C63.582 29.9811 63.5589 30.1564 63.5567 30.3326C63.5548 30.6855 63.5733 31.0412 63.6784 31.3715C63.7097 31.5446 63.7914 31.698 63.8526 31.8613C63.9399 32.011 64.0147 32.1704 64.1228 32.3114C64.5344 32.8881 65.1515 33.3428 65.8564 33.6674Z" fill="#EB996E"/>
<path d="M82.5052 39.1104C82.1518 39.9362 80.9934 40.2325 79.9182 39.7722C78.843 39.3118 78.2579 38.2691 78.6117 37.4433C78.965 36.6176 80.1234 36.3216 81.1986 36.782C82.2739 37.2423 82.8589 38.285 82.5052 39.1104Z" fill="#EB996E"/>
<path d="M77.476 35.0652C77.8286 35.7356 78.2496 36.3437 78.7451 36.8706C79.2439 37.391 79.8033 37.8479 80.4439 38.1571C80.5924 38.2561 80.7674 38.3022 80.928 38.3781L81.174 38.4821L81.431 38.5565C81.6026 38.6057 81.7727 38.6654 81.9473 38.7073C82.1253 38.7345 82.3029 38.767 82.4813 38.8022C82.5709 38.8177 82.6597 38.84 82.7504 38.8498L83.0236 38.8691L83.5747 38.9175C83.9443 38.9311 84.3166 38.9148 84.7002 38.9394C84.3381 39.0441 83.9666 39.1397 83.5894 39.2073L83.0153 39.2565C82.8226 39.2773 82.6295 39.2814 82.436 39.2614C81.6555 39.255 80.8834 39.0218 80.1733 38.6831C79.4654 38.3275 78.8547 37.7916 78.3913 37.165C77.9268 36.5406 77.5969 35.8173 77.476 35.0652Z" fill="#263238"/>
<path d="M78.4454 35.0651C78.0516 35.1505 77.8592 35.2454 77.6865 35.369C77.5962 35.4306 77.5081 35.516 77.3936 35.6067C77.3437 35.6585 77.2832 35.7091 77.2194 35.7635C77.1559 35.8198 77.0924 35.8792 77.0017 35.9359C76.9359 35.745 76.9408 35.5542 76.996 35.3712C77.0561 35.1895 77.1668 35.0099 77.346 34.8848C77.5228 34.7609 77.7549 34.7023 77.9605 34.7416C78.1646 34.7749 78.3464 34.8856 78.4454 35.0651Z" fill="#263238"/>
<path d="M69.5934 74.4977C69.5934 74.4977 80.9151 61.6748 81.7281 61.3622C82.5414 61.0493 86.1064 60.2987 88.1084 60.674C90.1099 61.0493 89.2323 62.5573 87.7641 62.5573C86.574 62.5573 83.2122 63.3706 83.0248 63.4329C82.8369 63.4957 80.7232 66.2844 80.7232 66.2844C80.7232 66.2844 82.4163 64.3022 86.2947 63.1136C90.1726 61.925 91.111 62.2379 91.1738 63.301C91.1738 63.301 91.9996 63.292 92.2154 63.9915C92.478 64.8415 91.4863 65.6155 90.4856 66.1159C89.4848 66.6163 87.6904 67.4893 86.9398 67.8846C86.1892 68.2799 83.5165 69.6923 83.5165 69.6923C83.5165 69.6923 86.3313 68.7709 87.2637 68.4462C88.9285 67.8665 90.5668 67.7327 91.0026 68.4462C91.3491 69.0135 90.3979 69.6053 87.3506 70.6269L84.2432 72.9504C84.0543 73.1213 84.114 73.2161 83.9791 73.4319C83.4938 74.2093 82.2379 76.5283 80.1963 78.0223C77.6317 79.8987 74.9536 80.1894 74.9536 80.1894L71.6641 82.3308C71.6633 82.3311 70.8013 79.8768 69.5934 74.4977Z" fill="#FFBE9D"/>
<path d="M78.9877 67.2826C79.1929 66.9304 79.4178 66.5906 79.6967 66.2803C79.7685 66.2036 79.8422 66.128 79.9435 66.0649C79.9824 66.0335 80.0795 66.004 80.123 66.0014L80.2794 65.9836C80.4881 65.9697 80.6925 65.9685 80.9015 65.9749L80.8021 66.0105C81.5164 65.3139 82.2942 64.6915 83.1608 64.182C83.589 63.9284 84.0671 63.7164 84.5259 63.5479C84.9877 63.3702 85.4568 63.2134 85.9269 63.0607C86.8691 62.7618 87.8264 62.5029 88.8087 62.346C89.2992 62.2757 89.7981 62.1952 90.3083 62.2621C90.557 62.2969 90.8299 62.3698 91.0105 62.5754C91.1923 62.7871 91.1832 63.063 91.173 63.3014C91.1488 63.0603 91.1069 62.8003 90.9376 62.6438C90.7686 62.49 90.5264 62.4503 90.2932 62.4443C89.8208 62.4432 89.3393 62.5308 88.8665 62.6397C87.9209 62.8676 86.9874 63.1597 86.0611 63.4689C85.5974 63.6223 85.1393 63.7916 84.6812 63.9598C84.2156 64.1246 83.792 64.3113 83.3676 64.5482C82.9443 64.7769 82.538 65.0414 82.1396 65.3181C81.7405 65.5925 81.3486 65.8884 80.9824 66.2017L80.9348 66.2425L80.8826 66.2372C80.6865 66.2176 80.4847 66.2051 80.2878 66.2047H80.1407C80.0833 66.2078 80.0799 66.2081 80.0327 66.2293C79.9567 66.2644 79.8773 66.326 79.8036 66.3899C79.5073 66.6537 79.2466 66.97 78.9877 67.2826Z" fill="#E28A64"/>
<path d="M80.301 68.4462C80.473 68.0667 80.668 67.6929 80.9737 67.3811C81.0524 67.3067 81.1495 67.2349 81.264 67.1975C81.366 67.1642 81.4688 67.1366 81.5724 67.1128C81.7803 67.0641 81.9877 67.0316 82.2032 67.0134L82.1533 67.027C83.6113 66.2179 85.0876 65.4439 86.6076 64.7537C87.3654 64.4038 88.1322 64.0731 88.9168 63.776C89.3072 63.6233 89.7052 63.488 90.1126 63.3705C90.3155 63.3108 90.5188 63.2515 90.7343 63.2148C90.9383 63.1592 91.173 63.154 91.4025 63.1498L91.3896 63.1494C91.6099 63.1615 91.8012 63.2182 91.9886 63.3312C92.1704 63.4465 92.3174 63.6422 92.3605 63.8528C92.4074 64.067 92.3824 64.2587 92.3514 64.4457C92.3171 64.6355 92.2494 64.8248 92.1455 64.99C91.9304 65.3199 91.6152 65.5353 91.3042 65.7216C90.9894 65.9068 90.6594 66.0565 90.3257 66.1952C90.6371 66.0123 90.947 65.8267 91.2384 65.6207C91.5249 65.4117 91.7989 65.174 91.9531 64.8777C92.0328 64.7322 92.0797 64.5731 92.1001 64.4068C92.119 64.239 92.1258 64.0625 92.0839 63.9249C92.0109 63.6385 91.6908 63.4964 91.3919 63.4982L91.3786 63.4979C91.1923 63.5164 91.0109 63.5292 90.8117 63.5867C90.6175 63.6256 90.4229 63.6884 90.2286 63.7518C89.8401 63.8747 89.4553 64.0255 89.0714 64.1755C88.3026 64.4752 87.546 64.8153 86.7871 65.1494L84.5233 66.1865C83.7689 66.5334 83.0127 66.8804 82.2648 67.2409L82.2383 67.2538L82.2145 67.2545C82.015 67.2613 81.8086 67.2791 81.6072 67.3044C81.5063 67.3176 81.4057 67.3347 81.3071 67.357C81.2205 67.377 81.1416 67.4223 81.0626 67.4836C80.7583 67.7417 80.5214 68.0962 80.301 68.4462Z" fill="#E28A64"/>
<path d="M81.4613 70.5945C81.7372 70.2899 82.0104 69.983 82.3173 69.7041C82.3978 69.6394 82.4658 69.5559 82.5936 69.5212C82.7077 69.5 82.8127 69.5072 82.9182 69.5147C83.1279 69.5329 83.3313 69.5684 83.5365 69.6115L83.4904 69.613C84.4723 69.254 85.4636 68.924 86.4526 68.5861L87.9402 68.0888C88.436 67.9278 88.9394 67.7623 89.4799 67.6753C89.7497 67.6349 90.0339 67.6122 90.3314 67.6765C90.6299 67.7297 90.9221 67.9361 91.085 68.1882C91.1292 68.2543 91.1609 68.305 91.2014 68.3881C91.2422 68.4724 91.2626 68.5763 91.2565 68.6746C91.2445 68.8768 91.1435 69.0298 91.046 69.1466C90.8423 69.3809 90.6057 69.5295 90.368 69.6667C90.1333 69.7989 89.8729 69.9172 89.628 70.0053L88.8945 70.2808L87.4239 70.8228L87.4757 70.7944L84.3528 73.0972L84.4061 73.0344C83.826 74.0677 83.1786 75.0488 82.4462 75.9729C82.078 76.4324 81.679 76.8682 81.2481 77.2699C80.8188 77.6713 80.3452 78.0349 79.8157 78.2877C80.3188 77.9872 80.7572 77.5984 81.1582 77.1789C81.5599 76.7586 81.9178 76.2994 82.2621 75.8319C82.9477 74.8958 83.5543 73.8935 84.08 72.8662L84.0989 72.8296L84.1333 72.8035L87.2251 70.4592L87.2478 70.4418L87.2769 70.4305L88.7395 69.87L89.4727 69.5945C89.7202 69.5087 89.9376 69.4116 90.1598 69.291C90.3748 69.1727 90.5865 69.0348 90.7271 68.8741C90.7974 68.7951 90.8408 68.7112 90.8431 68.6496C90.8454 68.6183 90.8419 68.5892 90.8257 68.5559C90.8098 68.5215 90.7747 68.4592 90.7463 68.4172C90.5184 68.0336 90.0313 67.9833 89.5366 68.0601C89.0422 68.1288 88.5498 68.294 88.0468 68.4335L86.5448 68.8745L83.5422 69.7702L83.5172 69.7778L83.4957 69.7717C83.3018 69.7184 83.1022 69.6712 82.9038 69.6421C82.8056 69.6285 82.7035 69.6179 82.6143 69.6289C82.5391 69.6406 82.4556 69.7139 82.3766 69.7732C82.0622 70.0321 81.7594 70.3126 81.4613 70.5945Z" fill="#E28A64"/>
<path d="M128.441 120.721C128.333 119.742 127.35 116.447 126.83 115.357C126.802 115.299 126.766 115.234 126.726 115.167C126.782 114.492 127.404 113.681 127.13 113.07C126.677 112.054 124.925 110.282 124.925 110.282C124.925 110.282 125.272 109.177 125.009 108.809C124.746 108.441 122.588 103.662 122.022 102.617C121.456 101.573 121.048 100.763 119.741 99.1847C118.814 98.0668 116.533 94.5872 116.533 94.5872C116.533 94.5872 113.143 96.7837 110.229 99.3412C110.229 99.3412 114.15 102.932 114.082 104.111C114.014 105.29 112.989 107.415 112.593 109.166C112.197 110.918 111.799 112.908 110.874 114.163C109.95 115.417 109.094 116.989 111.145 116.745C113.197 116.502 113.532 115.213 113.867 113.925C114.202 112.636 114.594 111.362 115.631 111.513C116.669 111.663 119.62 115.721 120.174 116.583C120.7 117.402 121.016 122.28 123.393 122.068C123.7 122.041 123.966 121.859 123.927 121.553C123.78 120.396 123.976 117.522 121.312 113.203C121.312 113.203 123.465 114.779 124.201 115.628C124.915 116.453 125.769 121.224 128.164 121.041C128.331 121.029 128.459 120.887 128.441 120.721Z" fill="#FFBE9D"/>
<path d="M126.726 115.167L125.984 114.081C125.861 113.903 125.735 113.728 125.601 113.565C125.536 113.484 125.468 113.406 125.399 113.336C125.364 113.3 125.328 113.273 125.294 113.241L125.163 113.143C124.469 112.61 123.796 112.054 123.149 111.463L123.113 111.431L123.103 111.408C122.9 110.926 122.707 110.439 122.55 109.935C122.86 110.363 123.133 110.809 123.397 111.261L123.352 111.205C124.071 111.713 124.765 112.256 125.438 112.82L125.563 112.929C125.606 112.974 125.653 113.018 125.692 113.064C125.771 113.155 125.839 113.249 125.905 113.344C126.029 113.536 126.138 113.732 126.239 113.93C126.435 114.33 126.601 114.74 126.726 115.167Z" fill="#E28A64"/>
<path d="M121.312 113.203C121.217 112.958 121.158 112.717 121.102 112.482C121.069 112.366 121.049 112.248 121.014 112.148C120.971 112.026 120.986 112.047 120.884 111.963C120.716 111.819 120.512 111.676 120.328 111.515C120.139 111.356 119.955 111.188 119.789 110.983C120.049 111.028 120.286 111.116 120.514 111.223C120.744 111.33 120.957 111.453 121.17 111.624C121.22 111.669 121.279 111.719 121.339 111.811C121.395 111.912 121.406 111.977 121.421 112.05C121.441 112.19 121.452 112.317 121.445 112.447C121.438 112.703 121.401 112.955 121.312 113.203Z" fill="#E28A64"/>
<path d="M124.925 110.282C124.632 110.11 124.409 109.881 124.203 109.638C124.003 109.39 123.821 109.127 123.708 108.806C124.001 108.978 124.225 109.207 124.43 109.45C124.63 109.699 124.812 109.962 124.925 110.282Z" fill="#E28A64"/>
<path d="M101.197 140L89.1813 123.556C88.8635 123.121 88.7086 122.588 88.7433 122.051L88.8193 120.875L113.407 118.099L101.197 140Z" fill="#455A64"/>
<path d="M109.265 121.286L93.7691 123.071L104.981 137.71L109.265 121.286Z" fill="#304349"/>
<path d="M169.647 90.9066L168.59 90.1764C167.899 89.6821 167.056 89.4482 166.209 89.5162L105.546 94.3878C104.741 94.4524 104.097 95.0839 104.018 95.8878L100.052 135.938L88.8193 120.876L88.7369 122.149C88.7063 122.624 88.8431 123.094 89.1235 123.478L100.253 138.708L101.197 140L169.647 90.9066Z" fill="#263238"/>
<path d="M163.592 131.151L101.197 140L105.94 97.2346C106.028 96.4417 106.664 95.8219 107.459 95.7546L168.533 90.5947C169.613 90.5036 170.487 91.4575 170.301 92.5248L163.592 131.151Z" fill="#455A64"/>
<path d="M134.425 114.723C133.847 116.746 134.036 119.07 135.93 119.611C137.824 120.153 139.827 118.951 140.406 116.928C140.984 114.905 140.795 112.58 138.9 112.039C137.006 111.498 135.002 112.7 134.425 114.723Z" fill="#F5F5F5"/>
<path d="M78.3871 123.254C78.3871 119.5 75.3444 116.458 71.5911 116.458C70.4785 116.458 69.4316 116.73 68.5045 117.204C67.2483 114.67 64.6424 112.923 61.622 112.923C57.3774 112.923 53.9363 116.364 53.9363 120.609C53.9363 120.659 53.9427 120.707 53.9439 120.757C53.5731 120.664 53.1869 120.609 52.787 120.609C50.1804 120.609 48.067 122.722 48.067 125.329C48.067 127.936 50.1804 130.049 52.787 130.049H72.5322L72.4838 129.983C75.8142 129.546 78.3871 126.703 78.3871 123.254Z" fill="white"/>
</svg>
