<svg width="122" height="120" viewBox="0 0 122 120" fill="none" xmlns="http://www.w3.org/2000/svg">
<path d="M121.003 60.192L99.5458 49.5231L95.7919 75.4301L121.003 60.192Z" fill="#FF7F00"/>
<path d="M0 83.8529L13.994 94.7774L19.1465 75.4302L0 83.8529Z" fill="#FF7F00"/>
<path d="M115.777 13.1572L108.382 91.7123L58.488 120L8.58583 91.7123L1.19135 13.1572L58.488 0L115.777 13.1572Z" fill="#C42026"/>
<mask id="mask0_991_400" style="mask-type:luminance" maskUnits="userSpaceOnUse" x="1" y="0" width="115" height="120">
<path d="M115.777 13.1572L108.382 91.7123L58.488 120L8.58583 91.7123L1.19135 13.1572L58.488 0L115.777 13.1572Z" fill="white"/>
</mask>
<g mask="url(#mask0_991_400)">
<path opacity="0.12" d="M11.3455 -24.1373V119.545" stroke="white" stroke-width="8.66457" stroke-miterlimit="10"/>
</g>
<mask id="mask1_991_400" style="mask-type:luminance" maskUnits="userSpaceOnUse" x="1" y="0" width="115" height="120">
<path d="M115.777 13.1572L108.382 91.7123L58.488 120L8.58583 91.7123L1.19135 13.1572L58.488 0L115.777 13.1572Z" fill="white"/>
</mask>
<g mask="url(#mask1_991_400)">
<path opacity="0.12" d="M34.9146 -24.1373V119.545" stroke="white" stroke-width="8.66457" stroke-miterlimit="10"/>
</g>
<mask id="mask2_991_400" style="mask-type:luminance" maskUnits="userSpaceOnUse" x="1" y="0" width="115" height="120">
<path d="M115.777 13.1572L108.382 91.7123L58.488 120L8.58583 91.7123L1.19135 13.1572L58.488 0L115.777 13.1572Z" fill="white"/>
</mask>
<g mask="url(#mask2_991_400)">
<path opacity="0.12" d="M58.4844 -24.1373V119.545" stroke="white" stroke-width="8.66457" stroke-miterlimit="10"/>
</g>
<mask id="mask3_991_400" style="mask-type:luminance" maskUnits="userSpaceOnUse" x="1" y="0" width="115" height="120">
<path d="M115.777 13.1572L108.382 91.7123L58.488 120L8.58583 91.7123L1.19135 13.1572L58.488 0L115.777 13.1572Z" fill="white"/>
</mask>
<g mask="url(#mask3_991_400)">
<path opacity="0.12" d="M82.0541 -24.1373V119.545" stroke="white" stroke-width="8.66457" stroke-miterlimit="10"/>
</g>
<mask id="mask4_991_400" style="mask-type:luminance" maskUnits="userSpaceOnUse" x="1" y="0" width="115" height="120">
<path d="M115.777 13.1572L108.382 91.7123L58.488 120L8.58583 91.7123L1.19135 13.1572L58.488 0L115.777 13.1572Z" fill="white"/>
</mask>
<g mask="url(#mask4_991_400)">
<path opacity="0.12" d="M105.623 -24.1373V119.545" stroke="white" stroke-width="8.66457" stroke-miterlimit="10"/>
</g>
<path opacity="0.5" d="M8.58578 91.7123L109.005 85.1034L112.071 71.8177L7.04639 79.6613L8.58578 91.7123Z" fill="#A30006"/>
<path d="M121.148 82.1083L0 83.8528V63.3647L121.003 60.192L121.148 82.1083Z" fill="#FFCA00"/>
<path d="M8.49063 75V70.456H6.69863V69.4H11.5786V70.456H9.78663V75H8.49063ZM12.2759 75V69.4H13.5719V75H12.2759ZM14.9009 75V69.4H15.9729L18.3569 73.352H17.7889L20.1329 69.4H21.1969L21.2129 75H19.9969L19.9889 71.264H20.2129L18.3409 74.408H17.7569L15.8449 71.264H16.1169V75H14.9009ZM24.8072 75V69.4H27.3512C27.9592 69.4 28.4952 69.5173 28.9592 69.752C29.4232 69.9813 29.7859 70.304 30.0472 70.72C30.3085 71.136 30.4392 71.6293 30.4392 72.2C30.4392 72.7653 30.3085 73.2587 30.0472 73.68C29.7859 74.096 29.4232 74.4213 28.9592 74.656C28.4952 74.8853 27.9592 75 27.3512 75H24.8072ZM26.1032 73.936H27.2872C27.6605 73.936 27.9832 73.8667 28.2552 73.728C28.5325 73.584 28.7459 73.3813 28.8952 73.12C29.0499 72.8587 29.1272 72.552 29.1272 72.2C29.1272 71.8427 29.0499 71.536 28.8952 71.28C28.7459 71.0187 28.5325 70.8187 28.2552 70.68C27.9832 70.536 27.6605 70.464 27.2872 70.464H26.1032V73.936ZM32.6086 71.656H35.3046V72.664H32.6086V71.656ZM32.7046 73.96H35.7526V75H31.4166V69.4H35.6486V70.44H32.7046V73.96ZM38.3856 75L35.9696 69.4H37.3696L39.4816 74.36H38.6576L40.8016 69.4H42.0896L39.6656 75H38.3856ZM43.7492 71.656H46.4452V72.664H43.7492V71.656ZM43.8452 73.96H46.8932V75H42.5572V69.4H46.7892V70.44H43.8452V73.96ZM47.9244 75V69.4H49.2204V73.944H52.0284V75H47.9244ZM55.3788 75.096C54.9361 75.096 54.5254 75.024 54.1468 74.88C53.7734 74.736 53.4481 74.5333 53.1708 74.272C52.8988 74.0107 52.6854 73.704 52.5308 73.352C52.3814 73 52.3068 72.616 52.3068 72.2C52.3068 71.784 52.3814 71.4 52.5308 71.048C52.6854 70.696 52.9014 70.3893 53.1788 70.128C53.4561 69.8667 53.7814 69.664 54.1548 69.52C54.5281 69.376 54.9334 69.304 55.3708 69.304C55.8134 69.304 56.2188 69.376 56.5868 69.52C56.9601 69.664 57.2828 69.8667 57.5548 70.128C57.8321 70.3893 58.0481 70.696 58.2028 71.048C58.3574 71.3947 58.4348 71.7787 58.4348 72.2C58.4348 72.616 58.3574 73.0027 58.2028 73.36C58.0481 73.712 57.8321 74.0187 57.5548 74.28C57.2828 74.536 56.9601 74.736 56.5868 74.88C56.2188 75.024 55.8161 75.096 55.3788 75.096ZM55.3708 73.992C55.6214 73.992 55.8508 73.9493 56.0588 73.864C56.2721 73.7787 56.4588 73.656 56.6188 73.496C56.7788 73.336 56.9014 73.1467 56.9868 72.928C57.0774 72.7093 57.1228 72.4667 57.1228 72.2C57.1228 71.9333 57.0774 71.6907 56.9868 71.472C56.9014 71.2533 56.7788 71.064 56.6188 70.904C56.4641 70.744 56.2801 70.6213 56.0668 70.536C55.8534 70.4507 55.6214 70.408 55.3708 70.408C55.1201 70.408 54.8881 70.4507 54.6748 70.536C54.4668 70.6213 54.2828 70.744 54.1228 70.904C53.9628 71.064 53.8374 71.2533 53.7468 71.472C53.6614 71.6907 53.6188 71.9333 53.6188 72.2C53.6188 72.4613 53.6614 72.704 53.7468 72.928C53.8374 73.1467 53.9601 73.336 54.1148 73.496C54.2748 73.656 54.4614 73.7787 54.6748 73.864C54.8881 73.9493 55.1201 73.992 55.3708 73.992ZM59.4088 75V69.4H61.8328C62.3341 69.4 62.7661 69.4827 63.1288 69.648C63.4914 69.808 63.7714 70.04 63.9688 70.344C64.1661 70.648 64.2648 71.0107 64.2648 71.432C64.2648 71.848 64.1661 72.208 63.9688 72.512C63.7714 72.816 63.4914 73.0507 63.1288 73.216C62.7661 73.376 62.3341 73.456 61.8328 73.456H60.1288L60.7048 72.872V75H59.4088ZM60.7048 73.016L60.1288 72.4H61.7608C62.1608 72.4 62.4594 72.3147 62.6568 72.144C62.8541 71.9733 62.9528 71.736 62.9528 71.432C62.9528 71.1227 62.8541 70.8827 62.6568 70.712C62.4594 70.5413 62.1608 70.456 61.7608 70.456H60.1288L60.7048 69.84V73.016ZM66.382 71.656H69.078V72.664H66.382V71.656ZM66.478 73.96H69.526V75H65.19V69.4H69.422V70.44H66.478V73.96ZM70.5572 75V69.4H72.9812C73.4825 69.4 73.9145 69.4827 74.2772 69.648C74.6399 69.808 74.9199 70.04 75.1172 70.344C75.3145 70.648 75.4132 71.0107 75.4132 71.432C75.4132 71.848 75.3145 72.208 75.1172 72.512C74.9199 72.8107 74.6399 73.04 74.2772 73.2C73.9145 73.36 73.4825 73.44 72.9812 73.44H71.2772L71.8532 72.872V75H70.5572ZM74.1172 75L72.7172 72.968H74.1012L75.5172 75H74.1172ZM71.8532 73.016L71.2772 72.408H72.9092C73.3092 72.408 73.6079 72.3227 73.8052 72.152C74.0025 71.976 74.1012 71.736 74.1012 71.432C74.1012 71.1227 74.0025 70.8827 73.8052 70.712C73.6079 70.5413 73.3092 70.456 72.9092 70.456H71.2772L71.8532 69.84V73.016ZM82.5456 69.4H83.8416V75H82.5456V69.4ZM80.0016 75H78.7056V69.4H80.0016V75ZM82.6416 72.704H79.9056V71.608H82.6416V72.704ZM84.4306 75L86.9266 69.4H88.2066L90.7106 75H89.3506L87.3026 70.056H87.8146L85.7586 75H84.4306ZM85.6786 73.8L86.0226 72.816H88.9026L89.2546 73.8H85.6786ZM91.2916 75V69.4H92.3636L95.6676 73.432H95.1476V69.4H96.4276V75H95.3636L92.0516 70.968H92.5716V75H91.2916ZM97.7525 75V69.4H100.297C100.905 69.4 101.441 69.5173 101.905 69.752C102.369 69.9813 102.731 70.304 102.993 70.72C103.254 71.136 103.385 71.6293 103.385 72.2C103.385 72.7653 103.254 73.2587 102.993 73.68C102.731 74.096 102.369 74.4213 101.905 74.656C101.441 74.8853 100.905 75 100.297 75H97.7525ZM99.0485 73.936H100.233C100.606 73.936 100.929 73.8667 101.201 73.728C101.478 73.584 101.691 73.3813 101.841 73.12C101.995 72.8587 102.073 72.552 102.073 72.2C102.073 71.8427 101.995 71.536 101.841 71.28C101.691 71.0187 101.478 70.8187 101.201 70.68C100.929 70.536 100.606 70.464 100.233 70.464H99.0485V73.936ZM103.548 75L106.044 69.4H107.324L109.828 75H108.468L106.42 70.056H106.932L104.876 75H103.548ZM104.796 73.8L105.14 72.816H108.02L108.372 73.8H104.796ZM110.409 75V69.4H111.705V73.944H114.513V75H110.409Z" fill="#1A1A1A"/>
<path d="M21.4484 34.9484V20.3919H30.9506V22.9595H24.198V26.073H29.7375V28.6406H24.198V32.3808H30.9506V34.9484H21.4484ZM32.1604 34.9484L37.053 27.5893L32.302 20.3919H35.6783L38.7715 25.244L41.8243 20.3919H45.2208L40.4698 27.5893L45.3422 34.9484H41.9659L38.7715 29.9345L35.557 34.9484H32.1604ZM46.957 34.9484V20.3919H53.1031C53.2446 20.3919 53.4333 20.3986 53.6692 20.4121C53.9118 20.4188 54.1274 20.4391 54.3161 20.4728C55.1855 20.6075 55.8964 20.8939 56.449 21.332C57.0084 21.77 57.4195 22.3226 57.6823 22.9898C57.9451 23.6502 58.0765 24.3882 58.0765 25.2036C58.0765 26.019 57.9418 26.7603 57.6722 27.4275C57.4094 28.0879 56.9983 28.6372 56.4389 29.0752C55.8863 29.5133 55.1787 29.7997 54.3161 29.9345C54.1274 29.9614 53.9118 29.9816 53.6692 29.9951C53.4266 30.0086 53.2379 30.0153 53.1031 30.0153H49.7066V34.9484H46.957ZM49.7066 27.4477H52.9818C53.1233 27.4477 53.2783 27.441 53.4468 27.4275C53.6153 27.414 53.7703 27.3871 53.9118 27.3466C54.2824 27.2456 54.5688 27.0771 54.771 26.8412C54.9732 26.5986 55.1113 26.3324 55.1855 26.0426C55.2663 25.7461 55.3068 25.4664 55.3068 25.2036C55.3068 24.9408 55.2663 24.6645 55.1855 24.3747C55.1113 24.0782 54.9732 23.812 54.771 23.5761C54.5688 23.3335 54.2824 23.1617 53.9118 23.0606C53.7703 23.0201 53.6153 22.9932 53.4468 22.9797C53.2783 22.9662 53.1233 22.9595 52.9818 22.9595H49.7066V27.4477ZM60.1062 34.9484V20.3919H69.6083V22.9595H62.8557V26.073H68.3953V28.6406H62.8557V32.3808H69.6083V34.9484H60.1062ZM72.0312 34.9484V20.3919H78.1773C78.3188 20.3919 78.5075 20.3986 78.7434 20.4121C78.986 20.4188 79.2017 20.4391 79.3904 20.4728C80.2597 20.6075 80.9707 20.8939 81.5233 21.332C82.0826 21.77 82.4937 22.3226 82.7565 22.9898C83.0194 23.6502 83.1508 24.3882 83.1508 25.2036C83.1508 26.4234 82.8475 27.4679 82.241 28.3373C81.6345 29.1999 80.6843 29.7323 79.3904 29.9345L78.1773 30.0153H74.7808V34.9484H72.0312ZM80.2395 34.9484L77.3686 29.0247L80.199 28.4788L83.353 34.9484H80.2395ZM74.7808 27.4477H78.056C78.1975 27.4477 78.3525 27.441 78.521 27.4275C78.6895 27.414 78.8445 27.3871 78.986 27.3466C79.3567 27.2456 79.6431 27.0771 79.8452 26.8412C80.0474 26.5986 80.1856 26.3324 80.2597 26.0426C80.3406 25.7461 80.381 25.4664 80.381 25.2036C80.381 24.9408 80.3406 24.6645 80.2597 24.3747C80.1856 24.0782 80.0474 23.812 79.8452 23.5761C79.6431 23.3335 79.3567 23.1617 78.986 23.0606C78.8445 23.0201 78.6895 22.9932 78.521 22.9797C78.3525 22.9662 78.1975 22.9595 78.056 22.9595H74.7808V27.4477ZM88.9516 34.9484V22.9595H84.3622V20.3919H96.2905V22.9595H91.7011V34.9484H88.9516Z" fill="white"/>
<path d="M38.5811 53.6099V43.3337H34.6474V41.1329H44.8716V43.3337H40.9379V53.6099H38.5811ZM46.264 53.6099V41.1329H54.4087V43.3337H48.6208V46.0024H53.369V48.2032H48.6208V51.4091H54.4087V53.6099H46.264ZM55.6191 53.6099L59.4315 41.1329H62.9493L66.7617 53.6099H64.3356L60.9391 42.6059H61.3897L58.0451 53.6099H55.6191ZM57.9065 51.0105V48.8097H64.4916V51.0105H57.9065ZM68.3147 53.6099V41.1329H70.4289L74.5532 49.4162L78.6775 41.1329H80.7917V53.6099H78.5909V46.1583L74.9691 53.6099H74.1373L70.5155 46.1583V53.6099H68.3147Z" fill="white"/>
<path d="M46.027 88.0414L47.1425 90.3014L49.6372 90.666L47.8321 92.4242L48.2581 94.9081L46.027 93.7347L43.7959 94.9081L44.2219 92.4242L42.4167 90.666L44.9114 90.3014L46.027 88.0414Z" fill="#FFCA00"/>
<path d="M35.9182 88.0414L37.0338 90.3014L39.5285 90.666L37.7233 92.4242L38.1493 94.9081L35.9182 93.7347L33.6871 94.9081L34.1131 92.4242L32.308 90.666L34.8027 90.3014L35.9182 88.0414Z" fill="#FFCA00"/>
<path d="M56.8576 88.0414L57.9731 90.3014L60.4678 90.666L58.6627 92.4242L59.0887 94.9081L56.8576 93.7347L54.6264 94.9081L55.0524 92.4242L53.2473 90.666L55.742 90.3014L56.8576 88.0414Z" fill="#FFCA00"/>
<path d="M79.9631 88.0414L81.0787 90.3014L83.5734 90.666L81.7683 92.4242L82.1943 94.9081L79.9631 93.7347L77.732 94.9081L78.158 92.4242L76.3529 90.666L78.8476 90.3014L79.9631 88.0414Z" fill="#FFCA00"/>
<g clip-path="url(#clip0_991_400)">
<path d="M68.4104 88.0414L69.526 90.3014L72.0206 90.666L70.2155 92.4242L70.6415 94.9081L68.4104 93.7347L66.1793 94.9081L66.6053 92.4242L64.8002 90.666L67.2948 90.3014L68.4104 88.0414Z" fill="#FFCA00"/>
</g>
<defs>
<clipPath id="clip0_991_400">
<rect width="8.66457" height="8.66457" fill="white" transform="translate(64.0781 87.3193)"/>
</clipPath>
</defs>
</svg>
