<svg width="206" height="140" viewBox="0 0 206 140" fill="none" xmlns="http://www.w3.org/2000/svg">
<path d="M19.5094 139.831H181.664V139.676L196.148 139.831C202.654 133.622 205.589 121.136 205.491 108.747C205.421 99.9805 203.834 91.2645 200.918 84.8559C200.295 83.4878 199.612 82.2244 198.87 81.0886C183.534 57.6097 177.755 62.1158 169.724 53.8498C161.695 45.5846 170.176 15.2176 147.322 3.578C124.468 -8.06165 93.585 11.844 81.0772 18.5913C68.5694 25.3386 63.11 18.3818 55.4438 18.2542C36.6239 17.94 22.5091 22.8667 10.7729 45.3024C-0.96252 67.738 -3.44101 110.548 4.97391 127.933C8.95307 136.152 19.5094 139.831 19.5094 139.831Z" fill="#FFECD9"/>
<path d="M19.0919 71.611L19.5216 72.9961L21.6278 72.7449C22.0738 73.5049 22.6347 74.1738 23.2816 74.7347L22.6501 76.7593L23.9334 77.4348L25.2166 78.1102L26.5281 76.4436C27.3568 76.6594 28.2257 76.7431 29.1047 76.6806L30.0898 78.5591L31.4749 78.1293L32.8599 77.6996L32.6088 75.5934C33.3688 75.1474 34.0377 74.5864 34.5986 73.9395L36.6233 74.5711L37.2987 73.2879L37.9742 72.0046L36.3075 70.6931C36.5233 69.8645 36.607 68.9956 36.5445 68.1165L38.423 67.1313L37.9933 65.7463L37.5635 64.3613L35.4573 64.6125C35.0113 63.8525 34.4504 63.1836 33.8035 62.6227L34.4351 60.5981L33.1518 59.9226L31.8686 59.2472L30.5571 60.9138C29.7284 60.6981 28.8595 60.6143 27.9805 60.6768L26.9953 58.7983L25.6102 59.2281L24.2252 59.6578L24.4763 61.764C23.7163 62.21 23.0474 62.771 22.4865 63.4179L20.4619 62.7863L19.7864 64.0695L19.1109 65.3528L20.7776 66.6644C20.5618 67.493 20.4781 68.3619 20.5406 69.241L18.6621 70.2261L19.0919 71.611ZM26.9304 63.4826C29.8001 62.5922 32.8483 64.1968 33.7387 67.0665C34.6291 69.9362 33.0245 72.9844 30.1547 73.8747C27.285 74.7652 24.2368 73.1606 23.3464 70.2909C22.4561 67.4212 24.0607 64.373 26.9304 63.4826Z" fill="#FD7583"/>
<path d="M54.8717 41.624L54.6202 43.8692L54.3688 46.1144L57.5318 47.0711C57.6939 48.4343 58.0768 49.7392 58.6499 50.9438L56.4842 53.4392L57.8939 55.2046L59.3037 56.9699L62.2163 55.41C63.2642 56.2355 64.4521 56.8975 65.7458 57.3572L65.979 60.6535L68.2241 60.9049L70.4692 61.1564L71.4258 57.9934C72.7891 57.8313 74.0941 57.4485 75.2986 56.8754L77.794 59.041L79.5593 57.6313L81.3247 56.2215L79.7648 53.3088C80.5903 52.2609 81.2523 51.073 81.712 49.7794L85.0083 49.5462L85.2597 47.301L85.5112 45.0559L82.3482 44.0992C82.1861 42.7359 81.8032 41.431 81.2301 40.2264L83.3958 37.7311L81.986 35.9657L80.5763 34.2003L77.6637 35.7603C76.6158 34.9348 75.4278 34.2728 74.1342 33.8131L73.9011 30.5168L71.6559 30.2654L69.4108 30.0139L68.4541 33.1769C67.0908 33.339 65.7859 33.7218 64.5813 34.2949L62.086 32.1293L60.3206 33.539L58.5552 34.9488L60.1151 37.8615C59.2897 38.9094 58.6276 40.0972 58.1679 41.3909L54.8717 41.624ZM61.5171 44.6417C62.0382 39.9899 66.2317 36.6412 70.8836 37.1623C75.5354 37.6833 78.8841 41.8768 78.3631 46.5287C77.842 51.1806 73.6485 54.5293 68.9966 54.0082C64.3447 53.4871 60.996 49.2936 61.5171 44.6417Z" fill="#FEC786"/>
<path d="M90.451 85.7664L73.4319 80.2007L72.3519 80.5406L87.647 134.753H103.877L90.451 85.7664Z" fill="#0B2A3F"/>
<path opacity="0.1" d="M92.9253 94.1018L73.4879 85.2065L75.1532 91.0076L94.5393 99.8795L92.9253 94.1018Z" fill="white"/>
<path opacity="0.1" d="M100.851 124.798L82.8616 117.136L84.4267 122.842L102.368 130.483L100.851 124.798Z" fill="white"/>
<path opacity="0.1" d="M96.7814 109.769L78.4164 101.379L79.2089 104.261L97.5493 112.64L96.7814 109.769Z" fill="white"/>
<path opacity="0.1" d="M98.1293 114.804L79.8065 106.434L80.0768 107.416L98.3907 115.782L98.1293 114.804Z" fill="white"/>
<path d="M89.6315 139.831H155.315C156.141 139.831 156.964 139.701 157.743 139.426C158.008 139.333 158.239 139.23 158.365 139.129C159.618 138.118 159.946 137.408 159.975 136.287H160.756C161.31 136.287 161.76 135.838 161.76 135.283C161.76 134.729 161.31 134.279 160.756 134.279H104.051L90.8637 85.8529C90.7847 85.5629 90.5645 85.3326 90.2784 85.2406L73.1507 79.7354H71.8522C71.2926 79.7354 70.8872 80.2689 71.037 80.808L86.539 136.577C86.9645 138.109 88.1238 139.328 89.6315 139.831ZM90.0587 85.8781L103.297 134.28H88.2208L73.4319 80.7534L90.0587 85.8781Z" fill="#4D779F"/>
<path d="M96.6752 136.718H94.2217V137.355H96.6752V136.718Z" fill="#1F2B49"/>
<path d="M101.041 136.718H98.5872V137.355H101.041V136.718Z" fill="#1F2B49"/>
<path d="M105.406 136.718H102.953V137.355H105.406V136.718Z" fill="#1F2B49"/>
<path d="M144.504 136.718H142.051V137.355H144.504V136.718Z" fill="#1F2B49"/>
<path d="M148.151 137.669C148.448 137.372 148.448 136.892 148.151 136.595C147.855 136.299 147.374 136.299 147.077 136.595C146.781 136.892 146.781 137.372 147.077 137.669C147.374 137.965 147.855 137.965 148.151 137.669Z" fill="#1F2B49"/>
<path d="M148.102 137.132C148.102 136.864 147.884 136.646 147.616 136.646C147.348 136.646 147.131 136.864 147.131 137.132C147.131 137.4 147.348 137.617 147.616 137.617C147.884 137.617 148.102 137.4 148.102 137.132Z" fill="#1D1D1B"/>
<path d="M153.743 137.669C154.04 137.372 154.04 136.892 153.743 136.595C153.447 136.299 152.966 136.299 152.67 136.595C152.373 136.892 152.373 137.372 152.67 137.669C152.966 137.965 153.447 137.965 153.743 137.669Z" fill="#1F2B49"/>
<path d="M153.694 137.132C153.694 136.864 153.477 136.646 153.209 136.646C152.94 136.646 152.723 136.864 152.723 137.132C152.723 137.4 152.94 137.617 153.209 137.617C153.477 137.617 153.694 137.4 153.694 137.132Z" fill="#1D1D1B"/>
<path d="M90.7485 137.132C90.7485 136.604 90.3204 136.176 89.7925 136.176C89.2646 136.176 88.8365 136.604 88.8365 137.132C88.8365 137.66 89.2646 138.088 89.7925 138.088C90.3204 138.088 90.7485 137.66 90.7485 137.132Z" fill="#1F2B49"/>
<path d="M89.9274 137.726C90.256 137.648 90.4597 137.319 90.3824 136.991C90.3051 136.662 89.9761 136.459 89.6475 136.536C89.319 136.613 89.1153 136.942 89.1926 137.271C89.2699 137.599 89.5989 137.803 89.9274 137.726Z" fill="#1D1D1B"/>
<path d="M105.027 134.279L104.524 133.352C104.358 133.046 104.038 132.856 103.691 132.856H102.886H102.669H101.864C101.516 132.856 101.196 133.046 101.031 133.352L100.527 134.279H102.669H102.886H105.027Z" fill="#2F5472"/>
<path d="M112.186 134.279L111.683 133.352C111.517 133.046 111.197 132.856 110.85 132.856H110.045H109.828H109.023C108.675 132.856 108.355 133.046 108.19 133.352L107.686 134.279H109.828H110.045H112.186Z" fill="#2F5472"/>
<path d="M115.674 134.279H117.816L117.312 133.352C117.146 133.046 116.827 132.856 116.479 132.856H115.674H115.457H114.652C114.304 132.856 113.985 133.046 113.819 133.352L113.315 134.279H115.457H115.674Z" fill="#2F5472"/>
<path d="M123.445 134.279L122.942 133.352C122.776 133.046 122.456 132.856 122.109 132.856H121.304H121.087H120.281C119.934 132.856 119.614 133.046 119.448 133.352L118.945 134.279H121.087H121.303H123.445Z" fill="#2F5472"/>
<path d="M129.075 134.279L128.571 133.352C128.405 133.046 128.086 132.856 127.738 132.856H126.933H126.716H125.911C125.563 132.856 125.244 133.046 125.078 133.352L124.574 134.279H126.716H126.933H129.075Z" fill="#2F5472"/>
<path d="M134.704 134.279L134.2 133.352C134.035 133.046 133.715 132.856 133.368 132.856H132.562H132.345H131.54C131.193 132.856 130.873 133.046 130.707 133.352L130.204 134.279H132.345H132.562H134.704Z" fill="#2F5472"/>
<path d="M140.333 134.279L139.83 133.352C139.664 133.046 139.344 132.856 138.997 132.856H138.192H137.975H137.17C136.822 132.856 136.503 133.046 136.337 133.352L135.833 134.279H137.975H138.192H140.333Z" fill="#2F5472"/>
<path d="M31.4202 39.0367L30.0204 38.9039L29.7578 39.8287L29.4952 40.7534L30.7558 41.3761C30.7285 41.9596 30.798 42.5341 30.9543 43.0797L29.8708 43.9756L30.339 44.8151L30.8072 45.6546L32.1388 45.2037C32.5208 45.6234 32.9731 45.9844 33.4839 46.2678L33.3512 47.6676L34.2759 47.9302L35.2006 48.1928L35.8234 46.9322C36.4069 46.9595 36.9814 46.8901 37.527 46.7338L38.4228 47.8173L39.2623 47.3491L40.1018 46.8809L39.6509 45.5493C40.0707 45.1672 40.4316 44.7149 40.715 44.2042L42.1148 44.3369L42.3774 43.4122L42.64 42.4875L41.3794 41.8647C41.4067 41.2812 41.3373 40.7067 41.181 40.1611L42.2645 39.2653L41.7963 38.4258L41.3281 37.5862L39.9965 38.0372C39.6144 37.6174 39.1622 37.2565 38.6514 36.973L38.7841 35.5733L37.8594 35.3107L36.9347 35.0481L36.3119 36.3087C35.7284 36.2814 35.1539 36.3508 34.6083 36.507L33.7125 35.4236L32.873 35.8918L32.0335 36.36L32.4844 37.6915C32.0646 38.0736 31.7036 38.5259 31.4202 39.0367ZM32.5985 40.6353C33.1425 38.7194 35.1368 37.6072 37.0528 38.1512C38.9687 38.6953 40.0809 40.6895 39.5368 42.6055C38.9928 44.5214 36.9985 45.6336 35.0825 45.0895C33.1665 44.5456 32.0544 42.5513 32.5985 40.6353Z" fill="#7FC6A6"/>
<path d="M200.745 139.503H13.3828V140H200.745V139.503Z" fill="#0B2A3F"/>
<path opacity="0.5" d="M100.12 92.801C100.12 92.801 101.606 100.404 110.272 98.819C110.272 98.819 111.153 106.649 116.791 107.277C122.429 107.905 123.96 105.227 123.96 105.227C123.96 105.227 130.232 112.977 136.587 106.76C142.941 100.544 135.849 94.6852 135.849 94.6852C135.849 94.6852 141.956 92.7348 141.477 88.0704C140.998 83.406 136.655 81.6595 136.655 81.6595L144.624 53.825L137.23 50.2959L123.944 70.843C123.944 70.843 118.59 67.2396 113.207 70.1299C107.825 73.0203 108.912 81.3505 108.912 81.3505C108.912 81.3505 97.8535 82.8629 100.12 92.801Z" fill="white"/>
<path d="M140.379 72.4976L135.732 66.3373L128.101 65.1899C128.101 65.1899 114.685 70.6955 120.56 91.8293C141.938 86.9154 140.379 72.4976 140.379 72.4976Z" fill="#F4AA5B"/>
<path d="M137.695 72.4394L134.568 68.2934L129.432 67.5212C129.432 67.5212 120.403 71.2265 124.357 85.45C138.744 82.1428 137.695 72.4394 137.695 72.4394Z" fill="#FEC786"/>
<path opacity="0.5" d="M135.732 66.3374L133.19 66.5825C133.19 66.5825 127.961 70.4576 127.874 79.541C135.816 75.1329 136.729 68.6888 136.729 68.6888L135.732 66.3374Z" fill="white"/>
<path d="M155.154 88.2953C157.88 85.8965 159.744 82.729 160.503 79.1753C161.433 74.8209 162.048 68.5431 160.314 61.8667C157.109 49.5329 146.003 72.4506 146.003 72.4506C146.003 72.4506 156.665 77.2422 155.154 88.2953Z" fill="#E54C63"/>
<path d="M125.46 60.2243C125.46 60.2243 140.308 39.5338 127.939 42.5985C121.243 44.2575 116.019 47.7925 112.635 50.6863C109.873 53.048 107.978 56.1967 107.169 59.7365C116.164 53.1376 125.46 60.2243 125.46 60.2243Z" fill="#E54C63"/>
<path d="M143.133 76.3274C143.133 76.3274 155.552 71.5558 165.943 52.2631C176.333 32.9703 172.732 18.8315 170.327 8.1958C159.832 11.1541 145.699 14.738 133.696 33.0711C121.693 51.4043 123.421 64.5961 123.421 64.5961L133.277 70.4617L143.133 76.3274Z" fill="#FD7583"/>
<path d="M131.162 74.0159L144.126 52.2327C144.126 52.2327 130.79 61.588 131.162 74.0159Z" fill="#E54C63"/>
<path d="M165.943 52.2631C176.309 33.0149 172.748 18.8972 170.344 8.27002L133.316 70.4851L143.133 76.3275C143.133 76.3275 155.552 71.556 165.943 52.2631Z" fill="#FD7583"/>
<path d="M170.327 8.1958C163.191 10.2071 154.374 12.5096 145.687 19.5388C149.519 23.787 158.154 31.6838 172.067 35.5349C174.185 24.4218 171.975 15.4857 170.327 8.1958Z" fill="#E54C63"/>
<path d="M170.344 8.27002L157.768 29.4C161.695 31.7668 166.451 33.9805 172.067 35.535C174.178 24.4595 171.99 15.5464 170.344 8.27002Z" fill="#E54C63"/>
<path d="M131.162 74.0157C142.263 68.4162 144.126 52.2324 144.126 52.2324L131.162 74.0157Z" fill="#E54C63"/>
<path d="M150.036 49.4689C153.37 49.9052 156.777 48.399 158.585 45.3623C161.019 41.2724 159.629 35.9549 155.479 33.4855C151.33 31.0161 145.993 32.3297 143.559 36.4196C141.125 40.5096 142.515 45.827 146.664 48.2965C147.733 48.9324 148.88 49.3175 150.036 49.4689Z" fill="#E54C63"/>
<path d="M157.29 44.6203C159.344 41.1702 158.171 36.6843 154.671 34.6008C151.171 32.5174 146.669 33.6253 144.615 37.0755C142.561 40.5256 143.734 45.0115 147.234 47.0949C150.734 49.1784 155.236 48.0705 157.29 44.6203Z" fill="#C5DDF9"/>
<path d="M125.519 17.543C125.102 17.8271 125.327 18.4801 125.83 18.4512C127.263 18.3692 130.622 18.226 133.542 18.4723C134.75 18.5741 135.793 17.6091 135.766 16.3971C135.754 15.901 135.577 15.3239 135.116 14.6699C133.343 12.152 130.261 14.5566 130.291 15.8348C130.291 15.8348 129.668 13.9102 127.776 14.2471C125.883 14.5841 126.552 17.3831 126.552 17.3831C126.552 17.3831 125.942 17.254 125.519 17.543Z" fill="white"/>
<path d="M102.131 27.6228C101.911 27.9237 101.878 28.2846 101.972 28.6001H124.359C124.78 28.0978 124.863 27.2706 124.373 26.6533C122.738 24.5914 119.334 26.3092 119.334 26.3092C117.609 22.0681 114.446 25.5491 114.446 25.5491C114.446 25.5491 114.158 18.9874 108.577 19.6588C103.146 20.3121 104.548 26.5376 104.548 26.5376C103.252 26.6172 102.529 27.0788 102.131 27.6228Z" fill="white"/>
<path d="M179.712 135.277L179.657 138.552L182.455 138.59L182.499 135.66L179.712 135.277Z" fill="#FE9F73"/>
<path d="M191.296 134.356L188.432 134.574L189.079 137.786L191.88 137.229L191.296 134.356Z" fill="#FE9F73"/>
<path d="M179.738 136.349C180.628 136.617 181.432 136.685 182.009 136.686C182.531 136.688 182.969 136.302 183.032 135.792C183.987 128.048 184.441 116.211 184.545 113.185C184.56 112.751 184.294 112.357 183.884 112.201L180.034 110.744C179.42 110.511 178.744 110.897 178.644 111.539L178.626 111.655C178.617 111.712 178.613 111.769 178.614 111.826L179.002 135.39C179.009 135.834 179.308 136.219 179.738 136.349Z" fill="#33192C"/>
<path d="M187.547 135.544C187.63 135.896 187.93 136.16 188.295 136.202C189.371 136.326 190.292 136.203 190.889 136.072C191.311 135.979 191.601 135.599 191.572 135.174C191.351 131.967 189.985 128.144 189.507 124.463C188.646 117.833 188.594 111.821 188.594 111.821L180.777 109.559L182.727 115.138L184.545 125.397L187.547 135.544Z" fill="#49263E"/>
<path d="M187.396 135.188C187.401 135.207 187.419 135.22 187.438 135.22C187.442 135.22 187.446 135.219 187.45 135.218C187.474 135.211 187.487 135.187 187.48 135.164L184.589 125.387L183.233 117.739C183.229 117.716 183.206 117.7 183.182 117.704C183.158 117.708 183.142 117.731 183.146 117.754L184.503 125.407L184.503 125.409L187.396 135.188Z" fill="#1A1A1A"/>
<path d="M189.342 123.498L189.345 123.498C189.347 123.513 189.35 123.532 189.354 123.555C189.61 125.084 190.089 127.86 190.42 129.274C190.424 129.294 190.443 129.308 190.463 129.308C190.466 129.308 190.469 129.307 190.473 129.307C190.497 129.301 190.511 129.278 190.506 129.254C190.175 127.842 189.697 125.068 189.441 123.54C189.434 123.496 189.429 123.466 189.424 123.446C189.424 123.446 189.424 123.445 189.424 123.445C189.424 123.425 189.421 123.397 189.418 123.357L188.755 115.418C188.753 115.394 188.731 115.375 188.707 115.378C188.682 115.38 188.664 115.401 188.666 115.425C188.673 115.504 189.33 123.357 189.337 123.453C189.337 123.454 189.337 123.455 189.337 123.456L189.342 123.498Z" fill="#1A1A1A"/>
<path d="M178.989 134.635C178.989 134.635 178.99 134.635 178.99 134.635C179.014 134.634 179.034 134.614 179.033 134.59L178.719 115.49C178.718 115.466 178.7 115.446 178.674 115.447C178.649 115.448 178.63 115.468 178.63 115.492L178.945 134.592C178.945 134.616 178.965 134.635 178.989 134.635Z" fill="#1A1A1A"/>
<path d="M182.554 139.491C182.596 139.491 182.63 139.457 182.63 139.416V139.05C182.63 138.989 182.581 138.94 182.519 138.94H180.065L179.07 137.872L177.251 138.94H176.859C176.724 138.94 176.6 139.03 176.574 139.161C176.54 139.337 176.676 139.491 176.848 139.491L182.554 139.491Z" fill="#EF3A4C"/>
<path d="M181.455 137.682C181.455 137.682 180.503 138.347 179.664 137.542L177.581 138.453C177.581 138.453 177.01 138.641 176.855 138.943H182.498V137.95C182.498 137.95 182.084 137.402 181.455 137.682Z" fill="#49263E"/>
<path d="M182.519 137.95H182.477V138.938H182.519V137.95Z" fill="#1A1A1A"/>
<path d="M181.443 137.665C180.976 137.982 180.484 137.914 180.479 137.913L180.473 137.954C180.474 137.954 180.522 137.961 180.602 137.961C180.784 137.961 181.132 137.926 181.467 137.699L181.443 137.665Z" fill="#1A1A1A"/>
<path d="M182.233 138.547L181.967 138.724L181.991 138.758L182.257 138.581L182.233 138.547Z" fill="#1A1A1A"/>
<path d="M182.043 138.497L181.776 138.674L181.8 138.708L182.066 138.531L182.043 138.497Z" fill="#1A1A1A"/>
<path d="M182.651 139.355V139.08C182.651 138.993 182.579 138.921 182.49 138.921H176.848C176.683 138.921 176.548 139.054 176.548 139.217C176.548 139.304 176.587 139.387 176.654 139.443L176.681 139.412C176.623 139.363 176.59 139.292 176.59 139.217C176.59 139.077 176.706 138.963 176.848 138.963H182.49C182.556 138.963 182.61 139.015 182.61 139.08V139.355L182.651 139.355Z" fill="#1A1A1A"/>
<path d="M177.391 138.551C177.811 138.375 179.654 137.569 179.673 137.561L179.656 137.523C179.637 137.531 177.794 138.337 177.375 138.513C176.948 138.693 176.834 138.923 176.829 138.933L176.867 138.951C176.868 138.949 176.981 138.724 177.391 138.551Z" fill="#1A1A1A"/>
<path d="M186.718 139.48L192.202 137.924C192.242 137.913 192.266 137.871 192.254 137.832L192.151 137.479C192.134 137.421 192.073 137.388 192.014 137.405L189.656 138.074L188.4 137.318L186.951 138.841L186.574 138.948C186.444 138.985 186.35 139.105 186.363 139.238C186.379 139.416 186.553 139.527 186.718 139.48Z" fill="#EF3A4C"/>
<path d="M190.638 136.486C190.638 136.486 189.91 137.385 188.878 136.839L187.131 138.283C187.131 138.283 186.635 138.62 186.571 138.952L191.994 137.414L191.715 136.459C191.715 136.459 191.164 136.045 190.638 136.486Z" fill="#49263E"/>
<path d="M191.735 136.454L191.695 136.465L191.972 137.415L192.012 137.403L191.735 136.454Z" fill="#1A1A1A"/>
<path d="M190.654 136.499L190.622 136.472C190.261 136.905 189.77 136.974 189.765 136.974L189.77 137.015C189.772 137.015 189.82 137.008 189.896 136.987C190.072 136.937 190.396 136.808 190.654 136.499Z" fill="#1A1A1A"/>
<path d="M191.628 137.104L191.422 137.347L191.454 137.374L191.661 137.131L191.628 137.104Z" fill="#1A1A1A"/>
<path d="M191.431 137.109L191.225 137.351L191.257 137.378L191.463 137.135L191.431 137.109Z" fill="#1A1A1A"/>
<path d="M186.57 138.973L191.992 137.434C192.055 137.416 192.121 137.452 192.14 137.515L192.217 137.778L192.257 137.767L192.18 137.503C192.155 137.419 192.066 137.37 191.981 137.395L186.559 138.933C186.4 138.978 186.307 139.143 186.353 139.299C186.378 139.383 186.438 139.452 186.519 139.487L186.536 139.45C186.466 139.419 186.415 139.36 186.393 139.288C186.354 139.153 186.433 139.012 186.57 138.973Z" fill="#1A1A1A"/>
<path d="M186.977 138.429C187.33 138.146 188.876 136.868 188.891 136.855L188.864 136.824C188.849 136.837 187.303 138.114 186.95 138.397C186.591 138.686 186.546 138.939 186.544 138.95L186.585 138.956C186.585 138.954 186.631 138.707 186.977 138.429Z" fill="#1A1A1A"/>
<path d="M181.371 97.3672L179.73 93.7749L178.504 88.0156L176.303 88.1705C176.303 88.1705 177.043 95.4828 177.318 96.2787C177.44 96.6308 178.81 98.9109 178.81 98.9109L181.371 97.3672Z" fill="#FE9F73"/>
<path d="M176.657 86.4512C176.635 86.4532 176.614 86.4411 176.605 86.4211L176.318 85.7815C176.271 85.6787 176.153 85.6238 176.048 85.6633C175.932 85.7066 175.879 85.8377 175.929 85.9485L175.968 86.0367C176.126 86.3879 176.219 86.765 176.242 87.1495L176.322 88.482C176.659 88.4557 176.851 88.4332 178.082 88.2221C178.206 88.2394 178.358 88.2247 178.407 88.166L179.148 87.0226C179.223 86.9326 179.21 86.7992 179.12 86.7246C179.03 86.6499 178.897 86.6626 178.822 86.7526L178.351 87.1428C178.325 86.8818 178.297 85.2094 178.297 85.2094C178.301 85.088 178.203 84.9867 178.079 84.9901C177.966 84.9933 177.878 85.0886 177.874 85.2012L177.834 86.2957C177.833 86.3215 177.813 86.3426 177.787 86.3451L177.732 86.3502C177.704 86.3528 177.679 86.3321 177.676 86.3038L177.566 85.1301C177.555 85.0091 177.443 84.9215 177.321 84.9409C177.21 84.9587 177.135 85.0647 177.145 85.1769L177.255 86.3434C177.257 86.3716 177.237 86.3967 177.208 86.3993L177.191 86.401C177.167 86.4032 177.144 86.388 177.137 86.3645L176.835 85.3523C176.801 85.2385 176.677 85.1546 176.559 85.1657C176.44 85.1768 176.371 85.279 176.405 85.3926L176.701 86.3852C176.711 86.4163 176.689 86.4482 176.657 86.4512Z" fill="#FE9F73"/>
<path d="M195.765 90.2371L193.632 89.6719L191.348 95.0989L189.062 98.3194L191.288 100.316C191.288 100.316 193.061 98.3337 193.247 98.0107C193.667 97.2807 195.765 90.2371 195.765 90.2371Z" fill="#FE9F73"/>
<path d="M194.618 86.78C194.497 86.7534 194.381 86.8344 194.363 86.9545C194.363 86.9545 194.021 88.5918 193.947 88.8434L193.557 88.3716C193.501 88.2693 193.372 88.2319 193.27 88.2883C193.167 88.3446 193.13 88.4733 193.186 88.5757L193.7 89.8379C193.737 89.9047 193.883 89.9476 194.009 89.954C195.178 90.3924 195.362 90.4503 195.688 90.5395L196.017 89.2457C196.112 88.8723 196.274 88.5194 196.495 88.2041L196.55 88.1248C196.62 88.0253 196.592 87.8866 196.487 87.8223C196.39 87.7637 196.264 87.7954 196.2 87.8877L195.797 88.462C195.784 88.48 195.762 88.488 195.741 88.4818C195.709 88.4728 195.694 88.4376 195.709 88.4088L196.186 87.4894C196.241 87.3841 196.193 87.2708 196.079 87.2377C195.965 87.2046 195.827 87.2637 195.772 87.3691L195.285 88.3067C195.274 88.3284 195.249 88.3391 195.225 88.3324L195.209 88.3275C195.182 88.3196 195.166 88.2911 195.174 88.2638L195.5 87.1386C195.532 87.0303 195.477 86.9121 195.371 86.8738C195.255 86.8318 195.13 86.897 195.096 87.0137L194.767 88.146C194.759 88.1732 194.731 88.1889 194.704 88.181L194.651 88.1656C194.626 88.1584 194.61 88.134 194.614 88.1085L194.78 87.0259C194.797 86.9143 194.728 86.8042 194.618 86.78Z" fill="#FE9F73"/>
<path d="M184.299 98.9124C184.437 99.0238 184.611 99.1337 184.825 99.217C185.501 99.4812 186.066 99.1169 186.222 98.8851C186.377 98.6534 186.681 97.3749 186.681 97.3749L186.934 96.7873L187.759 94.4489L185.092 94.1223L184.31 96.1241C184.31 96.1241 184.018 96.7897 184.577 97.1056L183.907 98.3725C183.735 98.692 184.017 98.6845 184.299 98.9124Z" fill="#FE9F73"/>
<path d="M185.691 95.3726C186.104 95.2422 186.309 95.7239 186.318 95.7445C186.321 95.7525 186.327 95.7583 186.335 95.7611C186.342 95.7639 186.35 95.764 186.357 95.7609C186.373 95.7545 186.38 95.7368 186.374 95.7214C186.371 95.7158 186.139 95.1677 185.673 95.3149C185.657 95.3199 185.648 95.3369 185.653 95.3528C185.658 95.3688 185.675 95.3776 185.691 95.3726Z" fill="#49263E"/>
<path d="M184.883 94.8832C185.061 94.821 185.221 95.1212 185.223 95.1242C185.226 95.1309 185.232 95.1357 185.239 95.1383C185.246 95.1414 185.256 95.1411 185.264 95.1369C185.279 95.1291 185.284 95.1108 185.276 95.0961C185.269 95.0817 185.09 94.7467 184.863 94.8261C184.847 94.8316 184.839 94.8489 184.844 94.8647C184.85 94.8805 184.867 94.8888 184.883 94.8832Z" fill="#49263E"/>
<path d="M185.889 95.7186C185.908 95.6718 185.884 95.6192 185.838 95.601C185.791 95.5827 185.738 95.6058 185.72 95.6525C185.702 95.6992 185.725 95.7519 185.772 95.7701C185.818 95.7884 185.871 95.7653 185.889 95.7186Z" fill="#1A1A1A"/>
<path d="M185.023 95.283C185.042 95.2363 185.018 95.1837 184.972 95.1654C184.925 95.1472 184.872 95.1703 184.854 95.217C184.836 95.2637 184.859 95.3163 184.906 95.3346C184.952 95.3528 185.005 95.3297 185.023 95.283Z" fill="#1A1A1A"/>
<path d="M186.904 95.0135L187.637 94.5295C187.637 94.5295 187.721 94.4444 187.833 94.3102C187.946 94.176 187.632 93.6035 187.326 93.2239C187.019 92.8442 186.594 93.195 186.314 92.9124C185.801 92.3948 185.166 92.5279 184.997 92.6489C184.653 92.8944 184.304 93.1222 184.781 94.0663C185.257 95.0104 186.904 95.0135 186.904 95.0135Z" fill="#33192C"/>
<path d="M187.804 96.2712C187.883 96.0869 188.255 95.8542 188.318 95.1567C188.381 94.4592 187.718 94.2363 187.718 94.2363L187.717 94.4438L187.085 95.1519L186.512 97.3252C187.359 97.7644 187.724 96.4556 187.804 96.2712Z" fill="#33192C"/>
<path d="M187.445 96.2922C187.555 96.012 187.416 95.696 187.136 95.5866C186.856 95.4771 186.54 95.6156 186.43 95.8959C186.321 96.1762 186.459 96.4921 186.739 96.6015C187.02 96.711 187.336 96.5725 187.445 96.2922Z" fill="#FE9F73"/>
<path d="M187.237 95.9696C187.244 95.975 187.253 95.9741 187.259 95.9677C187.264 95.9613 187.263 95.9517 187.257 95.9464C187.252 95.9424 187.137 95.8487 187.003 95.8662C186.925 95.8763 186.857 95.9215 186.801 96.0005L186.77 96.0448L186.819 96.0231C186.826 96.02 186.993 95.9498 187.101 96.094C187.161 96.1739 187.133 96.2659 187.091 96.3205C187.047 96.3772 186.962 96.4294 186.865 96.3915C186.864 96.3911 186.863 96.3907 186.862 96.3904C186.854 96.3873 186.846 96.3911 186.843 96.3988C186.839 96.4065 186.843 96.4154 186.851 96.4185C186.852 96.4189 186.853 96.4193 186.854 96.4197C186.959 96.4609 187.061 96.4092 187.115 96.3391C187.179 96.2561 187.183 96.1528 187.125 96.0759C187.04 95.9623 186.921 95.9672 186.855 95.9812C186.899 95.9321 186.95 95.9036 187.006 95.8962C187.128 95.8802 187.236 95.9687 187.237 95.9696Z" fill="#F07162"/>
<path d="M186.174 97.0669C185.422 97.6483 184.577 97.1058 184.577 97.1058L184.235 97.7398C185.692 98.184 186.174 97.0669 186.174 97.0669Z" fill="#F07162"/>
<path d="M186.488 96.7646L186.986 95.5282L187.086 95.1519C186.954 95.2193 186.848 95.3267 186.783 95.4589C186.64 95.7461 186.26 96.5224 186.172 96.5289C186.048 96.5381 184.588 95.7151 184.336 95.7675C184.336 95.7675 183.623 97.0512 184.504 97.4509C185.765 98.0227 186.177 97.3363 186.488 96.7646Z" fill="#33192C"/>
<path d="M185.311 95.2261C185.304 95.2219 185.295 95.2247 185.291 95.232L184.929 95.8842L185.195 96.1039C185.196 96.105 185.198 96.1058 185.199 96.1064C185.205 96.1087 185.212 96.1071 185.216 96.102C185.221 96.0955 185.221 96.086 185.214 96.0807L184.968 95.8769L185.317 95.2467C185.321 95.2394 185.318 95.2302 185.311 95.2261Z" fill="#F07162"/>
<path d="M185.311 96.4667C185.303 96.4616 184.758 96.2341 184.758 96.2341C184.758 96.2341 184.738 96.4884 184.94 96.5735C185.143 96.6586 185.311 96.4667 185.311 96.4667Z" fill="#FBFDFC"/>
<path d="M186.751 113.561L187.734 112.672C187.752 112.656 187.753 112.63 187.737 112.612C187.722 112.595 187.695 112.594 187.678 112.609L186.694 113.498C186.676 113.514 186.675 113.541 186.691 113.558C186.698 113.566 186.708 113.571 186.718 113.572C186.729 113.573 186.741 113.569 186.751 113.561Z" fill="#1A1A1A"/>
<path d="M186.703 114.061L187.445 113.401C187.463 113.385 187.464 113.358 187.449 113.341C187.433 113.323 187.407 113.322 187.389 113.337L186.647 113.997C186.629 114.013 186.628 114.04 186.643 114.057C186.651 114.066 186.66 114.07 186.671 114.071C186.682 114.072 186.694 114.069 186.703 114.061Z" fill="#1A1A1A"/>
<path d="M178.616 88.1066C178.616 88.1066 176.883 88.0479 176.193 88.2974C176.193 88.2974 176.986 95.6628 177.192 96.2152C177.397 96.7675 177.725 97.4035 177.725 97.4035C178.164 98.3403 179.511 100.759 179.511 100.759C179.49 101.325 178.491 112.264 178.491 112.264C178.491 112.264 180.318 114.273 188.67 114.308C188.67 114.308 189.027 103.163 189.284 102.636C189.494 102.205 192.105 99.4958 193.033 98.5397C193.247 98.3192 193.406 98.0522 193.499 97.7593L195.765 90.6022C195.765 90.6022 194.073 89.7948 193.486 89.7802L191.222 95.1896L187.734 98.4846C187.734 98.4846 182.809 98.1873 182.447 98.0154C182.085 97.8435 179.775 93.6996 179.819 93.7584C179.863 93.817 178.616 88.1066 178.616 88.1066Z" fill="white"/>
<path d="M187.748 98.5226L187.76 98.5115L191.228 95.2343L191.634 95.4357C191.653 95.4448 191.675 95.4372 191.684 95.4189C191.693 95.4005 191.686 95.3782 191.667 95.3691L191.215 95.1448L191.196 95.1626L187.72 98.4465L186.202 98.3474C186.182 98.3462 186.164 98.3616 186.163 98.3821C186.161 98.4026 186.177 98.4202 186.197 98.4216L187.748 98.5226Z" fill="#1A1A1A"/>
<path d="M191.222 95.2266C191.236 95.2266 191.25 95.218 191.256 95.2038L193.52 89.7944C193.528 89.7755 193.519 89.7537 193.5 89.7458C193.481 89.7379 193.46 89.7468 193.452 89.7657L191.187 95.1751C191.179 95.194 191.188 95.2157 191.207 95.2237C191.212 95.2257 191.217 95.2266 191.222 95.2266Z" fill="#1A1A1A"/>
<path d="M188.802 110.649C188.822 110.649 188.838 110.634 188.839 110.614C188.969 107.41 189.317 102.686 189.321 102.639C189.322 102.619 189.307 102.601 189.286 102.599C189.265 102.598 189.248 102.613 189.247 102.634C189.243 102.681 188.895 107.405 188.765 110.611C188.764 110.631 188.78 110.649 188.8 110.649C188.801 110.649 188.801 110.649 188.802 110.649Z" fill="#1A1A1A"/>
<path d="M178.724 109.559C178.743 109.559 178.76 109.544 178.761 109.524C179.151 103.647 179.616 100.489 179.621 100.457C179.624 100.437 179.61 100.418 179.59 100.415C179.57 100.412 179.551 100.426 179.548 100.446C179.543 100.478 179.077 103.639 178.687 109.519C178.685 109.54 178.701 109.558 178.721 109.559C178.722 109.559 178.723 109.559 178.724 109.559Z" fill="#1A1A1A"/>
<path d="M179.478 100.778C179.485 100.79 179.498 100.797 179.511 100.797C179.517 100.797 179.523 100.795 179.529 100.792C179.547 100.781 179.553 100.759 179.543 100.741C179.527 100.713 177.969 97.9867 177.581 97.0266C177.527 96.8939 177.478 96.7779 177.434 96.6714C177.147 95.9899 177.028 95.7079 176.89 94.0031C176.888 93.9827 176.87 93.9678 176.85 93.9691C176.829 93.9707 176.814 93.9886 176.816 94.0091C176.955 95.7258 177.083 96.0312 177.365 96.7002C177.41 96.8064 177.458 96.9222 177.512 97.0543C177.902 98.0192 179.463 100.75 179.478 100.778Z" fill="#1A1A1A"/>
<g opacity="0.5">
<path d="M184.703 98.3208C184.68 98.4037 182.403 106.686 181.862 113.461L182.011 113.473C182.55 106.712 184.823 98.4431 184.846 98.3604L184.703 98.3208Z" fill="#A5EFED"/>
</g>
<path d="M177.775 101.58C177.901 101.504 178.042 101.454 178.187 101.43C180.549 101.041 183.884 101.613 184.99 98.3262C184.812 98.5676 184.602 98.7472 184.403 98.9359C181.098 102.058 175.027 98.4816 176.396 104.156C176.827 103.353 176.874 102.121 177.775 101.58Z" fill="#33192C"/>
<path d="M185.034 98.8169L185.081 98.2741L184.703 98.1606L184.315 98.4183L184.418 98.9233L184.677 99.016L185.034 98.8169Z" fill="#49263E"/>
<path d="M185.034 98.9361L186.622 98.3934L186.538 97.9392L184.906 98.061L184.248 97.7166L183.93 98.1848L184.319 98.7574L184.843 98.339L185.034 98.9361Z" fill="#A5EFED"/>
<path d="M176.205 88.3327C176.989 88.0829 178.37 88.1327 178.585 88.1422L179.69 93.2749C179.694 93.2923 179.709 93.3042 179.726 93.3042C179.729 93.3042 179.732 93.3039 179.734 93.3034C179.754 93.299 179.767 93.2793 179.763 93.2593L178.646 88.0709L178.618 88.0693C178.602 88.0685 177.043 87.9878 176.182 88.2619C176.163 88.2681 176.152 88.289 176.158 88.3086C176.164 88.3282 176.185 88.339 176.205 88.3327Z" fill="#1A1A1A"/>
<path d="M188.941 66.3008C193.352 58.4989 182.623 52.1032 177.767 59.2159C173.356 67.0179 184.085 73.4136 188.941 66.3008Z" fill="#7FC6A6"/>
<path d="M186.909 63.9486C187.21 63.4762 186.51 62.8815 186.085 63.4198C185.784 63.8924 186.484 64.4871 186.909 63.9486Z" fill="#4C222E"/>
<path d="M181.678 60.6322C181.98 60.1598 181.28 59.5651 180.855 60.1034C180.554 60.5759 181.254 61.1707 181.678 60.6322Z" fill="#4C222E"/>
<path d="M185.18 65.2386L180.444 62.5596C179.548 65.0063 183.199 67.4937 185.18 65.2386Z" fill="white"/>
<path d="M102.08 7.34743C96.2444 -2.72371 81.2351 4.85405 86.3638 15.7242C92.1988 25.7953 107.208 18.2177 102.08 7.34743Z" fill="#FEC786"/>
<path d="M90.4889 12.1469C90.0109 11.4055 88.9623 12.0482 89.3299 12.7733C89.8081 13.5148 90.8566 12.8722 90.4889 12.1469Z" fill="#4C222E"/>
<path d="M97.8455 8.2258C97.3675 7.48439 96.3189 8.12704 96.6865 8.85218C97.1645 9.5936 98.2131 8.95102 97.8455 8.2258Z" fill="#4C222E"/>
<path d="M99.2379 10.8381L90.9391 15.2615C94.1957 19.1914 100.663 15.2233 99.2379 10.8381Z" fill="white"/>
<path d="M37.7834 90.6736L35.3755 91.0888L33.4685 96.1873L27.9075 97.2208L28.7637 101.167C28.7637 101.167 35.2384 99.9717 36.1271 99.5014C37.0158 99.0312 37.7834 90.6736 37.7834 90.6736Z" fill="#7FC6A6"/>
<path d="M23.55 92.7238L26.3883 93.364L26.2944 92.8528C26.1983 92.33 25.7835 91.9203 25.2579 91.8412C24.3501 91.7046 23.4635 92.2903 23.4635 92.2903C23.4635 92.2903 23.2148 92.8653 23.1924 92.9313C23.1699 92.9972 23.55 92.7238 23.55 92.7238Z" fill="#FE9F73"/>
<path d="M26.6797 94.9515L26.2835 92.7955L23.3707 92.4736L23.7659 95.1177L23.914 95.7916C23.914 95.7916 23.9751 97.2071 24.0923 97.4843C24.2096 97.7613 24.733 98.2624 25.5034 98.1209C25.7464 98.0762 25.9529 97.9954 26.1219 97.9056C26.4675 97.722 26.6287 97.3143 26.5117 96.9408L26.197 95.9361C26.8534 95.716 26.6797 94.9515 26.6797 94.9515Z" fill="#FE9F73"/>
<path d="M24.7156 94.1043C24.723 94.1001 24.7289 94.0929 24.7312 94.084C24.7373 94.0607 24.8847 93.5156 25.345 93.593C25.3628 93.5961 25.3796 93.5841 25.3826 93.5663C25.3856 93.5485 25.3736 93.5317 25.3559 93.5287C24.8364 93.4412 24.6697 94.0614 24.668 94.0676C24.6635 94.0851 24.674 94.1029 24.6914 94.1074C24.6999 94.1096 24.7085 94.1083 24.7156 94.1043Z" fill="#4C222E"/>
<path d="M25.9595 93.4235C25.9669 93.4248 25.9749 93.4235 25.9819 93.4193C25.9851 93.4174 26.3008 93.2302 26.4301 93.3868C26.4416 93.4007 26.4622 93.4028 26.476 93.3912C26.4899 93.3798 26.4919 93.3592 26.4804 93.3453C26.3153 93.1453 25.9631 93.3544 25.9482 93.3634C25.9327 93.3727 25.9278 93.3928 25.937 93.4082C25.9422 93.4166 25.9505 93.4219 25.9595 93.4235Z" fill="#4C222E"/>
<path d="M26.1057 93.8941C26.1076 93.893 26.2986 93.7797 26.3769 93.8745C26.3839 93.8829 26.3963 93.8841 26.4047 93.8772C26.4132 93.8702 26.4143 93.8578 26.4074 93.8493C26.3076 93.7283 26.0944 93.8548 26.0854 93.8602C26.076 93.8659 26.073 93.878 26.0786 93.8873C26.0818 93.8924 26.0867 93.8956 26.0922 93.8965C26.0967 93.8974 26.1015 93.8966 26.1057 93.8941Z" fill="#1A1A1A"/>
<path d="M25.2833 94.1642C25.2736 94.111 25.2226 94.0758 25.1694 94.0856C25.1162 94.0954 25.081 94.1464 25.0907 94.1996C25.1005 94.2528 25.1515 94.288 25.2047 94.2782C25.258 94.2684 25.2932 94.2174 25.2833 94.1642Z" fill="#1A1A1A"/>
<path d="M22.5588 93.1189C22.483 93.8702 22.9048 94.1824 22.951 94.3938C22.9973 94.6051 23.1165 96.0653 24.1033 95.7734L23.94 93.3553L23.4164 92.4768L23.4571 92.2568C23.4571 92.2568 22.6345 92.3675 22.5588 93.1189Z" fill="#E23E3D"/>
<path d="M24.0103 94.961C24.3294 94.9024 24.5405 94.5962 24.4819 94.2771C24.4232 93.9579 24.117 93.7468 23.7979 93.8054C23.4788 93.8641 23.2677 94.1703 23.3263 94.4893C23.385 94.8085 23.6911 95.0196 24.0103 94.961Z" fill="#FE9F73"/>
<path d="M24.0438 94.3322L24.0922 94.3653L24.068 94.3119C24.0248 94.2169 23.9622 94.1552 23.8819 94.1286C23.7429 94.0825 23.6026 94.1584 23.5967 94.1616C23.5888 94.166 23.5859 94.1759 23.5903 94.1838C23.5946 94.1917 23.6045 94.1946 23.6125 94.1903C23.6138 94.1895 23.7466 94.1179 23.8719 94.1597C23.9299 94.1789 23.9777 94.2195 24.0147 94.2805C23.9481 94.2524 23.8227 94.2227 23.7093 94.3256C23.6327 94.3953 23.6159 94.5055 23.6667 94.6064C23.7097 94.6916 23.8064 94.7671 23.9264 94.745C23.9275 94.7449 23.9287 94.7446 23.9298 94.7444C23.9386 94.7427 23.9443 94.734 23.9426 94.7252C23.9408 94.7165 23.9324 94.7108 23.9237 94.7124C23.9225 94.7126 23.9215 94.7128 23.9204 94.713C23.8101 94.7333 23.7305 94.6606 23.6958 94.5917C23.6624 94.5253 23.6516 94.4221 23.7313 94.3498C23.8751 94.2192 24.037 94.3275 24.0438 94.3322Z" fill="#F07162"/>
<path d="M26.429 96.6772L26.1969 95.9362C26.1969 95.9362 25.191 96.3379 24.5139 95.5688C24.5139 95.5688 24.7961 96.85 26.429 96.6772Z" fill="#F07162"/>
<path d="M25.7252 94.7432C25.7286 94.7496 25.7357 94.7526 25.7425 94.7514C25.7442 94.7511 25.7458 94.7506 25.7474 94.7497L26.0733 94.5712L25.8241 93.807C25.8213 93.7984 25.8122 93.7935 25.8036 93.7966C25.795 93.7994 25.7903 93.8085 25.7931 93.8171L26.0339 94.5556L25.7317 94.7211C25.7237 94.7254 25.7208 94.7353 25.7252 94.7432Z" fill="#F07162"/>
<path d="M24.1107 94.8481L23.8353 94.8678L23.9231 95.9753L24.3107 95.9364L24.1107 94.8481Z" fill="#FE9F73"/>
<path d="M26.4189 92.19C26.4645 91.5873 25.8847 91.6782 25.8847 91.6782C25.8847 91.6782 25.8427 90.8415 25.146 91.2198C24.4493 91.598 23.0703 91.8186 22.8105 92.5765C22.5506 93.3344 23.9464 93.3888 23.9464 93.3888C23.9464 93.3888 26.3732 92.7926 26.4189 92.19Z" fill="#E23E3D"/>
<path d="M23.7218 92.9815C23.6981 92.9993 23.2502 93.3427 23.3136 93.3197C23.377 93.2966 23.8713 93.2441 23.8713 93.2441L23.9685 93.7739C23.9685 93.7739 24.2311 94.0478 24.2356 94.4562C24.2356 94.4562 24.3959 94.4838 24.3992 94.3549C24.4026 94.2261 24.0875 93.3933 24.359 93.1815C24.6305 92.9697 23.7454 92.9637 23.7218 92.9815Z" fill="#E23E3D"/>
<path d="M25.8712 95.1599C26.1248 95.1317 26.1867 94.8416 26.1867 94.8416C26.1867 94.8416 25.5042 94.9157 25.4935 94.9187C25.4935 94.9187 25.6176 95.1882 25.8712 95.1599Z" fill="#FBFDFC"/>
<path d="M14.1561 115.868C14.2877 115.886 14.4048 115.789 14.414 115.658C14.414 115.658 14.636 113.874 14.6933 113.598L15.1524 114.069C15.2218 114.174 15.3629 114.203 15.4677 114.133C15.5724 114.064 15.6011 113.923 15.5317 113.818L14.8703 112.511C14.8251 112.443 14.6645 112.409 14.529 112.414C13.2375 112.047 13.0902 111.789 12.733 111.722L12.6824 112.002L12.4401 113.349C12.3714 113.757 12.2289 114.15 12.0198 114.507L11.9673 114.597C11.9012 114.71 11.9433 114.856 12.062 114.916C12.1703 114.97 12.3027 114.925 12.3639 114.82L12.7448 114.169C12.7567 114.149 12.7803 114.139 12.8035 114.143C12.8376 114.15 12.8569 114.187 12.8434 114.219L12.4132 115.246C12.3639 115.363 12.4259 115.481 12.5508 115.506C12.6759 115.531 12.8185 115.456 12.8678 115.338L13.3066 114.291C13.3168 114.267 13.3427 114.253 13.3685 114.258L13.3868 114.262C13.4167 114.268 13.4361 114.297 13.43 114.327L13.1792 115.561C13.155 115.68 13.2236 115.802 13.3405 115.834C13.4687 115.868 13.5975 115.788 13.6235 115.66L13.8758 114.418C13.8819 114.388 13.9111 114.368 13.941 114.374L13.999 114.386C14.0261 114.392 14.045 114.417 14.0431 114.444L13.9606 115.619C13.9522 115.74 14.036 115.851 14.1561 115.868Z" fill="#FE9F73"/>
<path d="M20.0223 135.518L19.9132 138.729L22.7145 138.507L23.0567 134.761L20.0223 135.518Z" fill="#FE9F73"/>
<path d="M25.4109 139.497C25.5804 139.497 25.7144 139.344 25.6812 139.168C25.6565 139.038 25.5349 138.947 25.4021 138.947L25.0167 138.946L23.2295 137.876L22.2483 138.939L19.8347 138.933C19.7744 138.933 19.7254 138.982 19.7253 139.042L19.7244 139.407C19.7243 139.449 19.7576 139.482 19.7988 139.482L25.4109 139.497Z" fill="#33182C"/>
<path d="M24.6931 138.459L22.6462 137.545C21.8189 138.347 20.8846 137.68 20.8846 137.68C20.2664 137.399 19.8585 137.946 19.8585 137.946L19.856 138.936L25.4058 138.95C25.2545 138.649 24.6931 138.459 24.6931 138.459Z" fill="#9FD6E2"/>
<path d="M19.8374 137.94L19.835 138.926L19.876 138.926L19.8785 137.941L19.8374 137.94Z" fill="#1A1A1A"/>
<path d="M21.8441 137.914C21.8393 137.914 21.3554 137.981 20.8962 137.663L20.8729 137.697C21.2019 137.924 21.5436 137.96 21.7228 137.961C21.8013 137.961 21.8486 137.954 21.8501 137.954L21.8441 137.914Z" fill="#1A1A1A"/>
<path d="M20.112 138.546L20.089 138.58L20.3504 138.756L20.3734 138.722L20.112 138.546Z" fill="#1A1A1A"/>
<path d="M20.3003 138.498L20.2772 138.532L20.5385 138.71L20.5615 138.676L20.3003 138.498Z" fill="#1A1A1A"/>
<path d="M25.6019 139.449C25.6684 139.393 25.7066 139.311 25.7068 139.224C25.7072 139.062 25.5751 138.929 25.4123 138.928L19.8633 138.914C19.776 138.914 19.7049 138.985 19.7046 139.072L19.704 139.346L19.7451 139.346L19.7457 139.072C19.7459 139.008 19.7986 138.955 19.8631 138.955L25.4121 138.969C25.5523 138.97 25.666 139.084 25.6656 139.224C25.6654 139.299 25.6325 139.37 25.5754 139.418L25.6019 139.449Z" fill="#1A1A1A"/>
<path d="M25.3936 138.958L25.4308 138.94C25.4263 138.931 25.3145 138.7 24.8955 138.52C24.4837 138.343 22.6728 137.534 22.6546 137.526L22.6378 137.564C22.6561 137.572 24.4673 138.381 24.8793 138.558C25.2824 138.731 25.3926 138.956 25.3936 138.958Z" fill="#1A1A1A"/>
<path d="M31.4483 134.707L28.5426 134.503L29.1418 138.725L31.9882 138.492L31.4483 134.707Z" fill="#FE9F73"/>
<path d="M34.589 139.497C34.7584 139.497 34.8924 139.344 34.8592 139.168C34.8345 139.038 34.713 138.947 34.5802 138.947L34.1947 138.946L32.4077 137.876L31.4264 138.939L29.0128 138.933C28.9526 138.933 28.9036 138.982 28.9035 139.042L28.9026 139.407C28.9025 139.449 28.9358 139.482 28.977 139.482L34.589 139.497Z" fill="#33182C"/>
<path d="M33.8712 138.459L31.8243 137.545C30.997 138.347 30.0627 137.68 30.0627 137.68C29.4445 137.399 29.0366 137.946 29.0366 137.946L29.0341 138.936L34.5839 138.95C34.4326 138.649 33.8712 138.459 33.8712 138.459Z" fill="#9FD6E2"/>
<path d="M29.0163 137.944L29.0138 138.93L29.0549 138.93L29.0573 137.944L29.0163 137.944Z" fill="#1A1A1A"/>
<path d="M31.0221 137.914C31.0174 137.914 30.5335 137.981 30.0743 137.663L30.051 137.697C30.38 137.924 30.7217 137.96 30.9009 137.961C30.9794 137.961 31.0267 137.954 31.0282 137.954L31.0221 137.914Z" fill="#1A1A1A"/>
<path d="M29.3001 138.544L29.2771 138.578L29.5385 138.755L29.5616 138.721L29.3001 138.544Z" fill="#1A1A1A"/>
<path d="M29.4761 138.494L29.453 138.528L29.7142 138.705L29.7373 138.671L29.4761 138.494Z" fill="#1A1A1A"/>
<path d="M34.78 139.449C34.8464 139.393 34.8847 139.311 34.8848 139.224C34.8852 139.062 34.7532 138.929 34.5903 138.928L29.0414 138.914C28.954 138.914 28.8829 138.985 28.8827 139.072L28.882 139.346L28.923 139.346L28.9238 139.072C28.9239 139.008 28.9766 138.955 29.0412 138.955L34.5902 138.969C34.7303 138.97 34.844 139.084 34.8437 139.224C34.8435 139.299 34.8106 139.37 34.7534 139.418L34.78 139.449Z" fill="#1A1A1A"/>
<path d="M34.5717 138.958L34.6089 138.94C34.6044 138.931 34.4926 138.7 34.0736 138.52C33.6618 138.343 31.8509 137.534 31.8327 137.526L31.8159 137.564C31.8342 137.572 33.6454 138.381 34.0574 138.558C34.4604 138.731 34.5706 138.956 34.5717 138.958Z" fill="#1A1A1A"/>
<path d="M28.7809 137.445C29.3263 137.603 32.0943 137.013 32.0363 136.575L28.6147 111.036C28.6072 110.98 28.5949 110.924 28.578 110.869L28.5432 110.757C28.3517 110.138 27.6378 109.855 27.0742 110.174L23.5438 112.17C23.1671 112.383 22.9667 112.81 23.045 113.236C23.591 116.207 27.674 137.123 28.7809 137.445Z" fill="#34629B"/>
<path d="M19.2778 137.333C19.3118 137.756 23.2341 137.36 23.2633 137L24.8386 125.286L25.1003 114.9L26.1772 109.112L18.905 112.476C18.905 112.476 19.7378 118.416 19.8747 125.084C19.9507 128.785 19.0215 134.136 19.2778 137.333Z" fill="#5780BC"/>
<path d="M23.4681 135.398C23.4867 135.395 23.5021 135.38 23.5047 135.361L24.8816 125.292L24.8819 125.29L25.0771 117.542C25.0777 117.518 25.0588 117.498 25.0348 117.498C25.0109 117.497 24.9909 117.516 24.9903 117.54L24.7952 125.283L23.4186 135.349C23.4153 135.373 23.432 135.395 23.4558 135.398C23.46 135.399 23.4641 135.398 23.4681 135.398Z" fill="#1A1A1A"/>
<path d="M19.8064 124.068H19.8063C19.8044 124.088 19.8039 124.119 19.8033 124.164C19.7791 125.708 19.7214 128.515 19.6072 129.956C19.6054 129.98 19.6233 130.001 19.6473 130.003C19.6506 130.003 19.654 130.003 19.6572 130.002C19.6768 130 19.6925 129.983 19.6941 129.963C19.8084 128.519 19.8661 125.711 19.8904 124.165C19.8908 124.142 19.8912 124.123 19.8913 124.108L19.8935 124.108L19.8921 124.065C19.8921 124.064 19.892 124.063 19.8919 124.062C19.8849 123.966 19.3702 116.123 19.365 116.043C19.3634 116.019 19.3427 116.001 19.3186 116.003C19.2947 116.004 19.2764 116.025 19.2781 116.049L19.7991 123.979C19.8018 124.019 19.8036 124.047 19.8065 124.067C19.8065 124.067 19.8065 124.067 19.8064 124.068Z" fill="#1A1A1A"/>
<path d="M31.6005 133.597C31.6007 133.597 31.601 133.597 31.6011 133.597C31.6246 133.593 31.641 133.572 31.6379 133.548L29.1375 114.655C29.1344 114.632 29.1124 114.615 29.0885 114.618C29.0632 114.621 29.048 114.643 29.0511 114.667L31.5515 133.56C31.5548 133.583 31.5767 133.6 31.6005 133.597Z" fill="#1A1A1A"/>
<path d="M29.1227 113.813C29.1227 113.813 29.5006 105.133 29.7031 99.4163C29.7373 98.4499 29.755 98.0046 29.5738 97.7461C29.4859 97.6206 29.3922 97.494 29.1764 97.451C27.3881 97.0942 23.6577 96.5438 22.8202 96.7294C21.076 97.1159 14.3707 103.033 13.9254 104.224C13.4801 105.414 12.0853 111.921 12.0853 111.921C12.0853 111.921 12.6664 112.546 15.5978 112.743C15.5978 112.743 17.5711 107.051 18.0265 106.53C18.4819 106.008 20.0485 104.08 20.0485 104.08L18.8317 113.375C18.8316 113.375 23.9451 115.219 29.1227 113.813Z" fill="#7FC6A6"/>
<path d="M15.5937 112.811L15.6489 112.814L15.6633 112.761C16.3141 110.351 17.994 106.758 18.0841 106.567L21.3987 102.568C21.4227 102.539 21.4186 102.496 21.3898 102.472C21.3608 102.448 21.3179 102.453 21.2939 102.481L17.9738 106.486L17.9646 106.501C17.9472 106.538 16.2256 110.196 15.5466 112.672C15.1664 112.645 12.9239 112.466 12.126 111.867C12.096 111.844 12.0533 111.85 12.0307 111.88C12.0082 111.91 12.0142 111.953 12.0442 111.975C12.5767 112.375 13.6807 112.592 14.5176 112.704C15.0978 112.781 15.5497 112.808 15.5937 112.811Z" fill="#1A1A1A"/>
<path d="M19.354 109.384C19.3912 109.389 19.4254 109.363 19.4302 109.325L20.1158 104.089C20.1206 104.052 20.0945 104.018 20.0573 104.013H20.0572C20.02 104.008 19.9858 104.034 19.9809 104.071L19.2954 109.308C19.2905 109.345 19.3167 109.379 19.3538 109.384H19.354Z" fill="#1A1A1A"/>
<path d="M15.7641 102.199C20.0826 98.1526 22.4489 96.935 22.4722 96.9232C22.5057 96.9063 22.5192 96.8654 22.5022 96.8318C22.4854 96.7984 22.4445 96.7848 22.4108 96.8017C22.3873 96.8137 20.0066 98.0373 15.671 102.099C15.6436 102.125 15.6422 102.168 15.6679 102.195C15.6791 102.207 15.6935 102.214 15.7085 102.216C15.7281 102.219 15.7486 102.213 15.7641 102.199Z" fill="#1A1A1A"/>
<path d="M22.5092 114.26C26.6424 114.812 29.1213 113.886 29.147 113.876L29.1888 113.86L29.7631 98.76C29.7647 98.7224 29.7341 98.6911 29.6979 98.6893C29.6604 98.6877 29.6287 98.7169 29.6272 98.7545L29.0565 113.764C28.6979 113.888 26.0589 114.72 21.8761 114.028C21.8406 114.025 21.804 114.047 21.7979 114.084C21.7918 114.121 21.8169 114.156 21.8539 114.162C22.0768 114.199 22.2951 114.231 22.5092 114.26Z" fill="#1A1A1A"/>
<path d="M31.3044 91.2502L26.9337 92.898L27.2035 93.6742L31.6538 92.2554L31.3044 91.2502Z" fill="#335174"/>
<path d="M34.254 89.8799L29.9076 91.5977L30.3427 92.8491L34.8174 91.5004L34.254 89.8799Z" fill="#2C4A68"/>
<path d="M40.0658 87.2849L34.1805 89.6687L34.8909 91.7121L40.9858 89.9312L40.0658 87.2849Z" fill="#335174"/>
<path d="M26.8992 92.8055L26.6531 92.8911L26.9854 93.8469L27.2315 93.7613L26.8992 92.8055Z" fill="#2C4A68"/>
<path d="M40.2115 86.8949L39.9653 86.9805L41.0989 90.241L41.3451 90.1554L40.2115 86.8949Z" fill="#2C4A68"/>
<path d="M36.2397 89.368C36.3561 89.3395 36.4281 89.2474 36.4086 89.1619L36.2486 88.4563C36.2434 88.4336 36.1559 88.3575 36.0177 88.3843C35.8796 88.4112 35.8081 88.5517 35.8081 88.5517L35.9674 89.2541C35.9884 89.3464 36.1123 89.3994 36.2397 89.368Z" fill="#FE9F73"/>
<path d="M36.7079 89.3052C36.8237 89.275 36.8934 89.182 36.8718 89.0971L36.6792 88.3407C36.6734 88.3181 36.5504 88.273 36.4128 88.3018C36.2752 88.3305 36.2347 88.4198 36.2347 88.4198L36.4323 89.1955C36.4556 89.2871 36.5811 89.3382 36.7079 89.3052Z" fill="#FE9F73"/>
<path d="M37.1563 89.2142C37.2638 89.1852 37.3275 89.0982 37.306 89.0193L37.1152 88.3171C37.1095 88.2961 36.9941 88.2552 36.8662 88.2831C36.7383 88.3109 36.7019 88.3944 36.7019 88.3944L36.8975 89.1145C36.9207 89.1995 37.0384 89.246 37.1563 89.2142Z" fill="#FE9F73"/>
<path d="M36.2302 89.3384C36.1804 89.3506 36.1296 89.3477 36.0874 89.3299C36.0452 89.3122 36.0173 89.2825 36.009 89.246L35.8514 88.5507C35.8473 88.5342 35.8258 88.5242 35.8029 88.5287C35.7799 88.5332 35.7644 88.5503 35.7681 88.567L35.9258 89.2622C35.9377 89.3147 35.9795 89.3595 36.0405 89.385C36.1022 89.4108 36.1764 89.4153 36.2492 89.3974C36.3853 89.364 36.4736 89.2568 36.4502 89.1536L36.2741 88.3943C36.2737 88.3921 36.2728 88.3901 36.2717 88.3881C36.2645 88.3753 36.2455 88.3685 36.2255 88.3725C36.2025 88.3771 36.1871 88.3942 36.1909 88.4109L36.367 89.17C36.3833 89.2416 36.3232 89.3156 36.2302 89.3384Z" fill="#F07162"/>
<path d="M35.8414 89.5309C35.9544 89.4994 36.0205 89.4077 36 89.3243L35.8149 88.5674C35.8094 88.5448 35.6862 88.4962 35.5491 88.5271C35.4695 88.545 35.3682 88.6367 35.3874 88.7152L35.5601 89.4215C35.5829 89.5151 35.712 89.567 35.8414 89.5309Z" fill="#FE9F73"/>
<path d="M35.8245 89.5032C35.7749 89.5158 35.7241 89.5133 35.6814 89.496C35.6388 89.4786 35.6104 89.4492 35.6016 89.4128L35.4321 88.7198C35.4278 88.7034 35.4061 88.6936 35.3832 88.6983C35.3603 88.703 35.345 88.7202 35.3491 88.7369L35.5185 89.4299C35.5313 89.4822 35.5739 89.5265 35.6354 89.5515C35.6976 89.5768 35.7719 89.5806 35.8446 89.5621C35.9803 89.5274 36.0669 89.4196 36.0418 89.3167L35.8528 88.56C35.8523 88.5578 35.8514 88.5558 35.8503 88.5538C35.8429 88.5411 35.8238 88.5344 35.8038 88.5386C35.7809 88.5433 35.7657 88.5607 35.7699 88.5773L35.9588 89.3339C35.9762 89.4051 35.9172 89.4795 35.8245 89.5032Z" fill="#F07162"/>
<path d="M36.6976 89.2756C36.648 89.2885 36.5972 89.2863 36.5544 89.2692C36.5116 89.2522 36.483 89.2229 36.4737 89.1866L36.2762 88.411C36.2721 88.3943 36.2501 88.3849 36.2271 88.3897C36.2042 88.3945 36.1891 88.4119 36.1933 88.4285L36.3908 89.2042C36.404 89.2564 36.4471 89.3004 36.5089 89.3251C36.5715 89.3501 36.6458 89.3534 36.7182 89.3345C36.8531 89.2993 36.9319 89.1987 36.9056 89.0953L36.7037 88.3607C36.7031 88.3588 36.7024 88.357 36.7015 88.3554C36.6941 88.3423 36.6744 88.3355 36.6541 88.34C36.6313 88.3451 36.6165 88.3626 36.621 88.379L36.8227 89.1132C36.8411 89.1846 36.7896 89.2516 36.6976 89.2756Z" fill="#F07162"/>
<path d="M37.1183 89.1973C37.0731 89.2095 37.0265 89.2078 36.9869 89.1925C36.9475 89.1773 36.9207 89.1507 36.9117 89.1176L36.7161 88.3975C36.7118 88.3811 36.6895 88.3717 36.6666 88.3767C36.6438 88.3817 36.6289 88.3992 36.6334 88.4158L36.829 89.1357C36.8424 89.1847 36.8836 89.2258 36.9422 89.2486C37.0017 89.2716 37.0718 89.2741 37.1399 89.2557C37.2672 89.2213 37.3464 89.1189 37.3201 89.0224L37.1294 88.3203C37.1289 88.3184 37.1282 88.3166 37.1272 88.3149C37.1198 88.3018 37.1001 88.295 37.0799 88.2995C37.0571 88.3045 37.0422 88.322 37.0467 88.3385L37.2375 89.0407C37.2552 89.1057 37.2029 89.1744 37.1183 89.1973Z" fill="#F07162"/>
<path d="M55.632 132.771L55.8027 137.837L58.7854 137.978L61.1053 116.972L55.1914 117.753L56.1947 126.766L55.8627 128.916C55.6657 130.191 55.5885 131.482 55.632 132.771Z" fill="#FE9F73"/>
<path d="M54.5295 117.753L48.7971 116.972L46.5729 134.556L46.1196 138.139L49.2485 137.837L52.1609 126.761L54.5295 117.753Z" fill="#FE9F73"/>
<path d="M49.3189 139.503C49.3643 139.503 49.4012 139.467 49.4012 139.421V139.019C49.4012 138.952 49.3474 138.899 49.281 138.899H46.6239L45.5466 137.725L43.5762 138.899H43.1518C43.0056 138.899 42.8715 138.997 42.844 139.141C42.8069 139.334 42.9541 139.503 43.1407 139.503L49.3189 139.503Z" fill="#7FC6A6"/>
<path d="M48.1286 137.516C48.1286 137.516 47.0981 138.247 46.1896 137.363L43.9336 138.364C43.9336 138.364 43.315 138.57 43.1476 138.902H49.2575V137.811C49.2575 137.811 48.81 137.209 48.1286 137.516Z" fill="#2C4A68"/>
<path d="M49.2802 137.811H49.235V138.897H49.2802V137.811Z" fill="#1A1A1A"/>
<path d="M48.1158 137.498C47.6094 137.846 47.0769 137.772 47.0716 137.771L47.0649 137.816C47.0666 137.816 47.1187 137.823 47.205 137.823C47.4023 137.823 47.7786 137.785 48.1414 137.535L48.1158 137.498Z" fill="#1A1A1A"/>
<path d="M48.9713 138.467L48.6832 138.661L48.7084 138.698L48.9966 138.504L48.9713 138.467Z" fill="#1A1A1A"/>
<path d="M48.7611 138.417L48.473 138.611L48.4983 138.648L48.7864 138.454L48.7611 138.417Z" fill="#1A1A1A"/>
<path d="M49.4237 139.354V139.052C49.4237 138.956 49.3455 138.878 49.2495 138.878H43.1406C42.9614 138.878 42.8156 139.024 42.8156 139.203C42.8156 139.299 42.8574 139.389 42.9303 139.451L42.9596 139.416C42.8968 139.363 42.8607 139.285 42.8607 139.203C42.8607 139.049 42.9862 138.923 43.1405 138.923H49.2494C49.3205 138.923 49.3783 138.981 49.3783 139.052V139.354H49.4237Z" fill="#1A1A1A"/>
<path d="M43.7284 138.471C44.1825 138.278 46.1787 137.392 46.1988 137.383L46.1804 137.342C46.1603 137.351 44.1644 138.236 43.7106 138.43C43.2488 138.627 43.1251 138.88 43.1201 138.891L43.161 138.91C43.1621 138.908 43.2841 138.661 43.7284 138.471Z" fill="#1A1A1A"/>
<path d="M61.8942 139.503C62.0807 139.503 62.2279 139.334 62.1908 139.141C62.1632 138.997 62.0292 138.899 61.883 138.899H61.4586L59.4882 137.725L58.4109 138.899H55.7537C55.6874 138.899 55.6335 138.952 55.6335 139.019V139.421C55.6335 139.467 55.6704 139.503 55.7158 139.503L61.8942 139.503Z" fill="#7FC6A6"/>
<path d="M61.101 138.364L58.845 137.363C57.9365 138.247 56.906 137.516 56.906 137.516C56.2246 137.209 55.7771 137.811 55.7771 137.811V138.902H61.887C61.7196 138.57 61.101 138.364 61.101 138.364Z" fill="#2C4A68"/>
<path d="M55.7998 137.811H55.7545V138.897H55.7998V137.811Z" fill="#1A1A1A"/>
<path d="M57.963 137.771C57.9577 137.772 57.4251 137.846 56.9188 137.498L56.8932 137.535C57.256 137.785 57.6323 137.823 57.8296 137.823C57.9159 137.823 57.968 137.816 57.9697 137.816L57.963 137.771Z" fill="#1A1A1A"/>
<path d="M56.0682 138.461L56.043 138.498L56.3313 138.692L56.3566 138.655L56.0682 138.461Z" fill="#1A1A1A"/>
<path d="M56.2708 138.409L56.2455 138.446L56.5335 138.64L56.5588 138.603L56.2708 138.409Z" fill="#1A1A1A"/>
<path d="M62.1043 139.451C62.1773 139.389 62.2191 139.299 62.2191 139.203C62.2191 139.024 62.0733 138.878 61.8941 138.878H55.7852C55.6891 138.878 55.611 138.956 55.611 139.052V139.354H55.6562V139.052C55.6562 138.981 55.7141 138.923 55.7852 138.923H61.8941C62.0483 138.923 62.1738 139.049 62.1738 139.203C62.1738 139.285 62.1378 139.363 62.075 139.416L62.1043 139.451Z" fill="#1A1A1A"/>
<path d="M61.8737 138.91L61.9146 138.891C61.9095 138.88 61.7858 138.627 61.324 138.43C60.8702 138.236 58.8744 137.351 58.8542 137.342L58.8358 137.383C58.8559 137.392 60.8522 138.278 61.3062 138.471C61.7505 138.661 61.8725 138.908 61.8737 138.91Z" fill="#1A1A1A"/>
<path d="M49.3867 104.853C48.8045 104.638 47.5214 104.01 46.6328 103.235C46.0615 104.307 44.6392 106.757 44.6473 107.316C44.6754 109.246 46.7476 112.638 47.7144 113.526L49.1095 111.908C48.7215 111.246 47.6249 107.791 47.9035 107.355C48.1722 106.935 48.8206 105.756 49.3867 104.853Z" fill="#FE9F73"/>
<path d="M65.9484 89.9284L64.013 89.2148L61.874 94.1285L59.1049 97.0279L60.6893 99.969L64.0854 95.4215L65.9484 89.9284Z" fill="#FE9F73"/>
<path d="M64.0195 89.4779L64.0174 89.3923C63.9952 89.4376 64.0304 89.5341 64.0195 89.4779Z" fill="#FE9F73"/>
<path d="M66.0868 86.2285C66.1404 86.1211 66.1062 85.9869 66.0024 85.9264C65.8888 85.8602 65.7448 85.9045 65.6869 86.0203C65.6869 86.0203 64.807 87.569 64.6498 87.8L64.4083 87.1947C64.3846 87.0725 64.2663 86.9927 64.1441 87.0165C64.0219 87.0403 63.9421 87.1585 63.9659 87.2808L64.0173 89.3923C64.0266 89.3734 64.0457 89.3633 64.0827 89.3773C65.1256 90.2028 65.5613 89.8904 65.8629 90.0871L66.4835 88.9343C66.5797 88.7806 66.8172 88.3308 66.8082 88.2164C66.7925 88.0186 66.6081 87.9862 66.4319 87.8799C66.184 87.7303 65.9003 87.533 65.6736 87.3832C65.66 87.3858 65.6453 87.3832 65.6329 87.3749L65.5842 87.3421C65.5759 87.3364 65.5703 87.3285 65.5662 87.32C65.5592 87.3052 65.5581 87.2878 65.5659 87.2723L66.0868 86.2285Z" fill="#FE9F73"/>
<path d="M65.3476 88.3875L66.0948 87.5027C66.1172 87.4762 66.0941 87.3217 65.9779 87.223C65.8617 87.1244 65.7351 87.1713 65.7351 87.1713L64.9688 88.0787C64.8782 88.1858 64.8959 88.3483 65.0106 88.433C65.1152 88.5104 65.2636 88.4869 65.3476 88.3875Z" fill="#FE9F73"/>
<path d="M65.7359 88.7132L66.466 87.8142C66.4879 87.7872 66.4618 87.6332 66.3438 87.5368C66.2257 87.4404 66.1001 87.4896 66.1001 87.4896L65.3513 88.4116C65.2628 88.5205 65.2836 88.6826 65.3999 88.7651C65.5059 88.8405 65.6538 88.8142 65.7359 88.7132Z" fill="#FE9F73"/>
<path d="M66.1031 88.9629L66.7733 88.1175C66.7934 88.0922 66.7674 87.949 66.6564 87.8605C66.5454 87.772 66.4289 87.8193 66.4289 87.8193L65.7415 88.6861C65.6603 88.7886 65.6814 88.9393 65.7906 89.0149C65.8903 89.084 66.0277 89.0579 66.1031 88.9629Z" fill="#FE9F73"/>
<path d="M65.6871 87.2992C65.7033 87.2797 65.701 87.2507 65.6817 87.2345C65.6623 87.2181 65.6333 87.2206 65.6168 87.2399L64.9337 88.049C64.8821 88.11 64.8579 88.1906 64.8672 88.27C64.8766 88.3505 64.9178 88.4215 64.9833 88.4699C65.1057 88.5605 65.2812 88.5373 65.3827 88.4171L66.1263 87.5302C66.1284 87.5276 66.1302 87.5249 66.1318 87.522C66.1416 87.5033 66.1375 87.4796 66.1206 87.4655C66.1011 87.4492 66.0721 87.4517 66.0558 87.4711L65.3123 88.3579C65.2421 88.4411 65.1215 88.4579 65.0379 88.3961C64.9931 88.3629 64.9648 88.3143 64.9584 88.2593C64.9519 88.2043 64.968 88.1507 65.0039 88.1083L65.6871 87.2992Z" fill="#F07162"/>
<path d="M66.1357 87.5188C66.1517 87.4992 66.1487 87.4701 66.129 87.4541C66.1092 87.4382 66.0803 87.4411 66.0643 87.4608L65.3155 88.3827C65.265 88.4447 65.2425 88.5257 65.2533 88.6051C65.2642 88.6853 65.3069 88.7556 65.3731 88.8027C65.4968 88.8906 65.659 88.8649 65.7589 88.742L66.4587 87.8555C66.4604 87.8533 66.4621 87.8509 66.4633 87.8484C66.4734 87.8292 66.4687 87.8049 66.4511 87.791C66.4312 87.7753 66.4023 87.7787 66.3865 87.7986L65.6871 88.6845C65.618 88.7696 65.5107 88.7875 65.4264 88.7277C65.381 88.6955 65.3519 88.6475 65.3443 88.5926C65.3368 88.5377 65.3518 88.4839 65.3869 88.4407L66.1357 87.5188Z" fill="#F07162"/>
<path d="M66.4649 87.8477C66.4806 87.8281 66.4774 87.7989 66.4575 87.7832C66.4377 87.7674 66.4087 87.7707 66.3929 87.7906L65.7056 88.6575C65.6588 88.7165 65.6382 88.793 65.6493 88.8676C65.6605 88.9432 65.7014 89.0089 65.7645 89.0525C65.8825 89.1343 66.047 89.1073 66.1391 88.9911L66.8094 88.1458C66.8112 88.1435 66.8128 88.1411 66.8141 88.1386C66.8241 88.1195 66.8196 88.0952 66.802 88.0812C66.7822 88.0654 66.7532 88.0688 66.7374 88.0887L66.0671 88.934C66.0051 89.0123 65.8952 89.0311 65.8169 88.9769C65.7749 88.9479 65.7477 88.9042 65.7403 88.854C65.7328 88.8038 65.746 88.7543 65.7776 88.7144L66.4649 87.8477Z" fill="#F07162"/>
<path d="M64.0851 95.712C63.2297 94.3295 62.7215 94.0198 61.7856 94.1311C60.819 94.8546 56.8851 98.6049 56.5401 98.7304C56.5119 98.7406 56.4646 98.7494 56.4014 98.7571L58.5904 103.236C58.7074 103.236 60.6492 100.625 64.0851 95.712Z" fill="#33182C"/>
<path d="M55.2732 91.1707C53.9845 90.4168 53.9435 91.928 53.4935 92.1148C53.0436 92.3015 52.1872 92.2215 51.9673 93.1217C51.7475 94.0218 51.9899 94.6399 51.5155 94.8273C51.0411 95.0148 49.5694 96.4272 50.1588 98.01C50.7481 99.5929 52.3229 99.3329 52.3229 99.3329C52.3229 99.3329 58.5713 98.9226 58.8159 97.2593C59.0604 95.5961 58.3832 94.9614 57.5346 94.5008C57.0132 94.2178 56.0082 94.045 56.2069 93.0213C56.2069 93.0213 56.562 91.9247 55.2732 91.1707Z" fill="#FECC86"/>
<path d="M56.1048 96.3184C56.3818 95.7533 55.6175 93.5974 55.6175 93.5974L52.9587 93.923L53.8488 98.4815L55.8095 98.0986L55.5381 96.7092C55.9733 96.616 56.1048 96.3184 56.1048 96.3184Z" fill="#FE9F73"/>
<path d="M55.1441 94.4386C55.1349 94.4345 55.1242 94.4385 55.12 94.4477C55.1156 94.4574 55.0137 94.6864 55.1115 94.8986C55.1715 95.0288 55.2933 95.1228 55.4737 95.1782C55.4619 95.2286 55.417 95.3844 55.3068 95.4314C55.2976 95.4354 55.2933 95.446 55.2972 95.4553C55.3007 95.4633 55.3092 95.4676 55.3174 95.466C55.3187 95.4658 55.3199 95.4654 55.3211 95.4649C55.4705 95.401 55.5114 95.1781 55.513 95.1687L55.5159 95.1525L55.5002 95.148C55.3215 95.0965 55.2019 95.0075 55.1447 94.8836C55.0539 94.6866 55.1522 94.4649 55.1532 94.4627C55.1573 94.4536 55.1532 94.4428 55.1441 94.4386Z" fill="#F07162"/>
<path d="M53.9371 96.5061C53.9371 96.5061 54.8718 97.1549 55.6483 97.273L55.5356 96.709C55.5356 96.709 54.5747 96.7902 53.9371 96.5061Z" fill="#F07162"/>
<path d="M54.0388 94.7379C54.0482 94.7361 54.0568 94.7305 54.0624 94.7219C54.0758 94.7011 54.3965 94.2149 54.8219 94.439C54.8397 94.4484 54.8617 94.4415 54.871 94.4238C54.8804 94.406 54.8736 94.3839 54.8558 94.3746C54.3713 94.119 54.0048 94.6768 54.0012 94.6824C53.9903 94.6993 53.9952 94.7218 54.012 94.7327C54.0204 94.7381 54.0299 94.7396 54.0388 94.7379Z" fill="#33192C"/>
<path d="M55.2604 94.2084C55.2628 94.2054 55.4978 93.9096 55.6787 94.012C55.6962 94.022 55.7185 94.0158 55.7284 93.9983C55.7383 93.9809 55.7321 93.9586 55.7147 93.9487C55.4792 93.815 55.2144 94.1493 55.2031 94.1635C55.1908 94.1794 55.1936 94.2022 55.2094 94.2146C55.2181 94.2214 55.2288 94.2236 55.2389 94.2217C55.2471 94.2201 55.2549 94.2156 55.2604 94.2084Z" fill="#33192C"/>
<path d="M55.7283 94.6147C55.7176 94.5597 55.6643 94.5239 55.6093 94.5346C55.5544 94.5453 55.5185 94.5986 55.5292 94.6535C55.54 94.7085 55.5932 94.7443 55.6481 94.7336C55.7032 94.7229 55.739 94.6696 55.7283 94.6147Z" fill="#1A1A1A"/>
<path d="M54.709 94.8137C54.6983 94.7587 54.645 94.7229 54.5901 94.7336C54.5352 94.7443 54.4992 94.7976 54.5099 94.8526C54.5207 94.9076 54.5739 94.9434 54.6289 94.9327C54.6839 94.9219 54.7198 94.8686 54.709 94.8137Z" fill="#1A1A1A"/>
<path d="M53.2153 96.1265C53.5235 96.0663 53.7245 95.7678 53.6643 95.4596C53.6042 95.1515 53.3056 94.9505 52.9975 95.0106C52.6894 95.0708 52.4883 95.3694 52.5485 95.6775C52.6086 95.9856 52.9072 96.1866 53.2153 96.1265Z" fill="#FE9F73"/>
<path d="M53.2399 95.5199L53.2942 95.5562L53.2666 95.4971C53.2234 95.4049 53.1617 95.3455 53.0831 95.3203C52.947 95.2769 52.8112 95.3523 52.8055 95.3555C52.7967 95.3605 52.7937 95.3716 52.7986 95.3803C52.8035 95.389 52.8146 95.3922 52.8234 95.3872C52.8246 95.3865 52.951 95.3163 53.072 95.3549C53.1258 95.3721 53.1708 95.4084 53.2064 95.4631C53.1396 95.4373 53.0216 95.415 52.9158 95.5133C52.8415 95.5823 52.8263 95.6902 52.877 95.7883C52.92 95.8712 53.0153 95.9439 53.1325 95.921C53.1335 95.9208 53.1347 95.9205 53.1358 95.9203C53.1456 95.9182 53.1519 95.9086 53.1499 95.8988C53.1478 95.8889 53.1379 95.8826 53.1284 95.8847C53.0214 95.9069 52.9437 95.8377 52.9095 95.7715C52.8768 95.7084 52.8654 95.6098 52.9407 95.54C53.0768 95.4134 53.2334 95.5155 53.2399 95.5199Z" fill="#F07162"/>
<path d="M55.5317 93.6078L55.6175 93.5974C55.6175 93.5974 55.2801 92.7718 54.1126 92.9015C52.9451 93.0313 52.9586 93.923 52.9586 93.923L54.3218 93.9329L55.5317 93.6078Z" fill="#FE9F73"/>
<path d="M53.1697 95.0036C53.8509 94.9249 53.9391 93.7317 53.9391 93.7317C54.8976 93.7092 55.4755 92.8701 55.4755 92.8701L55.1761 92.3157C55.1761 92.3157 53.8608 92.6549 53.7814 92.6704C53.702 92.6859 52.5473 93.4418 52.5473 93.4418C52.5473 93.4418 52.4885 95.0823 53.1697 95.0036Z" fill="#FECC86"/>
<path d="M54.9354 95.053C54.9069 95.0585 54.9155 95.1028 54.9441 95.0972C54.9726 95.0917 54.9639 95.0474 54.9354 95.053Z" fill="#EA5942"/>
<path d="M54.8165 95.1589C54.7879 95.1645 54.7967 95.2088 54.8252 95.2032C54.8536 95.1975 54.845 95.1534 54.8165 95.1589Z" fill="#EA5942"/>
<path d="M54.5413 95.0471C54.5128 95.0527 54.5215 95.0969 54.55 95.0914C54.5785 95.0858 54.5698 95.0415 54.5413 95.0471Z" fill="#EA5942"/>
<path d="M54.3631 95.2473C54.3346 95.2529 54.3433 95.2971 54.3718 95.2916C54.4004 95.286 54.3916 95.2417 54.3631 95.2473Z" fill="#EA5942"/>
<path d="M54.1023 95.0759C54.0737 95.0815 54.0825 95.1257 54.1109 95.1202C54.1394 95.1146 54.1307 95.0704 54.1023 95.0759Z" fill="#EA5942"/>
<path d="M54.0848 95.4104C54.0563 95.416 54.065 95.4602 54.0934 95.4547C54.122 95.449 54.1133 95.4048 54.0848 95.4104Z" fill="#EA5942"/>
<path d="M55.3535 94.8369C55.3249 94.8425 55.3337 94.8867 55.3622 94.8812C55.3906 94.8756 55.382 94.8313 55.3535 94.8369Z" fill="#EA5942"/>
<path d="M55.5527 94.9841C55.5241 94.9897 55.5329 95.034 55.5614 95.0284C55.5899 95.0228 55.5813 94.9786 55.5527 94.9841Z" fill="#EA5942"/>
<path d="M55.7364 94.8655C55.7079 94.871 55.7166 94.9153 55.745 94.9097C55.7737 94.9042 55.7649 94.8599 55.7364 94.8655Z" fill="#EA5942"/>
<path d="M55.8127 95.1765C55.7842 95.1821 55.7929 95.2263 55.8214 95.2208C55.8499 95.2152 55.8412 95.1709 55.8127 95.1765Z" fill="#EA5942"/>
<path d="M55.9261 94.9629C55.8976 94.9684 55.9063 95.0127 55.9347 95.0072C55.9634 95.0016 55.9546 94.9573 55.9261 94.9629Z" fill="#EA5942"/>
<path d="M55.8378 94.6958C55.8092 94.7014 55.8179 94.7456 55.8464 94.7401C55.8749 94.7345 55.8662 94.6902 55.8378 94.6958Z" fill="#EA5942"/>
<path d="M54.6843 95.3296C54.6558 95.3352 54.6644 95.3794 54.693 95.3739C54.7215 95.3682 54.7128 95.324 54.6843 95.3296Z" fill="#EA5942"/>
<path d="M53.9726 98.019C52.9288 97.9199 50.8268 98.1108 49.7958 98.8202C48.6248 99.9629 46.4033 103.358 44.7334 106.406C44.7334 106.406 45.7163 106.865 47.8608 107.535L50.0677 103.779C50.5669 105.209 51.2183 106.742 51.2458 106.923C51.2667 107.06 51.0683 107.208 50.9901 107.389C50.928 107.532 50.4267 108.361 49.975 109.314C49.4601 110.401 48.9845 111.636 48.8525 111.941C47.4916 115.092 46.4697 119.121 45.9762 122.651C45.9762 122.651 54.2974 127.075 61.6384 123.288C61.7339 122.772 61.9139 121.648 61.8076 121.129C61.858 116.499 61.0633 111.135 58.8549 107.024C58.9019 106.794 58.9349 103.596 59.1952 103.436C59.5718 102.808 59.6836 101.915 59.3726 101.239C59.1637 100.77 57.6309 98.4041 57.4233 98.1542L57.4237 98.1538C56.3418 97.9575 55.2812 97.9946 53.9726 98.019Z" fill="#49263E"/>
<path d="M50.4774 99.3411C50.797 98.9149 51.3192 98.7417 51.3245 98.7401C51.3418 98.7344 51.3514 98.7158 51.3457 98.6984C51.3402 98.6811 51.3214 98.6715 51.3041 98.6772C51.2819 98.6844 50.7569 98.8581 50.4245 99.3014C50.4135 99.3161 50.4165 99.3367 50.4311 99.3478C50.4371 99.3522 50.444 99.3544 50.4509 99.3544C50.461 99.3543 50.4709 99.3498 50.4774 99.3411Z" fill="#21111D"/>
<path d="M50.5397 99.6475C50.8593 99.2213 51.3815 99.0481 51.3868 99.0465C51.4041 99.0408 51.4137 99.0222 51.408 99.0048C51.4024 98.9875 51.3837 98.9779 51.3664 98.9836C51.3442 98.9908 50.8193 99.1645 50.4868 99.6078C50.4757 99.6224 50.4787 99.6431 50.4933 99.6541C50.4993 99.6586 50.5062 99.6607 50.5131 99.6607C50.5233 99.6607 50.5332 99.6562 50.5397 99.6475Z" fill="#21111D"/>
<path d="M52.109 107.064C52.1105 107.064 52.1119 107.064 52.1132 107.064C52.1332 107.064 52.1504 107.049 52.1525 107.029C52.1548 107.007 52.1391 106.988 52.1173 106.985L51.262 106.895C51.24 106.892 51.2208 106.908 51.2185 106.93C51.2162 106.951 51.2319 106.971 51.2537 106.973L52.109 107.064Z" fill="#1A1A1A"/>
<path d="M59.0716 103.559L58.8158 107.022L58.8148 107.035L58.8219 107.046C58.8307 107.06 59.7129 108.467 60.5031 111.155C61.2323 113.635 62.0301 117.745 61.6888 123.238C61.6875 123.26 61.704 123.279 61.7258 123.28C61.7267 123.28 61.7276 123.28 61.7284 123.28C61.7491 123.28 61.7665 123.264 61.7678 123.243C62.11 117.737 61.3097 113.616 60.578 111.128C59.822 108.558 58.981 107.154 58.8957 107.015L59.1491 103.585C60.2846 101.848 58.9173 100.437 58.9034 100.423C58.8881 100.408 58.8629 100.408 58.8474 100.423C58.8318 100.439 58.8318 100.464 58.8472 100.479C58.8607 100.493 60.1871 101.864 59.0773 103.551L59.0716 103.559Z" fill="#1A1A1A"/>
<path d="M55.44 95.9741C55.6476 95.9305 55.6757 95.6855 55.6757 95.6855C55.6757 95.6855 55.1168 95.8012 55.1083 95.8046C55.1083 95.8046 55.2324 96.0176 55.44 95.9741Z" fill="#FBFDFC"/>
<path d="M46.4351 120.268C46.4377 120.268 46.4402 120.268 46.4428 120.268C46.4613 120.268 46.4779 120.255 46.4816 120.236C48.1189 111.962 51.2596 107.005 51.2912 106.955L51.3019 106.939L50.4483 104.657L50.3876 104.721L51.214 106.93C51.0102 107.255 47.9966 112.173 46.4041 120.221C46.3997 120.242 46.4137 120.263 46.4351 120.268Z" fill="#1A1A1A"/>
<path d="M50.0566 111.558C49.7174 111.745 49.3376 111.861 49.3376 111.861L49.9166 112.291C49.9166 112.291 50.2903 111.901 50.3501 111.785C50.41 111.668 50.3957 111.37 50.0566 111.558Z" fill="#F07162"/>
<path d="M51.002 114.378L51.0021 114.378L51.002 114.378Z" fill="#FE9F73"/>
<path d="M51.9292 112.801C51.6691 112.509 50.7422 112.056 50.4532 112.017C50.2958 111.996 49.6555 111.906 49.1051 111.828C49.0997 111.819 48.9226 111.508 48.917 111.497L47.7144 113.526L48.3733 113.728C50.0697 114.073 51.0019 114.378 51.0021 114.378C51.002 114.378 51.0019 114.378 51.0019 114.378L51.0021 114.378C51.2896 114.541 51.5658 114.692 51.6919 114.761C51.7601 114.797 51.8424 114.803 51.9127 114.77C52.0088 114.725 52.0806 114.611 51.872 114.318C51.872 114.318 52.4006 114.311 51.9606 113.811C51.9606 113.811 52.5033 113.908 52.0644 113.312C52.0644 113.312 52.4013 113.331 51.9292 112.801Z" fill="#FE9F73"/>
<path d="M51.8486 114.344C51.8631 114.357 51.8853 114.356 51.8982 114.341C51.911 114.327 51.9098 114.305 51.8953 114.292C51.8819 114.28 51.5663 114 51.324 113.862C51.3207 113.86 51.3173 113.859 51.3138 113.858C51.2993 113.855 51.2839 113.862 51.2762 113.875C51.2666 113.892 51.2725 113.913 51.2893 113.923C51.525 114.057 51.8455 114.341 51.8486 114.344Z" fill="#F07162"/>
<path d="M51.9371 113.837C51.9516 113.85 51.9737 113.849 51.9866 113.834C51.9995 113.82 51.9985 113.798 51.9841 113.785C51.9738 113.776 51.7276 113.555 51.4102 113.425C51.4082 113.424 51.4061 113.424 51.4041 113.423C51.3879 113.42 51.371 113.428 51.3646 113.444C51.3572 113.462 51.3658 113.483 51.3837 113.49C51.6893 113.615 51.9346 113.835 51.9371 113.837Z" fill="#F07162"/>
<path d="M52.0398 113.337C52.0536 113.35 52.0758 113.35 52.0894 113.336C52.103 113.323 52.1027 113.3 52.0889 113.287C52.0798 113.278 51.8627 113.067 51.5905 112.946C51.5881 112.945 51.5858 112.944 51.5834 112.943C51.5676 112.94 51.551 112.948 51.5442 112.963C51.5363 112.981 51.5443 113.002 51.562 113.01C51.8228 113.126 52.0377 113.335 52.0398 113.337Z" fill="#F07162"/>
<path d="M46.4033 106.025L44.7334 106.406C44.7334 106.406 44.4007 107.148 44.6473 108.211C44.8939 109.274 45.9166 112.086 47.4006 113.347C47.4006 113.347 48.6039 112.021 48.9547 111.269C48.9547 111.269 47.8016 107.552 47.8317 107.064C47.8618 106.577 46.4033 106.025 46.4033 106.025Z" fill="#49263E"/>
<path d="M64.0851 95.7118C64.5345 95.0701 65.9484 90.2897 65.9484 90.2897C65.0978 89.4207 63.8311 89.3137 63.8311 89.3137L61.7856 94.1309L62.0396 95.8189C62.0396 95.8189 63.6357 96.3535 64.0851 95.7118Z" fill="#33182C"/>
<path d="M56.7556 98.0604C56.7556 98.0604 55.1394 97.7515 52.6603 98.0247C52.6603 98.0247 56.2933 102.255 56.5394 102.776C56.5394 102.776 56.7657 99.1599 56.7556 98.0604Z" fill="white"/>
<path d="M55.4994 98.4647L56.1677 97.9825L55.6563 97.314L55.1761 97.7529L53.6317 97.3695L53.2834 98.1145L55.0594 98.6272L55.2198 98.1853L55.4994 98.4647Z" fill="#A5EFED"/>
<path d="M56.5395 102.776C56.5395 102.776 53.9362 99.182 52.6604 98.0247C52.6604 98.0247 53.0958 99.608 53.3765 100.116L54.405 100.624L54.3862 101.426L56.5395 102.776Z" fill="#33182C"/>
<path d="M56.7555 98.0603C56.5785 99.1464 56.5394 102.776 56.5394 102.776L57.307 100.838L57.0313 100.401L57.3805 99.6606C57.3537 99.46 56.7555 98.0603 56.7555 98.0603Z" fill="#33182C"/>
<path d="M58.5703 112.943L60.3321 110.596L58.5302 112.291L57.3805 110.738L56.1639 112.382L49.6672 110.107L56.184 113.145L57.3805 111.62L58.5703 112.943Z" fill="#33182C"/>
<path d="M56.7238 98.0566C56.5354 99.6871 56.5077 102.745 56.5074 102.776L56.5715 102.777C56.5718 102.746 56.5994 99.691 56.7875 98.064L56.7238 98.0566Z" fill="#1A1A1A"/>
<path d="M60.3101 110.573L58.5346 112.243L57.4062 110.719L57.3547 110.757L58.5259 112.339L60.354 110.619L60.3101 110.573Z" fill="#1A1A1A"/>
<path d="M53.8733 103.886L59.0427 103.95L59.0772 103.55L53.8733 103.886Z" fill="#33182C"/>
<path d="M49.6778 110.077L49.6566 110.138L56.1533 112.412L56.1756 112.42L57.4136 110.747L56.5713 102.773L56.5704 102.765L56.5654 102.758C56.539 102.721 53.9189 99.081 52.6813 98.0005L52.6391 98.0487C53.8457 99.1019 56.3791 102.609 56.5083 102.788L57.3472 110.729L56.1521 112.344L49.6778 110.077Z" fill="#1A1A1A"/>
<path d="M89.6524 71.033L91.2379 73.597L92.3086 70.7789L95.237 70.0632L92.8877 68.1742L93.1121 65.168L90.5894 66.8185L87.7997 65.6761L88.5899 68.5854L86.6414 70.8856L89.6524 71.033Z" fill="#4CB7D8"/>
<path d="M58.3158 77.5559L59.5166 78.6499L59.6546 77.0313L61.0662 76.2273L59.5694 75.596L59.241 74.0051L58.1781 75.2335L56.5635 75.0542L57.4032 76.4447L56.7339 77.9249L58.3158 77.5559Z" fill="#F7597F"/>
<path d="M99.2917 78.287L98.523 76.7217L97.7482 78.284L96.022 78.5314L97.2684 79.7511L96.9702 81.4693L98.5154 80.6608L100.057 81.4752L99.7659 79.7558L101.017 78.5411L99.2917 78.287Z" fill="#FBC758"/>
<path d="M145.92 100.215L147.049 100.59C147.125 100.246 148.274 99.3464 148.23 99.2802L147.049 98.2468L146.316 98.2573C146.189 98.224 145.938 98.1402 145.639 98.0588C145.555 98.306 145.484 98.4946 145.453 98.4886L145.441 98.5449C145.438 98.5593 145.43 98.5711 145.418 98.5787C145.363 98.8387 145.3 99.1708 145.23 99.4454C145.179 99.6404 145.131 99.6066 145.256 99.7551C145.329 99.8408 145.746 100.174 145.92 100.215Z" fill="#FCAF90"/>
<path d="M148.994 97.6214C149.47 96.5529 148.359 96.0762 148.359 96.0762C148.359 96.0762 147.135 97.8999 147.375 98.0203C147.616 98.1406 148.551 98.6177 148.994 97.6214Z" fill="#91D3E2"/>
<path d="M146.471 99.7115C146.593 98.9891 147.09 98.1504 147.09 98.1504C147.09 98.1504 146.908 97.2689 146.325 97.8056C145.741 98.3421 145.309 99.5174 145.256 99.7549C145.204 99.9923 145.757 100.297 145.996 100.383C146.234 100.47 146.357 100.385 146.471 99.7115Z" fill="#52B6C6"/>
<path d="M147.713 96.0748L147.495 95.438C146.989 94.8496 145.445 92.9395 145.445 92.9395L145.378 93.0975L145.01 94.1432L144.264 95.8044L143.305 97.1823L143.144 97.5038L146.333 97.717L147.034 97.578L147.713 96.0748Z" fill="#52B6C6"/>
<path d="M147.438 98.037C147.763 97.7162 148.387 96.9669 148.406 95.9604C148.406 95.9604 148.418 95.6896 148.118 95.5591L147.724 95.3694C147.724 95.3694 147.547 95.2913 147.495 95.4381C147.495 95.4381 147.391 96.8396 146.333 97.7171C146.333 97.7171 146.263 97.8059 146.34 97.8936L146.872 98.1928C146.872 98.1928 147.112 98.3578 147.438 98.037Z" fill="#D4EBF2"/>
<path d="M143.144 97.5038C143.144 97.5038 143.95 97.1161 144.801 95.4664C145.653 93.8167 145.445 92.9395 145.445 92.9395C145.445 92.9395 145.045 92.4381 144.754 92.3686C144.464 92.2992 144.073 92.6051 143.802 92.8679C143.531 93.1306 142.71 94.227 142.442 95.0435C142.173 95.8601 141.864 97.0432 142.231 97.2926C142.599 97.542 143.144 97.5038 143.144 97.5038Z" fill="#91D3E2"/>
<path d="M144.212 95.5298C145.546 93.2183 144.991 92.4993 144.991 92.4993C144.991 92.4993 143.943 92.6362 142.878 95.1127C142.202 96.6856 142.506 97.4167 142.506 97.4167C142.506 97.4167 143.113 97.4344 144.212 95.5298Z" fill="#3B9DA8"/>
<path d="M144.212 95.5297C144.425 95.161 144.589 94.8328 144.716 94.5416C144.451 94.4369 143.959 94.3437 143.614 94.8873C143.242 95.4741 143.643 95.8522 143.906 96.0307C144.004 95.8805 144.105 95.7142 144.212 95.5297Z" fill="#D4EBF2"/>
<path d="M148.123 95.5481L147.729 95.3587C147.725 95.3568 147.633 95.3171 147.559 95.3492C147.529 95.362 147.507 95.3844 147.491 95.4158C146.978 94.8178 145.469 92.951 145.454 92.9321C145.438 92.9115 145.048 92.4266 144.757 92.3573C144.461 92.2866 144.07 92.5914 143.793 92.8595C143.518 93.1262 142.7 94.2204 142.43 95.04C142.135 95.9356 141.86 97.0551 142.225 97.3025C142.585 97.5468 143.119 97.5172 143.144 97.5156L146.312 97.7275C146.302 97.7467 146.289 97.78 146.293 97.8191C145.986 98.1124 145.733 98.5684 145.574 98.9002C145.393 99.2802 145.272 99.6273 145.245 99.7524C145.214 99.8889 145.372 100.036 145.51 100.135C145.672 100.253 145.869 100.35 145.992 100.395C146.009 100.401 146.025 100.406 146.041 100.41C146.118 100.431 146.175 100.427 146.225 100.398C146.337 100.333 146.411 100.134 146.482 99.7137C146.579 99.1417 146.908 98.5018 147.049 98.2469C147.175 98.2432 147.303 98.1806 147.43 98.0606C147.829 98.2542 148.172 98.301 148.451 98.1998C148.687 98.1138 148.874 97.9208 149.005 97.6262C149.185 97.2218 149.163 96.8549 148.938 96.5357C148.765 96.289 148.518 96.1434 148.412 96.0891C148.415 96.0461 148.417 96.0029 148.418 95.9608C148.418 95.958 148.426 95.6803 148.123 95.5481ZM148.984 97.6165C148.855 97.9051 148.673 98.0939 148.443 98.1776C148.169 98.2771 147.829 98.2294 147.433 98.0357L147.426 98.0321L147.42 98.0378C147.293 98.1594 147.166 98.2218 147.042 98.2233L147.035 98.2234L147.032 98.2294C146.892 98.4812 146.557 99.1296 146.459 99.7096C146.391 100.117 146.317 100.317 146.213 100.378C146.16 100.409 146.096 100.407 146 100.372C145.771 100.29 145.217 99.9852 145.268 99.7574C145.295 99.6333 145.415 99.2885 145.596 98.9102C145.754 98.5788 146.007 98.1227 146.314 97.8319L146.318 97.8277L146.317 97.8215C146.309 97.7682 146.342 97.7246 146.342 97.7242L146.356 97.7067L146.334 97.7053L143.144 97.492L143.143 97.492C143.138 97.4924 142.598 97.5272 142.238 97.283C142.079 97.1749 142.035 96.872 142.109 96.3826C142.164 96.0231 142.279 95.5739 142.453 95.0473C142.721 94.2313 143.536 93.1418 143.81 92.8764C144.082 92.6124 144.466 92.312 144.751 92.3802C144.754 92.3809 144.757 92.3816 144.76 92.3825C145.043 92.4582 145.432 92.942 145.436 92.9469C145.451 92.966 146.985 94.8639 147.486 95.4458L147.499 95.4611L147.506 95.442C147.518 95.4073 147.539 95.3834 147.568 95.3709C147.633 95.3429 147.718 95.3798 147.719 95.3801L148.113 95.5696C148.402 95.6954 148.395 95.9491 148.395 95.9599C148.394 96.0045 148.392 96.0499 148.388 96.095L148.388 96.1028L148.395 96.1063C148.567 96.1935 149.403 96.6757 148.984 97.6165Z" fill="#1D1D1B"/>
<path d="M148.278 96.7408C148.403 96.3673 148.412 96.099 148.412 96.0964L148.388 96.0957C148.388 96.0983 148.379 96.3638 148.256 96.7344C148.142 97.0761 147.904 97.5797 147.42 98.038L147.436 98.0551C147.924 97.593 148.163 97.0854 148.278 96.7408Z" fill="#1D1D1B"/>
<path d="M146.994 96.959C147.137 96.7291 147.254 96.48 147.342 96.2185C147.493 95.7732 147.507 95.4418 147.507 95.4384L147.483 95.4375C147.483 95.4408 147.469 95.7695 147.32 96.2118C147.182 96.6197 146.898 97.2104 146.325 97.7081L146.341 97.7258C146.595 97.5045 146.815 97.2465 146.994 96.959Z" fill="#1D1D1B"/>
<path d="M147.04 98.2466L147.044 98.2236C147.039 98.2226 146.506 98.1168 146.315 97.8171L146.295 97.8297C146.445 98.0654 146.788 98.1819 146.951 98.2256C147.001 98.239 147.034 98.2456 147.04 98.2466Z" fill="#1D1D1B"/>
<path d="M144.14 95.6294C143.51 96.6516 143.1 97.0804 142.867 97.2601C142.616 97.4542 142.512 97.4067 142.511 97.4062L142.5 97.4271C142.501 97.4275 142.505 97.4294 142.512 97.4312C142.546 97.4403 142.657 97.4493 142.873 97.2851C143.109 97.1062 143.523 96.6759 144.16 95.6417C144.475 95.1302 144.716 94.6467 144.875 94.2047C145.002 93.8506 145.078 93.5222 145.1 93.2285C145.137 92.7263 145.006 92.5024 145.001 92.4932L144.981 92.5053C144.982 92.5075 145.114 92.7341 145.076 93.2299C145.041 93.6883 144.851 94.4766 144.14 95.6294Z" fill="#1D1D1B"/>
<path d="M147.795 96.0203L147.775 96.0332L147.982 96.3484L148.001 96.3354L147.795 96.0203Z" fill="#1D1D1B"/>
<path d="M147.952 95.898L147.932 95.9109L148.139 96.2261L148.159 96.2132L147.952 95.898Z" fill="#1D1D1B"/>
<path d="M145.734 94.0042L145.714 94.0171L145.921 94.3322L145.941 94.3193L145.734 94.0042Z" fill="#1D1D1B"/>
<path d="M145.886 93.8936L145.866 93.9065L146.073 94.2216L146.093 94.2087L145.886 93.8936Z" fill="#1D1D1B"/>
<path d="M147.108 98.9953L147.075 98.6177L146.286 98.6557L146.249 98.8458L146.2 99.0103L146.27 99.1309L146.793 99.1818L147.108 98.9953Z" fill="#FCAF90"/>
<path d="M146.34 98.6942L147.117 98.6555C147.135 98.6543 147.15 98.633 147.15 98.6075C147.15 98.582 147.134 98.562 147.116 98.563L146.338 98.6017C146.28 98.6047 146.223 98.6412 146.184 98.7018C146.144 98.7633 146.125 98.8421 146.13 98.9237C146.139 99.0762 146.236 99.1913 146.352 99.1855L147.196 99.2801C147.199 99.28 147.201 99.2795 147.204 99.2787C147.219 99.2733 147.23 99.2542 147.229 99.232C147.229 99.2065 147.214 99.1866 147.195 99.1876L146.351 99.0929C146.271 99.0969 146.203 99.0185 146.197 98.9142C146.194 98.8584 146.207 98.8045 146.234 98.7624C146.261 98.7205 146.299 98.6962 146.34 98.6942Z" fill="#F07162"/>
<path d="M145.985 99.0284C146.067 99.0687 146.178 99.0175 146.235 98.9057C146.298 98.7833 146.274 98.6443 146.185 98.6008L145.507 98.2695C145.507 98.2695 145.347 98.3086 145.286 98.4429C145.226 98.5772 145.282 98.6848 145.304 98.6955L145.985 99.0284Z" fill="#FCAF90"/>
<path d="M146.059 99.368C146.123 99.2467 146.101 99.1064 146.013 99.0607L145.27 98.6729C145.27 98.6729 145.169 98.6926 145.107 98.8259C145.044 98.9593 145.061 99.0956 145.082 99.1068L145.807 99.485C145.888 99.5275 146 99.4787 146.059 99.368Z" fill="#FCAF90"/>
<path d="M146.003 98.9879L145.272 98.6258C145.256 98.6179 145.234 98.6295 145.224 98.6519C145.215 98.6713 145.218 98.6922 145.229 98.7027C145.231 98.7042 145.233 98.7056 145.235 98.7067L145.966 99.0688C146.066 99.1175 146.196 99.0532 146.263 98.9225C146.299 98.8527 146.312 98.776 146.301 98.7068C146.289 98.6385 146.254 98.5851 146.203 98.5604L145.532 98.2324C145.516 98.2246 145.495 98.2363 145.485 98.2586C145.475 98.2809 145.48 98.3052 145.496 98.3133L146.166 98.6412C146.202 98.6584 146.225 98.6939 146.233 98.7413C146.241 98.7886 146.232 98.841 146.207 98.8888C146.162 98.9782 146.072 99.0216 146.003 98.9879Z" fill="#F07162"/>
<path d="M146.497 98.5388C146.565 98.4156 146.543 98.2717 146.453 98.2259L145.775 97.88C145.699 97.8415 145.581 97.9227 145.544 97.9995C145.48 98.1319 145.5 98.2691 145.521 98.2802L146.248 98.6509C146.328 98.6917 146.438 98.6464 146.497 98.5388Z" fill="#FCAF90"/>
<path d="M146.268 98.6113L145.542 98.2367C145.526 98.2286 145.505 98.2399 145.495 98.2621C145.486 98.2814 145.488 98.3025 145.499 98.3131C145.501 98.3147 145.503 98.3161 145.505 98.3172L146.23 98.6918C146.329 98.7422 146.46 98.6798 146.528 98.5498C146.564 98.4803 146.578 98.4037 146.568 98.334C146.557 98.2654 146.522 98.2113 146.472 98.1857L145.806 97.8464C145.79 97.8383 145.769 97.8496 145.759 97.8719C145.748 97.8941 145.753 97.9185 145.769 97.9269L146.434 98.2662C146.469 98.284 146.493 98.32 146.5 98.3676C146.507 98.4152 146.498 98.4676 146.473 98.5151C146.426 98.6041 146.336 98.6462 146.268 98.6113Z" fill="#F07162"/>
<path d="M145.835 99.4388L145.136 99.0566C145.12 99.048 145.098 99.0589 145.088 99.081C145.078 99.1005 145.081 99.1223 145.092 99.1329C145.094 99.1343 145.095 99.1355 145.097 99.1364L145.797 99.5188C145.896 99.5705 146.018 99.5145 146.086 99.3853C146.123 99.3161 146.137 99.2395 146.127 99.1697C146.117 99.1008 146.082 99.0463 146.032 99.0202L145.289 98.6324C145.273 98.624 145.252 98.6353 145.241 98.6575C145.231 98.6797 145.235 98.7046 145.251 98.7127L145.994 99.1005C146.029 99.1187 146.052 99.1549 146.059 99.2026C146.066 99.2503 146.056 99.3027 146.031 99.3501C145.985 99.4383 145.904 99.4745 145.835 99.4388Z" fill="#F07162"/>
<path d="M145.858 99.8029C145.919 99.6905 145.9 99.5592 145.819 99.5152L145.132 99.1426C145.132 99.1426 145.038 99.1596 144.979 99.2832C144.92 99.4069 144.934 99.5344 144.954 99.5452L145.623 99.9086C145.699 99.9495 145.803 99.9055 145.858 99.8029Z" fill="#FCAF90"/>
<path d="M145.662 99.8439L144.992 99.4806C144.976 99.472 144.955 99.4831 144.944 99.5051C144.935 99.5246 144.937 99.5463 144.948 99.557C144.95 99.5584 144.952 99.5595 144.953 99.5605L145.623 99.9238C145.715 99.9737 145.839 99.9176 145.904 99.7961C145.939 99.7312 145.954 99.6591 145.945 99.5929C145.936 99.5277 145.904 99.4757 145.857 99.4504L145.17 99.0779C145.154 99.0693 145.133 99.0803 145.122 99.1023C145.112 99.1244 145.116 99.1494 145.131 99.1577L145.818 99.5303C145.85 99.5474 145.871 99.581 145.877 99.625C145.883 99.6689 145.873 99.7168 145.85 99.76C145.806 99.8408 145.724 99.8776 145.662 99.8439Z" fill="#F07162"/>
<path d="M166.177 92.9057C166.15 92.8394 165.867 92.2639 165.867 92.2639C165.867 92.2639 164.931 91.7094 164.01 91.8945C163.476 92.0017 163.073 92.4415 163.001 92.9808L162.93 93.5083L165.801 92.7114C165.801 92.7114 166.203 92.9719 166.177 92.9057Z" fill="#FE9F73"/>
<path d="M165.971 92.4468L163.009 92.9218L162.712 95.1463C162.712 95.1463 162.573 95.9366 163.255 96.1288L162.983 97.1719C162.883 97.5596 163.068 97.9684 163.43 98.1389C163.608 98.2222 163.823 98.2945 164.074 98.328C164.868 98.4341 165.378 97.8955 165.484 97.6064C165.59 97.3172 165.582 95.8666 165.582 95.8666L165.7 95.1701L165.971 92.4468Z" fill="#FCAF90"/>
<path d="M163.999 93.885C164.422 93.6639 164.739 94.148 164.752 94.1687C164.757 94.1766 164.765 94.1818 164.773 94.1835C164.782 94.1851 164.79 94.1838 164.798 94.1789C164.814 94.169 164.818 94.1484 164.808 94.1328C164.805 94.1272 164.446 93.5762 163.968 93.8259C163.952 93.8344 163.945 93.8546 163.954 93.8709C163.962 93.8872 163.983 93.8936 163.999 93.885Z" fill="#4C222E"/>
<path d="M162.891 93.6174C163.01 93.4473 163.347 93.6133 163.351 93.6149C163.358 93.6187 163.366 93.6193 163.374 93.6174C163.383 93.6152 163.391 93.609 163.395 93.6C163.404 93.5835 163.397 93.5634 163.38 93.5552C163.364 93.5471 162.988 93.3618 162.836 93.5791C162.825 93.5941 162.829 93.615 162.844 93.6256C162.859 93.6362 162.88 93.6325 162.891 93.6174Z" fill="#4C222E"/>
<path d="M164.299 94.2978C164.306 94.2429 164.268 94.1925 164.213 94.1852C164.158 94.1779 164.108 94.2164 164.1 94.2713C164.093 94.3261 164.132 94.3766 164.186 94.3839C164.241 94.3912 164.292 94.3526 164.299 94.2978Z" fill="#1A1A1A"/>
<path d="M163.256 94.0573C163.264 94.0025 163.225 93.952 163.17 93.9447C163.115 93.9375 163.065 93.9759 163.058 94.0308C163.05 94.0857 163.089 94.1361 163.144 94.1434C163.198 94.1507 163.249 94.1122 163.256 94.0573Z" fill="#1A1A1A"/>
<path d="M165.387 95.8573C166.411 96.1064 166.46 94.6073 166.497 94.3889C166.533 94.1704 166.949 93.83 166.834 93.0656C166.719 92.3012 165.872 92.2292 165.872 92.2292L165.925 92.4521L165.433 93.3766L165.387 95.8573Z" fill="#33192C"/>
<path d="M166.118 94.5055C166.162 94.1763 165.93 93.8738 165.601 93.8298C165.272 93.7859 164.97 94.0171 164.926 94.3463C164.882 94.6755 165.113 94.9781 165.442 95.022C165.771 95.0659 166.074 94.8348 166.118 94.5055Z" fill="#FCAF90"/>
<path d="M165.543 94.1956C165.669 94.1467 165.809 94.2132 165.81 94.2139C165.818 94.218 165.828 94.2145 165.832 94.2062C165.837 94.1979 165.833 94.188 165.825 94.1839C165.819 94.1808 165.671 94.1103 165.531 94.1644C165.451 94.1956 165.39 94.2618 165.35 94.3613L165.328 94.417L165.376 94.3807C165.383 94.3756 165.543 94.2567 165.697 94.383C165.782 94.453 165.776 94.559 165.745 94.6286C165.713 94.7008 165.635 94.7791 165.521 94.7639C165.52 94.7638 165.519 94.7635 165.518 94.7634C165.509 94.7622 165.501 94.7685 165.499 94.7776C165.498 94.7867 165.504 94.7952 165.513 94.7966C165.514 94.7967 165.516 94.7969 165.517 94.7971C165.641 94.8136 165.736 94.7315 165.776 94.6422C165.822 94.5364 165.8 94.4246 165.718 94.3573C165.597 94.2577 165.47 94.2942 165.403 94.3264C165.438 94.2622 165.485 94.2183 165.543 94.1956Z" fill="#F07162"/>
<path d="M164.957 95.6687C164.304 96.489 163.255 96.1286 163.255 96.1286L163.055 96.8979C164.733 96.9928 164.957 95.6687 164.957 95.6687Z" fill="#F07162"/>
<path d="M163.55 93.9211C163.541 93.9184 163.532 93.9239 163.53 93.9328L163.313 94.7268L163.655 94.8929C163.657 94.8938 163.659 94.8942 163.66 94.8945C163.667 94.8954 163.674 94.8919 163.677 94.8853C163.682 94.877 163.678 94.867 163.67 94.8629L163.353 94.7088L163.562 93.9416C163.564 93.9327 163.559 93.9235 163.55 93.9211Z" fill="#F07162"/>
<path d="M165.429 93.4114C165.429 93.4114 166.853 93.2858 166.55 92.5239C166.246 91.7621 164.825 91.6055 164.093 91.2537C163.362 90.9018 163.361 91.7595 163.361 91.7595C163.361 91.7595 162.764 91.6956 162.84 92.3095C162.917 92.9234 165.429 93.4114 165.429 93.4114Z" fill="#33192C"/>
<path d="M165.186 94.5172C165.171 94.0994 165.425 93.8062 165.425 93.8062L165.498 93.2596C165.498 93.2596 166.006 93.2885 166.072 93.3089C166.138 93.3293 165.663 93.0007 165.638 92.9836C165.613 92.9665 164.708 93.017 164.996 93.22C165.284 93.423 165.004 94.2903 165.014 94.4219C165.024 94.5534 165.186 94.5172 165.186 94.5172Z" fill="#33192C"/>
<path d="M163.717 95.1627C163.708 95.1585 163.114 94.9968 163.114 94.9968C163.114 94.9968 163.128 95.2622 163.349 95.3229C163.569 95.3836 163.717 95.1627 163.717 95.1627Z" fill="#FBFDFC"/>
<path d="M174.431 117.282C174.455 117.282 174.477 117.296 174.485 117.319L174.755 118.039C174.798 118.155 174.924 118.223 175.042 118.187C175.172 118.148 175.239 118.008 175.192 117.884L175.155 117.784C175.007 117.389 174.932 116.969 174.934 116.547L174.924 115.151L174.922 114.86C174.551 114.865 174.358 115.099 172.996 115.244C172.86 115.216 172.693 115.221 172.636 115.282L171.744 116.481C171.656 116.575 171.66 116.722 171.754 116.81C171.847 116.897 171.994 116.893 172.082 116.8L172.625 116.406C172.635 116.693 172.548 118.526 172.548 118.526C172.535 118.659 172.636 118.776 172.771 118.781C172.895 118.786 172.998 118.688 173.011 118.565L173.132 117.37C173.135 117.341 173.158 117.32 173.186 117.319L173.247 117.317C173.278 117.316 173.304 117.341 173.305 117.372L173.343 118.664C173.347 118.797 173.462 118.901 173.597 118.888C173.72 118.877 173.81 118.766 173.806 118.643L173.769 117.358C173.768 117.327 173.792 117.301 173.823 117.3L173.842 117.299C173.869 117.299 173.893 117.317 173.899 117.343L174.158 118.472C174.187 118.599 174.318 118.7 174.448 118.696C174.578 118.692 174.66 118.585 174.631 118.458L174.377 117.351C174.369 117.317 174.395 117.283 174.431 117.282Z" fill="#FCAF90"/>
<path d="M174.794 111.989L172.032 112.115L172.519 115.44L174.927 115.587C174.927 115.587 174.88 113.835 174.794 111.989Z" fill="#FCAF90"/>
<path d="M159.635 135.292L159.58 138.564L162.337 138.603L162.38 135.675L159.635 135.292Z" fill="#FE9F73"/>
<path d="M171.047 134.371L168.226 134.589L168.863 137.799L171.623 137.243L171.047 134.371Z" fill="#FE9F73"/>
<path d="M158.935 135.405C158.942 135.848 159.236 136.233 159.66 136.363C160.537 136.631 161.328 136.698 161.897 136.7C162.411 136.701 162.844 136.316 162.906 135.806C163.846 128.066 164.293 116.237 164.396 113.213C164.411 112.779 164.149 112.385 163.744 112.23L159.952 110.773C159.346 110.54 158.821 110.941 158.723 111.582L158.819 111.741C158.81 111.798 158.594 112.195 158.595 112.252L158.935 135.405Z" fill="#4CB7D8"/>
<path d="M167.353 135.558C167.435 135.911 167.731 136.174 168.09 136.216C169.151 136.34 170.058 136.217 170.646 136.086C171.062 135.994 171.348 135.614 171.319 135.189C171.102 131.984 169.756 128.163 169.285 124.484C168.437 117.858 168.385 111.849 168.385 111.849L160.684 109.589L162.605 115.165L164.396 125.417L167.353 135.558Z" fill="#67CFE8"/>
<path d="M167.204 135.203C167.21 135.222 167.227 135.234 167.246 135.234C167.25 135.234 167.254 135.234 167.258 135.232C167.281 135.226 167.294 135.202 167.288 135.179L164.439 125.407L163.103 117.764C163.099 117.74 163.076 117.725 163.053 117.729C163.029 117.733 163.013 117.756 163.017 117.779L164.354 125.427L164.354 125.43L167.204 135.203Z" fill="#1A1A1A"/>
<path d="M169.122 123.52L169.125 123.52C169.127 123.535 169.13 123.553 169.134 123.576C169.386 125.104 169.858 127.879 170.184 129.292C170.188 129.312 170.206 129.326 170.226 129.326C170.23 129.326 170.233 129.326 170.236 129.325C170.26 129.319 170.274 129.296 170.269 129.272C169.943 127.861 169.472 125.089 169.22 123.562C169.213 123.518 169.208 123.488 169.203 123.467C169.203 123.467 169.203 123.467 169.203 123.467C169.203 123.447 169.2 123.419 169.197 123.379L168.543 115.444C168.541 115.42 168.52 115.402 168.496 115.404C168.472 115.406 168.454 115.427 168.456 115.451C168.463 115.531 169.11 123.379 169.117 123.474C169.117 123.475 169.117 123.476 169.117 123.477L169.122 123.52Z" fill="#1A1A1A"/>
<path d="M158.922 134.65C158.922 134.65 158.922 134.65 158.923 134.65C158.947 134.649 158.966 134.63 158.965 134.605L158.656 115.517C158.655 115.493 158.637 115.473 158.611 115.474C158.587 115.474 158.568 115.494 158.568 115.518L158.878 134.607C158.879 134.631 158.898 134.65 158.922 134.65Z" fill="#1A1A1A"/>
<path d="M162.435 139.503C162.476 139.503 162.509 139.47 162.509 139.428V139.062C162.509 139.002 162.46 138.953 162.4 138.953H159.982L159.002 137.885L157.209 138.953H156.823C156.69 138.953 156.568 139.043 156.543 139.174C156.509 139.349 156.643 139.503 156.813 139.503L162.435 139.503Z" fill="#F7AB48"/>
<path d="M161.352 137.695C161.352 137.695 160.414 138.36 159.587 137.555L157.534 138.466C157.534 138.466 156.971 138.654 156.819 138.956H162.379V137.963C162.379 137.963 161.972 137.415 161.352 137.695Z" fill="#33192C"/>
<path d="M162.399 137.963H162.358V138.951H162.399V137.963Z" fill="#1A1A1A"/>
<path d="M161.34 137.678C160.879 137.995 160.395 137.927 160.39 137.926L160.384 137.967C160.385 137.967 160.433 137.974 160.511 137.974C160.691 137.974 161.033 137.939 161.363 137.712L161.34 137.678Z" fill="#1A1A1A"/>
<path d="M162.105 138.562L161.843 138.739L161.866 138.773L162.128 138.596L162.105 138.562Z" fill="#1A1A1A"/>
<path d="M161.929 138.521L161.667 138.698L161.69 138.732L161.952 138.555L161.929 138.521Z" fill="#1A1A1A"/>
<path d="M162.53 139.367V139.093C162.53 139.005 162.459 138.934 162.371 138.934H156.813C156.649 138.934 156.517 139.067 156.517 139.23C156.517 139.317 156.555 139.399 156.621 139.455L156.648 139.424C156.591 139.376 156.558 139.305 156.558 139.23C156.558 139.089 156.672 138.975 156.813 138.975H162.371C162.436 138.975 162.489 139.028 162.489 139.093V139.367L162.53 139.367Z" fill="#1A1A1A"/>
<path d="M157.348 138.564C157.761 138.388 159.577 137.582 159.595 137.574L159.579 137.536C159.561 137.544 157.744 138.35 157.331 138.526C156.911 138.705 156.799 138.936 156.794 138.946L156.831 138.963C156.832 138.961 156.943 138.737 157.348 138.564Z" fill="#1A1A1A"/>
<path d="M166.537 139.493L171.94 137.937C171.98 137.926 172.002 137.885 171.991 137.845L171.89 137.493C171.873 137.435 171.812 137.401 171.754 137.418L169.431 138.087L168.194 137.332L166.766 138.854L166.395 138.961C166.267 138.998 166.175 139.118 166.187 139.251C166.203 139.429 166.374 139.54 166.537 139.493Z" fill="#F7AB48"/>
<path d="M170.399 136.5C170.399 136.5 169.682 137.398 168.665 136.853L166.944 138.296C166.944 138.296 166.455 138.633 166.392 138.965L171.735 137.427L171.46 136.473C171.46 136.473 170.917 136.059 170.399 136.5Z" fill="#33192C"/>
<path d="M171.47 136.474L171.431 136.485L171.704 137.434L171.744 137.423L171.47 136.474Z" fill="#1A1A1A"/>
<path d="M170.415 136.513L170.383 136.486C170.028 136.919 169.543 136.987 169.539 136.988L169.544 137.029C169.546 137.029 169.593 137.022 169.668 137C169.841 136.95 170.16 136.822 170.415 136.513Z" fill="#1A1A1A"/>
<path d="M171.387 137.121L171.184 137.363L171.215 137.389L171.418 137.147L171.387 137.121Z" fill="#1A1A1A"/>
<path d="M171.194 137.12L170.991 137.362L171.023 137.388L171.226 137.146L171.194 137.12Z" fill="#1A1A1A"/>
<path d="M166.391 138.985L171.733 137.448C171.795 137.43 171.86 137.466 171.878 137.528L171.954 137.792L171.994 137.78L171.918 137.517C171.894 137.433 171.806 137.384 171.722 137.408L166.38 138.946C166.223 138.991 166.132 139.155 166.177 139.312C166.201 139.395 166.261 139.464 166.34 139.5L166.357 139.462C166.289 139.431 166.238 139.372 166.217 139.3C166.178 139.165 166.256 139.024 166.391 138.985Z" fill="#1A1A1A"/>
<path d="M166.792 138.442C167.14 138.158 168.663 136.882 168.678 136.869L168.651 136.837C168.636 136.85 167.114 138.127 166.765 138.41C166.411 138.699 166.367 138.952 166.365 138.962L166.406 138.969C166.406 138.966 166.451 138.72 166.792 138.442Z" fill="#1A1A1A"/>
<path d="M162.818 103.561L160.815 97.7832L154.942 101.971L148.364 98.5957C148.364 98.5957 147.008 99.8365 146.359 101.584C146.359 101.584 152.675 106.353 154.532 106.703C156.39 107.053 162.818 103.561 162.818 103.561Z" fill="#FD7583"/>
<path d="M168.432 114.995L168.823 105.439C168.823 105.439 170.063 107.65 170.431 108.253C170.798 108.857 171.793 114.922 171.793 114.922C174.775 115.233 175.468 114.705 175.468 114.705C175.468 114.705 175.195 107.922 174.954 106.647C174.713 105.373 168.999 98.2592 167.313 97.5677C166.221 97.12 163.659 97.2242 161.988 97.3534C161.004 97.4294 160.059 98.0965 159.926 99.074C159.654 101.067 160.079 106.279 160.079 106.279L158.01 113.649C162.971 115.962 168.432 114.995 168.432 114.995Z" fill="#FD7583"/>
<path d="M146.353 101.617C146.369 101.62 146.385 101.611 146.39 101.595C146.955 99.9416 148.21 98.7787 148.369 98.6357L154.91 101.992L154.968 103.044C154.968 103.062 154.984 103.076 155.003 103.075C155.021 103.074 155.035 103.058 155.034 103.04L154.974 101.951L148.359 98.5559L148.342 98.5706C148.328 98.5826 146.934 99.7974 146.327 101.574C146.321 101.591 146.331 101.61 146.348 101.616C146.35 101.616 146.351 101.617 146.353 101.617Z" fill="#1A1A1A"/>
<path d="M154.961 101.999L159.024 99.1011C159.039 99.0905 159.043 99.0697 159.032 99.0547C159.021 99.0398 159.001 99.0362 158.986 99.047L154.923 101.944C154.908 101.955 154.904 101.976 154.915 101.991C154.92 101.998 154.928 102.003 154.936 102.004C154.945 102.006 154.954 102.004 154.961 101.999Z" fill="#1A1A1A"/>
<path d="M171.76 114.925L171.763 114.952L171.79 114.955C171.899 114.967 174.468 115.254 175.483 114.735C175.499 114.726 175.506 114.706 175.497 114.69C175.489 114.674 175.469 114.667 175.453 114.676C174.51 115.158 172.105 114.921 171.824 114.892C171.577 112.289 170.474 108.285 170.463 108.245L170.46 108.237L167.817 103.634C167.808 103.618 167.788 103.612 167.772 103.621C167.756 103.631 167.75 103.651 167.759 103.667L170.4 108.266C170.441 108.415 171.522 112.365 171.76 114.925Z" fill="#1A1A1A"/>
<path d="M168.602 110.856C168.62 110.857 168.635 110.843 168.636 110.824L168.856 105.441C168.857 105.422 168.842 105.407 168.824 105.406C168.806 105.405 168.79 105.42 168.79 105.438L168.57 110.821C168.569 110.838 168.581 110.852 168.597 110.855C168.598 110.856 168.6 110.856 168.602 110.856Z" fill="#1A1A1A"/>
<path d="M173.486 104.27C173.491 104.277 173.498 104.281 173.506 104.282C173.515 104.284 173.525 104.282 173.532 104.276C173.547 104.265 173.55 104.244 173.539 104.23C169.888 99.3971 167.711 97.7565 167.69 97.7404C167.675 97.7295 167.654 97.7326 167.643 97.7473C167.632 97.762 167.635 97.7829 167.65 97.7939C167.672 97.8099 169.842 99.4464 173.486 104.27Z" fill="#1A1A1A"/>
<path d="M166.233 97.3244C163.938 97.063 162.127 97.359 162.127 97.359C162.127 97.359 162.584 98.4179 163.988 98.5167C165.391 98.6155 166.233 97.3244 166.233 97.3244Z" fill="#FCAF90"/>
</svg>
