<svg width="129" height="120" viewBox="0 0 129 120" fill="none" xmlns="http://www.w3.org/2000/svg">
<path d="M24.9803 9.86597L15.2216 26.8078L28.7584 20.8864L24.9803 9.86597Z" fill="#FF7F00"/>
<path d="M49.9576 120L0 90.7785L42.817 83.4266L46.9626 104.661L49.9576 120Z" fill="#A30006"/>
<path opacity="0.5" d="M46.9626 104.661L0 90.7785L42.817 83.4266L46.9626 104.661Z" fill="#A30006"/>
<path d="M6.24737 21.8721L128.457 13.8574V102.156L0.00305176 90.7769L6.24737 21.8721Z" fill="#C42026"/>
<mask id="mask0_991_635" style="mask-type:luminance" maskUnits="userSpaceOnUse" x="0" y="13" width="129" height="90">
<path d="M6.24737 21.8721L128.457 13.8574V102.156L0.00305176 90.7769L6.24737 21.8721Z" fill="white"/>
</mask>
<g mask="url(#mask0_991_635)">
<path opacity="0.12" d="M15.2216 2.63037V118.193" stroke="white" stroke-width="9.24856" stroke-miterlimit="10"/>
<path opacity="0.12" d="M40.3799 2.63037V118.193" stroke="white" stroke-width="9.24856" stroke-miterlimit="10"/>
<path opacity="0.12" d="M65.5376 2.63037V118.193" stroke="white" stroke-width="9.24856" stroke-miterlimit="10"/>
<path opacity="0.12" d="M90.6959 2.63037V118.193" stroke="white" stroke-width="9.24856" stroke-miterlimit="10"/>
<path opacity="0.12" d="M115.854 2.63037V118.193" stroke="white" stroke-width="9.24856" stroke-miterlimit="10"/>
</g>
<path opacity="0.5" d="M108.82 20.7654L18.9826 29.8613L15.4304 21.2694L105.152 15.7064L108.82 20.7654Z" fill="#A30006"/>
<path d="M24.9803 9.8659L109.791 0L108.82 20.7653L24.9803 26.8077V9.8659Z" fill="#FFCA00"/>
<path d="M46.8248 20.1976C46.3807 20.2404 45.9495 20.2232 45.5313 20.1461C45.1125 20.0637 44.7697 19.9393 44.5029 19.7729L44.8459 18.7634C45.1001 18.9097 45.3938 19.0228 45.7269 19.1028C46.0649 19.177 46.4004 19.198 46.7335 19.166C46.9872 19.1415 47.1885 19.0981 47.3372 19.0358C47.4907 18.9676 47.6002 18.8851 47.6655 18.7881C47.7309 18.6911 47.758 18.5844 47.7468 18.4681C47.7325 18.3201 47.6631 18.2094 47.5387 18.136C47.4137 18.0573 47.2535 18.0007 47.0581 17.9662C46.8622 17.9263 46.6457 17.8938 46.4085 17.8687C46.176 17.8377 45.94 17.7964 45.7002 17.7448C45.4658 17.6926 45.2478 17.6176 45.0463 17.5196C44.8447 17.4216 44.674 17.2833 44.5341 17.1047C44.3995 16.9256 44.3179 16.688 44.2894 16.3919C44.2588 16.0747 44.3157 15.7785 44.4599 15.5031C44.6089 15.222 44.8479 14.9882 45.1767 14.8018C45.5104 14.6096 45.9389 14.4883 46.4623 14.4379C46.8112 14.4043 47.1589 14.4135 47.5054 14.4656C47.8514 14.5123 48.1618 14.6051 48.4366 14.744L48.1341 15.7576C47.8608 15.6345 47.5913 15.5511 47.3256 15.5073C47.0594 15.4583 46.8021 15.4457 46.5536 15.4696C46.3051 15.4935 46.1044 15.5422 45.9514 15.6156C45.7984 15.6891 45.6921 15.7767 45.6326 15.8784C45.5725 15.9749 45.5483 16.084 45.56 16.2056C45.5738 16.3483 45.6431 16.459 45.7681 16.5377C45.8925 16.6111 46.0525 16.665 46.2479 16.6996C46.4433 16.7341 46.6572 16.7669 46.8896 16.7979C47.1273 16.8283 47.3631 16.867 47.5971 16.9138C47.8363 16.9602 48.0567 17.0323 48.2582 17.1303C48.4597 17.2283 48.6278 17.3668 48.7625 17.5459C48.9024 17.7246 48.9863 17.9593 49.0143 18.25C49.0444 18.5619 48.9846 18.8558 48.8351 19.1317C48.6856 19.4075 48.444 19.6415 48.1104 19.8337C47.782 20.0254 47.3535 20.1467 46.8248 20.1976ZM50.0487 19.7912L49.5142 14.2401L50.7988 14.1164L51.3334 19.6675L50.0487 19.7912ZM51.9212 19.6109L53.8608 13.8216L55.1297 13.6994L58.1463 19.0114L56.7982 19.1413L54.2962 14.436L54.8037 14.3871L53.2376 19.4841L51.9212 19.6109ZM53.0437 18.3022L53.2908 17.294L56.1456 17.0191L56.5885 17.9609L53.0437 18.3022ZM58.7222 18.956L58.1877 13.405L60.5905 13.1736C61.0874 13.1257 61.5236 13.1664 61.8988 13.2957C62.2736 13.4197 62.5733 13.623 62.7979 13.9055C63.0225 14.188 63.155 14.538 63.1952 14.9557C63.2349 15.3681 63.1714 15.7343 63.0048 16.0545C62.8383 16.3747 62.5831 16.634 62.2394 16.8325C61.8952 17.0257 61.4746 17.1463 60.9776 17.1941L59.2885 17.3568L59.8037 16.7229L60.0069 18.8323L58.7222 18.956ZM59.8175 16.8656L59.1877 16.31L60.8055 16.1542C61.202 16.1161 61.4899 16.003 61.6692 15.8149C61.8485 15.6269 61.9237 15.3823 61.8946 15.0809C61.8651 14.7743 61.7444 14.5458 61.5325 14.3955C61.3206 14.2451 61.0164 14.189 60.6199 14.2272L59.0022 14.383L59.5143 13.7174L59.8175 16.8656ZM68.6092 18.1C68.1651 18.1428 67.734 18.1256 67.3157 18.0485C66.8969 17.9661 66.5541 17.8417 66.2873 17.6753L66.6303 16.6658C66.8845 16.8121 67.1782 16.9252 67.5114 17.0052C67.8493 17.0794 68.1848 17.1004 68.5179 17.0684C68.7717 17.0439 68.9729 17.0005 69.1216 16.9382C69.2751 16.87 69.3846 16.7875 69.4499 16.6905C69.5153 16.5935 69.5424 16.4868 69.5312 16.3705C69.5169 16.2225 69.4476 16.1118 69.3231 16.0384C69.1982 15.9597 69.038 15.9031 68.8426 15.8686C68.6466 15.8287 68.4301 15.7962 68.1929 15.7711C67.9605 15.7401 67.7244 15.6988 67.4846 15.6472C67.2502 15.595 67.0322 15.52 66.8307 15.422C66.6292 15.324 66.4584 15.1857 66.3185 15.0071C66.1839 14.828 66.1023 14.5904 66.0738 14.2943C66.0433 13.9771 66.1001 13.6809 66.2443 13.4055C66.3934 13.1244 66.6323 12.8906 66.9612 12.7042C67.2948 12.512 67.7233 12.3907 68.2467 12.3403C68.5956 12.3067 68.9433 12.3159 69.2898 12.3679C69.6358 12.4147 69.9462 12.5075 70.2211 12.6464L69.9185 13.66C69.6452 13.5369 69.3757 13.4535 69.11 13.4097C68.8439 13.3607 68.5865 13.3481 68.3381 13.372C68.0896 13.3959 67.8888 13.4446 67.7358 13.518C67.5828 13.5915 67.4766 13.6791 67.417 13.7808C67.3569 13.8773 67.3327 13.9864 67.3444 14.108C67.3582 14.2507 67.4275 14.3614 67.5525 14.4401C67.677 14.5135 67.8369 14.5674 68.0323 14.602C68.2277 14.6365 68.4416 14.6693 68.674 14.7003C68.9117 14.7307 69.1476 14.7694 69.3815 14.8162C69.6208 14.8626 69.8411 14.9347 70.0427 15.0327C70.2442 15.1307 70.4122 15.2692 70.5469 15.4483C70.6868 15.627 70.7708 15.8616 70.7988 16.1524C70.8288 16.4643 70.7691 16.7582 70.6195 17.0341C70.47 17.3099 70.2284 17.5439 69.8948 17.7361C69.5664 17.9278 69.1379 18.0491 68.6092 18.1ZM72.6955 14.265L75.3679 14.0077L75.4642 15.0069L72.7917 15.2642L72.6955 14.265ZM73.0106 16.5397L76.0319 16.2488L76.1312 17.2797L71.8331 17.6936L71.2986 12.1425L75.4936 11.7386L75.5929 12.7695L72.6746 13.0505L73.0106 16.5397ZM77.1534 17.1813L76.6189 11.6302L79.1406 11.3874C79.7433 11.3294 80.2858 11.3945 80.7682 11.5829C81.25 11.7659 81.6403 12.0511 81.9391 12.4385C82.2378 12.826 82.4144 13.3025 82.4689 13.8682C82.5228 14.4286 82.4404 14.9301 82.2216 15.3727C82.0022 15.81 81.6738 16.1671 81.2362 16.444C80.7982 16.7156 80.2778 16.8804 79.6751 16.9385L77.1534 17.1813ZM78.3365 16.0029L79.5101 15.8899C79.8802 15.8542 80.1934 15.7547 80.4498 15.5913C80.711 15.4221 80.9031 15.2008 81.0262 14.9275C81.1546 14.6537 81.202 14.3423 81.1684 13.9934C81.1343 13.6392 81.0283 13.3426 80.8506 13.1036C80.6776 12.8588 80.447 12.6809 80.1589 12.5699C79.8755 12.4532 79.5488 12.4126 79.1787 12.4482L78.0051 12.5612L78.3365 16.0029ZM83.705 16.5504L83.1705 10.9994L84.4551 10.8757L84.9896 16.4267L83.705 16.5504ZM85.5775 16.3701L87.5171 10.5808L88.7859 10.4587L91.8025 15.7707L90.4544 15.9005L87.9525 11.1952L88.46 11.1464L86.8938 16.2434L85.5775 16.3701ZM86.7 15.0615L86.9471 14.0533L89.8019 13.7784L90.2447 14.7202L86.7 15.0615Z" fill="#1A1A1A"/>
<path d="M41.54 58V42.16H51.22V45.152H44.532V48.584H49.9V51.576H44.532V58H41.54ZM51.8912 58L56.7312 42.16H61.1972L66.0372 58H62.9572L58.6452 44.03H59.2172L54.9712 58H51.8912ZM54.7952 54.7V51.906H63.1552V54.7H54.7952ZM73.5631 58.33C72.3897 58.33 71.3301 58.1247 70.3841 57.714C69.4454 57.296 68.6717 56.702 68.0631 55.932C67.4617 55.1547 67.0804 54.2307 66.9191 53.16L70.0431 52.698C70.2631 53.6073 70.7177 54.3077 71.4071 54.799C72.0964 55.2903 72.8811 55.536 73.7611 55.536C74.2524 55.536 74.7291 55.459 75.1911 55.305C75.6531 55.151 76.0307 54.9237 76.3241 54.623C76.6247 54.3223 76.7751 53.952 76.7751 53.512C76.7751 53.3507 76.7494 53.1967 76.6981 53.05C76.6541 52.896 76.5771 52.753 76.4671 52.621C76.3571 52.489 76.1994 52.3643 75.9941 52.247C75.7961 52.1297 75.5431 52.0233 75.2351 51.928L71.1211 50.718C70.8131 50.63 70.4537 50.5053 70.0431 50.344C69.6397 50.1827 69.2474 49.9517 68.8661 49.651C68.4847 49.3503 68.1657 48.9543 67.9091 48.463C67.6597 47.9643 67.5351 47.3373 67.5351 46.582C67.5351 45.5187 67.8027 44.635 68.3381 43.931C68.8734 43.227 69.5884 42.7027 70.4831 42.358C71.3777 42.0133 72.3677 41.8447 73.4531 41.852C74.5457 41.8667 75.5211 42.0537 76.3791 42.413C77.2371 42.7723 77.9557 43.2967 78.5351 43.986C79.1144 44.668 79.5324 45.504 79.7891 46.494L76.5551 47.044C76.4377 46.5307 76.2214 46.098 75.9061 45.746C75.5907 45.394 75.2131 45.1263 74.7731 44.943C74.3404 44.7597 73.8857 44.6607 73.4091 44.646C72.9397 44.6313 72.4961 44.6973 72.0781 44.844C71.6674 44.9833 71.3301 45.1887 71.0661 45.46C70.8094 45.7313 70.6811 46.054 70.6811 46.428C70.6811 46.7727 70.7874 47.055 71.0001 47.275C71.2127 47.4877 71.4804 47.66 71.8031 47.792C72.1257 47.924 72.4557 48.034 72.7931 48.122L75.5431 48.87C75.9537 48.98 76.4084 49.1267 76.9071 49.31C77.4057 49.486 77.8824 49.7353 78.3371 50.058C78.7991 50.3733 79.1767 50.7913 79.4701 51.312C79.7707 51.8327 79.9211 52.4927 79.9211 53.292C79.9211 54.1427 79.7414 54.887 79.3821 55.525C79.0301 56.1557 78.5534 56.68 77.9521 57.098C77.3507 57.5087 76.6687 57.8167 75.9061 58.022C75.1507 58.2273 74.3697 58.33 73.5631 58.33ZM86.0128 58V44.954H81.0188V42.16H93.9988V44.954H89.0048V58H86.0128Z" fill="white"/>
<path d="M26.12 78.1842V66.6642H30.984C31.096 66.6642 31.2453 66.6695 31.432 66.6802C31.624 66.6855 31.7947 66.7015 31.944 66.7282C32.632 66.8349 33.1947 67.0615 33.632 67.4082C34.0747 67.7549 34.4 68.1922 34.608 68.7202C34.816 69.2429 34.92 69.8269 34.92 70.4722C34.92 71.4375 34.68 72.2642 34.2 72.9522C33.72 73.6349 32.968 74.0562 31.944 74.2162L30.984 74.2802H28.296V78.1842H26.12ZM32.616 78.1842L30.344 73.4962L32.584 73.0642L35.08 78.1842H32.616ZM28.296 72.2482H30.888C31 72.2482 31.1227 72.2429 31.256 72.2322C31.3893 72.2215 31.512 72.2002 31.624 72.1682C31.9173 72.0882 32.144 71.9549 32.304 71.7682C32.464 71.5762 32.5733 71.3655 32.632 71.1362C32.696 70.9015 32.728 70.6802 32.728 70.4722C32.728 70.2642 32.696 70.0455 32.632 69.8162C32.5733 69.5815 32.464 69.3709 32.304 69.1842C32.144 68.9922 31.9173 68.8562 31.624 68.7762C31.512 68.7442 31.3893 68.7229 31.256 68.7122C31.1227 68.7015 31 68.6962 30.888 68.6962H28.296V72.2482ZM36.8388 78.1842V66.6642H44.3588V68.6962H39.0148V71.1602H43.3988V73.1922H39.0148V76.1522H44.3588V78.1842H36.8388ZM50.6283 78.4242C49.7749 78.4242 49.0043 78.2749 48.3163 77.9762C47.6336 77.6722 47.0709 77.2402 46.6283 76.6802C46.1909 76.1149 45.9136 75.4429 45.7963 74.6642L48.0683 74.3282C48.2283 74.9895 48.5589 75.4989 49.0603 75.8562C49.5616 76.2135 50.1323 76.3922 50.7723 76.3922C51.1296 76.3922 51.4763 76.3362 51.8123 76.2242C52.1483 76.1122 52.4229 75.9469 52.6363 75.7282C52.8549 75.5095 52.9643 75.2402 52.9643 74.9202C52.9643 74.8029 52.9456 74.6909 52.9083 74.5842C52.8763 74.4722 52.8203 74.3682 52.7403 74.2722C52.6603 74.1762 52.5456 74.0855 52.3963 74.0002C52.2523 73.9149 52.0683 73.8375 51.8443 73.7682L48.8523 72.8882C48.6283 72.8242 48.3669 72.7335 48.0683 72.6162C47.7749 72.4989 47.4896 72.3309 47.2122 72.1122C46.9349 71.8935 46.7029 71.6055 46.5163 71.2482C46.3349 70.8855 46.2443 70.4295 46.2443 69.8802C46.2443 69.1069 46.4389 68.4642 46.8283 67.9522C47.2176 67.4402 47.7376 67.0589 48.3883 66.8082C49.0389 66.5575 49.7589 66.4349 50.5483 66.4402C51.3429 66.4509 52.0523 66.5869 52.6763 66.8482C53.3003 67.1095 53.8229 67.4909 54.2443 67.9922C54.6656 68.4882 54.9696 69.0962 55.1562 69.8162L52.8043 70.2162C52.7189 69.8429 52.5616 69.5282 52.3323 69.2722C52.1029 69.0162 51.8283 68.8215 51.5083 68.6882C51.1936 68.5549 50.8629 68.4829 50.5163 68.4722C50.1749 68.4615 49.8523 68.5095 49.5483 68.6162C49.2496 68.7175 49.0043 68.8669 48.8123 69.0642C48.6256 69.2615 48.5323 69.4962 48.5323 69.7682C48.5323 70.0189 48.6096 70.2242 48.7643 70.3842C48.9189 70.5389 49.1136 70.6642 49.3483 70.7602C49.5829 70.8562 49.8229 70.9362 50.0683 71.0002L52.0683 71.5442C52.3669 71.6242 52.6976 71.7309 53.0603 71.8642C53.4229 71.9922 53.7696 72.1735 54.1003 72.4082C54.4363 72.6375 54.7109 72.9415 54.9243 73.3202C55.1429 73.6989 55.2523 74.1789 55.2523 74.7602C55.2523 75.3789 55.1216 75.9202 54.8603 76.3842C54.6043 76.8429 54.2576 77.2242 53.8203 77.5282C53.3829 77.8269 52.8869 78.0509 52.3323 78.2002C51.7829 78.3495 51.2149 78.4242 50.6283 78.4242ZM57.0106 78.1842V66.6642H61.8746C61.9866 66.6642 62.136 66.6695 62.3226 66.6802C62.5146 66.6855 62.6853 66.7015 62.8346 66.7282C63.5226 66.8349 64.0853 67.0615 64.5226 67.4082C64.9653 67.7549 65.2906 68.1922 65.4986 68.7202C65.7066 69.2429 65.8106 69.8269 65.8106 70.4722C65.8106 71.1175 65.704 71.7042 65.4906 72.2322C65.2826 72.7549 64.9573 73.1895 64.5146 73.5362C64.0773 73.8829 63.5173 74.1095 62.8346 74.2162C62.6853 74.2375 62.5146 74.2535 62.3226 74.2642C62.1306 74.2749 61.9813 74.2802 61.8746 74.2802H59.1866V78.1842H57.0106ZM59.1866 72.2482H61.7786C61.8906 72.2482 62.0133 72.2429 62.1466 72.2322C62.28 72.2215 62.4026 72.2002 62.5146 72.1682C62.808 72.0882 63.0346 71.9549 63.1946 71.7682C63.3546 71.5762 63.464 71.3655 63.5226 71.1362C63.5866 70.9015 63.6186 70.6802 63.6186 70.4722C63.6186 70.2642 63.5866 70.0455 63.5226 69.8162C63.464 69.5815 63.3546 69.3709 63.1946 69.1842C63.0346 68.9922 62.808 68.8562 62.5146 68.7762C62.4026 68.7442 62.28 68.7229 62.1466 68.7122C62.0133 68.7015 61.8906 68.6962 61.7786 68.6962H59.1866V72.2482ZM72.3609 78.4242C71.2089 78.4242 70.2142 78.1735 69.3769 77.6722C68.5449 77.1709 67.9022 76.4695 67.4489 75.5682C67.0009 74.6669 66.7769 73.6189 66.7769 72.4242C66.7769 71.2295 67.0009 70.1815 67.4489 69.2802C67.9022 68.3789 68.5449 67.6775 69.3769 67.1762C70.2142 66.6749 71.2089 66.4242 72.3609 66.4242C73.5129 66.4242 74.5049 66.6749 75.3369 67.1762C76.1742 67.6775 76.8169 68.3789 77.2649 69.2802C77.7182 70.1815 77.9449 71.2295 77.9449 72.4242C77.9449 73.6189 77.7182 74.6669 77.2649 75.5682C76.8169 76.4695 76.1742 77.1709 75.3369 77.6722C74.5049 78.1735 73.5129 78.4242 72.3609 78.4242ZM72.3609 76.3762C73.0915 76.3869 73.6995 76.2295 74.1849 75.9042C74.6702 75.5789 75.0329 75.1175 75.2729 74.5202C75.5182 73.9229 75.6409 73.2242 75.6409 72.4242C75.6409 71.6242 75.5182 70.9309 75.2729 70.3442C75.0329 69.7575 74.6702 69.3015 74.1849 68.9762C73.6995 68.6509 73.0915 68.4829 72.3609 68.4722C71.6302 68.4615 71.0222 68.6189 70.5369 68.9442C70.0515 69.2695 69.6862 69.7309 69.4409 70.3282C69.2009 70.9255 69.0809 71.6242 69.0809 72.4242C69.0809 73.2242 69.2009 73.9175 69.4409 74.5042C69.6862 75.0909 70.0515 75.5469 70.5369 75.8722C71.0222 76.1975 71.6302 76.3655 72.3609 76.3762ZM79.5419 78.1842V66.6642H81.7499L86.7579 74.3442V66.6642H88.9659V78.1842H86.7579L81.7499 70.5042V78.1842H79.5419ZM95.5501 78.4242C94.6968 78.4242 93.9261 78.2749 93.2381 77.9762C92.5555 77.6722 91.9928 77.2402 91.5501 76.6802C91.1128 76.1149 90.8355 75.4429 90.7181 74.6642L92.9901 74.3282C93.1501 74.9895 93.4808 75.4989 93.9821 75.8562C94.4835 76.2135 95.0541 76.3922 95.6941 76.3922C96.0515 76.3922 96.3981 76.3362 96.7341 76.2242C97.0701 76.1122 97.3448 75.9469 97.5581 75.7282C97.7768 75.5095 97.8861 75.2402 97.8861 74.9202C97.8861 74.8029 97.8675 74.6909 97.8301 74.5842C97.7981 74.4722 97.7421 74.3682 97.6621 74.2722C97.5821 74.1762 97.4675 74.0855 97.3181 74.0002C97.1741 73.9149 96.9901 73.8375 96.7661 73.7682L93.7741 72.8882C93.5501 72.8242 93.2888 72.7335 92.9901 72.6162C92.6968 72.4989 92.4115 72.3309 92.1341 72.1122C91.8568 71.8935 91.6248 71.6055 91.4381 71.2482C91.2568 70.8855 91.1661 70.4295 91.1661 69.8802C91.1661 69.1069 91.3608 68.4642 91.7501 67.9522C92.1395 67.4402 92.6595 67.0589 93.3101 66.8082C93.9608 66.5575 94.6808 66.4349 95.4701 66.4402C96.2648 66.4509 96.9741 66.5869 97.5981 66.8482C98.2221 67.1095 98.7448 67.4909 99.1661 67.9922C99.5875 68.4882 99.8915 69.0962 100.078 69.8162L97.7261 70.2162C97.6408 69.8429 97.4835 69.5282 97.2541 69.2722C97.0248 69.0162 96.7501 68.8215 96.4301 68.6882C96.1155 68.5549 95.7848 68.4829 95.4381 68.4722C95.0968 68.4615 94.7741 68.5095 94.4701 68.6162C94.1715 68.7175 93.9261 68.8669 93.7341 69.0642C93.5475 69.2615 93.4541 69.4962 93.4541 69.7682C93.4541 70.0189 93.5315 70.2242 93.6861 70.3842C93.8408 70.5389 94.0355 70.6642 94.2701 70.7602C94.5048 70.8562 94.7448 70.9362 94.9901 71.0002L96.9901 71.5442C97.2888 71.6242 97.6195 71.7309 97.9821 71.8642C98.3448 71.9922 98.6915 72.1735 99.0221 72.4082C99.3581 72.6375 99.6328 72.9415 99.8461 73.3202C100.065 73.6989 100.174 74.1789 100.174 74.7602C100.174 75.3789 100.043 75.9202 99.7821 76.3842C99.5261 76.8429 99.1795 77.2242 98.7421 77.5282C98.3048 77.8269 97.8088 78.0509 97.2541 78.2002C96.7048 78.3495 96.1368 78.4242 95.5501 78.4242ZM101.933 78.1842V66.6642H109.453V68.6962H104.109V71.1602H108.493V73.1922H104.109V76.1522H109.453V78.1842H101.933Z" fill="white"/>
</svg>
