<svg width="120" height="120" viewBox="0 0 120 120" fill="none" xmlns="http://www.w3.org/2000/svg">
<path d="M6.72852 82.8434L30.2969 62.8937L43.5025 92.2357L6.72852 82.8434Z" fill="#FF7F00"/>
<path d="M104.014 100.877L62.1213 115.213L66.1823 95.4791L95.0424 98.722L104.014 100.877Z" fill="#FF7F00"/>
<path d="M120 60L60 0L1.11629e-05 60L60 120L120 60Z" fill="#C42026"/>
<mask id="mask0_991_478" style="mask-type:luminance" maskUnits="userSpaceOnUse" x="0" y="0" width="120" height="120">
<path d="M120 60L60 0L6.43698e-06 60L60 120L120 60Z" fill="white"/>
</mask>
<g mask="url(#mask0_991_478)">
<path opacity="0.12" d="M16.1873 -12.9521V120.004" stroke="white" stroke-width="8.05343" stroke-miterlimit="10"/>
<path opacity="0.12" d="M38.0946 -12.9521V120.004" stroke="white" stroke-width="8.05343" stroke-miterlimit="10"/>
<path opacity="0.12" d="M60.002 -12.9521V120.004" stroke="white" stroke-width="8.05343" stroke-miterlimit="10"/>
<path opacity="0.12" d="M81.9087 -12.9521V120.004" stroke="white" stroke-width="8.05343" stroke-miterlimit="10"/>
<path opacity="0.12" d="M103.816 -12.9521V120.004" stroke="white" stroke-width="8.05343" stroke-miterlimit="10"/>
</g>
<path opacity="0.5" d="M48.8822 108.884L77.2021 102.803L43.2227 103.201L48.8822 108.884Z" fill="#A30006"/>
<path d="M6.72852 82.8434L108.633 82.5548L104.014 100.877L18.3543 107.032L6.72852 82.8434Z" fill="#FFCA00"/>
<path d="M26.9974 96V90.4H29.4214C29.9227 90.4 30.3547 90.4827 30.7174 90.648C31.08 90.808 31.36 91.04 31.5574 91.344C31.7547 91.648 31.8534 92.0107 31.8534 92.432C31.8534 92.848 31.7547 93.208 31.5574 93.512C31.36 93.816 31.08 94.0507 30.7174 94.216C30.3547 94.376 29.9227 94.456 29.4214 94.456H27.7174L28.2934 93.872V96H26.9974ZM28.2934 94.016L27.7174 93.4H29.3494C29.7494 93.4 30.048 93.3147 30.2454 93.144C30.4427 92.9733 30.5414 92.736 30.5414 92.432C30.5414 92.1227 30.4427 91.8827 30.2454 91.712C30.048 91.5413 29.7494 91.456 29.3494 91.456H27.7174L28.2934 90.84V94.016ZM32.7786 96V90.4H35.2026C35.704 90.4 36.136 90.4827 36.4986 90.648C36.8613 90.808 37.1413 91.04 37.3386 91.344C37.536 91.648 37.6346 92.0107 37.6346 92.432C37.6346 92.848 37.536 93.208 37.3386 93.512C37.1413 93.8107 36.8613 94.04 36.4986 94.2C36.136 94.36 35.704 94.44 35.2026 94.44H33.4986L34.0746 93.872V96H32.7786ZM36.3386 96L34.9386 93.968H36.3226L37.7386 96H36.3386ZM34.0746 94.016L33.4986 93.408H35.1306C35.5306 93.408 35.8293 93.3227 36.0266 93.152C36.224 92.976 36.3226 92.736 36.3226 92.432C36.3226 92.1227 36.224 91.8827 36.0266 91.712C35.8293 91.5413 35.5306 91.456 35.1306 91.456H33.4986L34.0746 90.84V94.016ZM41.3814 96.096C40.9388 96.096 40.5281 96.024 40.1494 95.88C39.7761 95.736 39.4508 95.5333 39.1734 95.272C38.9014 95.0107 38.6881 94.704 38.5334 94.352C38.3841 94 38.3094 93.616 38.3094 93.2C38.3094 92.784 38.3841 92.4 38.5334 92.048C38.6881 91.696 38.9041 91.3893 39.1814 91.128C39.4588 90.8667 39.7841 90.664 40.1574 90.52C40.5308 90.376 40.9361 90.304 41.3734 90.304C41.8161 90.304 42.2214 90.376 42.5894 90.52C42.9628 90.664 43.2854 90.8667 43.5574 91.128C43.8348 91.3893 44.0508 91.696 44.2054 92.048C44.3601 92.3947 44.4374 92.7787 44.4374 93.2C44.4374 93.616 44.3601 94.0027 44.2054 94.36C44.0508 94.712 43.8348 95.0187 43.5574 95.28C43.2854 95.536 42.9628 95.736 42.5894 95.88C42.2214 96.024 41.8188 96.096 41.3814 96.096ZM41.3734 94.992C41.6241 94.992 41.8534 94.9493 42.0614 94.864C42.2748 94.7787 42.4614 94.656 42.6214 94.496C42.7814 94.336 42.9041 94.1467 42.9894 93.928C43.0801 93.7093 43.1254 93.4667 43.1254 93.2C43.1254 92.9333 43.0801 92.6907 42.9894 92.472C42.9041 92.2533 42.7814 92.064 42.6214 91.904C42.4668 91.744 42.2828 91.6213 42.0694 91.536C41.8561 91.4507 41.6241 91.408 41.3734 91.408C41.1228 91.408 40.8908 91.4507 40.6774 91.536C40.4694 91.6213 40.2854 91.744 40.1254 91.904C39.9654 92.064 39.8401 92.2533 39.7494 92.472C39.6641 92.6907 39.6214 92.9333 39.6214 93.2C39.6214 93.4613 39.6641 93.704 39.7494 93.928C39.8401 94.1467 39.9628 94.336 40.1174 94.496C40.2774 94.656 40.4641 94.7787 40.6774 94.864C40.8908 94.9493 41.1228 94.992 41.3734 94.992ZM49.4371 96.096C49.0264 96.096 48.6611 96.0293 48.3411 95.896C48.0211 95.7627 47.7677 95.5813 47.5811 95.352C47.3944 95.1227 47.3011 94.8587 47.3011 94.56C47.3011 94.2827 47.3624 94.0347 47.4851 93.816C47.6077 93.592 47.8024 93.384 48.0691 93.192C48.3357 92.9947 48.6744 92.8027 49.0851 92.616C49.3837 92.4773 49.6184 92.3547 49.7891 92.248C49.9597 92.1413 50.0797 92.04 50.1491 91.944C50.2184 91.8427 50.2531 91.7413 50.2531 91.64C50.2531 91.5013 50.2051 91.3893 50.1091 91.304C50.0184 91.2187 49.8824 91.176 49.7011 91.176C49.5091 91.176 49.3597 91.224 49.2531 91.32C49.1464 91.416 49.0931 91.5387 49.0931 91.688C49.0931 91.768 49.1091 91.848 49.1411 91.928C49.1731 92.0027 49.2344 92.0907 49.3251 92.192C49.4157 92.288 49.5437 92.4133 49.7091 92.568L52.6611 95.304L51.9811 96.096L48.7251 93.072C48.5384 92.9013 48.3891 92.7413 48.2771 92.592C48.1651 92.4427 48.0824 92.296 48.0291 92.152C47.9811 92.008 47.9571 91.8587 47.9571 91.704C47.9571 91.432 48.0291 91.192 48.1731 90.984C48.3171 90.776 48.5197 90.616 48.7811 90.504C49.0424 90.3867 49.3491 90.328 49.7011 90.328C50.0264 90.328 50.3064 90.3813 50.5411 90.488C50.7811 90.5893 50.9677 90.736 51.1011 90.928C51.2397 91.12 51.3091 91.3493 51.3091 91.616C51.3091 91.8507 51.2504 92.0667 51.1331 92.264C51.0157 92.456 50.8317 92.6373 50.5811 92.808C50.3357 92.9787 50.0131 93.152 49.6131 93.328C49.3411 93.4507 49.1251 93.5707 48.9651 93.688C48.8104 93.8 48.6984 93.9147 48.6291 94.032C48.5597 94.1493 48.5251 94.28 48.5251 94.424C48.5251 94.5573 48.5651 94.6773 48.6451 94.784C48.7304 94.8907 48.8477 94.9733 48.9971 95.032C49.1464 95.0907 49.3224 95.12 49.5251 95.12C49.8504 95.12 50.1491 95.0453 50.4211 94.896C50.6931 94.7413 50.9224 94.5147 51.1091 94.216C51.3011 93.912 51.4371 93.544 51.5171 93.112L52.5171 93.424C52.4051 93.968 52.2051 94.44 51.9171 94.84C51.6291 95.24 51.2744 95.5493 50.8531 95.768C50.4317 95.9867 49.9597 96.096 49.4371 96.096ZM55.763 96V90.4H56.835L59.219 94.352H58.651L60.995 90.4H62.059L62.075 96H60.859L60.851 92.264H61.075L59.203 95.408H58.619L56.707 92.264H56.979V96H55.763ZM66.1236 96.096C65.681 96.096 65.2703 96.024 64.8916 95.88C64.5183 95.736 64.193 95.5333 63.9156 95.272C63.6436 95.0107 63.4303 94.704 63.2756 94.352C63.1263 94 63.0516 93.616 63.0516 93.2C63.0516 92.784 63.1263 92.4 63.2756 92.048C63.4303 91.696 63.6463 91.3893 63.9236 91.128C64.201 90.8667 64.5263 90.664 64.8996 90.52C65.273 90.376 65.6783 90.304 66.1156 90.304C66.5583 90.304 66.9636 90.376 67.3316 90.52C67.705 90.664 68.0276 90.8667 68.2996 91.128C68.577 91.3893 68.793 91.696 68.9476 92.048C69.1023 92.3947 69.1796 92.7787 69.1796 93.2C69.1796 93.616 69.1023 94.0027 68.9476 94.36C68.793 94.712 68.577 95.0187 68.2996 95.28C68.0276 95.536 67.705 95.736 67.3316 95.88C66.9636 96.024 66.561 96.096 66.1236 96.096ZM66.1156 94.992C66.3663 94.992 66.5956 94.9493 66.8036 94.864C67.017 94.7787 67.2036 94.656 67.3636 94.496C67.5236 94.336 67.6463 94.1467 67.7316 93.928C67.8223 93.7093 67.8676 93.4667 67.8676 93.2C67.8676 92.9333 67.8223 92.6907 67.7316 92.472C67.6463 92.2533 67.5236 92.064 67.3636 91.904C67.209 91.744 67.025 91.6213 66.8116 91.536C66.5983 91.4507 66.3663 91.408 66.1156 91.408C65.865 91.408 65.633 91.4507 65.4196 91.536C65.2116 91.6213 65.0276 91.744 64.8676 91.904C64.7076 92.064 64.5823 92.2533 64.4916 92.472C64.4063 92.6907 64.3636 92.9333 64.3636 93.2C64.3636 93.4613 64.4063 93.704 64.4916 93.928C64.5823 94.1467 64.705 94.336 64.8596 94.496C65.0196 94.656 65.2063 94.7787 65.4196 94.864C65.633 94.9493 65.865 94.992 66.1156 94.992ZM70.1536 96V90.4H72.6976C73.3056 90.4 73.8416 90.5173 74.3056 90.752C74.7696 90.9813 75.1323 91.304 75.3936 91.72C75.655 92.136 75.7856 92.6293 75.7856 93.2C75.7856 93.7653 75.655 94.2587 75.3936 94.68C75.1323 95.096 74.7696 95.4213 74.3056 95.656C73.8416 95.8853 73.3056 96 72.6976 96H70.1536ZM71.4496 94.936H72.6336C73.007 94.936 73.3296 94.8667 73.6016 94.728C73.879 94.584 74.0923 94.3813 74.2416 94.12C74.3963 93.8587 74.4736 93.552 74.4736 93.2C74.4736 92.8427 74.3963 92.536 74.2416 92.28C74.0923 92.0187 73.879 91.8187 73.6016 91.68C73.3296 91.536 73.007 91.464 72.6336 91.464H71.4496V94.936ZM77.955 92.656H80.651V93.664H77.955V92.656ZM78.051 94.96H81.099V96H76.763V90.4H80.995V91.44H78.051V94.96ZM82.1302 96V90.4H84.5542C85.0555 90.4 85.4875 90.4827 85.8502 90.648C86.2129 90.808 86.4929 91.04 86.6902 91.344C86.8875 91.648 86.9862 92.0107 86.9862 92.432C86.9862 92.848 86.8875 93.208 86.6902 93.512C86.4929 93.8107 86.2129 94.04 85.8502 94.2C85.4875 94.36 85.0555 94.44 84.5542 94.44H82.8502L83.4262 93.872V96H82.1302ZM85.6902 96L84.2902 93.968H85.6742L87.0902 96H85.6902ZM83.4262 94.016L82.8502 93.408H84.4822C84.8822 93.408 85.1809 93.3227 85.3782 93.152C85.5755 92.976 85.6742 92.736 85.6742 92.432C85.6742 92.1227 85.5755 91.8827 85.3782 91.712C85.1809 91.5413 84.8822 91.456 84.4822 91.456H82.8502L83.4262 90.84V94.016ZM88.013 96V90.4H89.085L92.389 94.432H91.869V90.4H93.149V96H92.085L88.773 91.968H89.293V96H88.013Z" fill="#1A1A1A"/>
<path d="M38.7046 51.9879C37.8528 51.9879 37.0416 51.8376 36.2711 51.5369C35.5007 51.23 34.818 50.779 34.2229 50.184C33.6341 49.5889 33.1674 48.8529 32.8229 47.976C32.4847 47.099 32.3156 46.0874 32.3156 44.9412C32.3156 43.4441 32.6006 42.1726 33.1706 41.1265C33.7468 40.0742 34.5173 39.2725 35.4819 38.7212C36.4528 38.17 37.527 37.8944 38.7046 37.8944C40.446 37.8944 41.8146 38.2984 42.8105 39.1065C43.8065 39.9145 44.4736 41.0576 44.8118 42.5359L42.1998 42.9117C41.9555 42.1225 41.5546 41.493 40.9972 41.0232C40.446 40.5471 39.7381 40.306 38.8737 40.2997C38.0156 40.2872 37.3015 40.472 36.7315 40.8541C36.1615 41.2361 35.7325 41.778 35.4443 42.4795C35.1625 43.1811 35.0215 44.0016 35.0215 44.9412C35.0215 45.8807 35.1625 46.695 35.4443 47.384C35.7325 48.0731 36.1615 48.6086 36.7315 48.9907C37.3015 49.3728 38.0156 49.5701 38.8737 49.5826C39.4563 49.5952 39.9824 49.4949 40.4522 49.282C40.9283 49.069 41.3291 48.7339 41.6549 48.2766C41.9806 47.8194 42.2123 47.2337 42.3501 46.5196H40.2079V44.5466H45.0749C45.0874 44.628 45.0968 44.7721 45.1031 44.9788C45.1093 45.1855 45.1125 45.3045 45.1125 45.3358C45.1125 46.6324 44.8494 47.7818 44.3232 48.784C43.7971 49.7862 43.0548 50.5723 42.0965 51.1423C41.1381 51.7061 40.0075 51.9879 38.7046 51.9879ZM52.8021 51.9879C51.4491 51.9879 50.2809 51.6935 49.2975 51.1047C48.3204 50.5159 47.5656 49.6922 47.0332 48.6337C46.507 47.5751 46.2439 46.3443 46.2439 44.9412C46.2439 43.5381 46.507 42.3073 47.0332 41.2487C47.5656 40.1901 48.3204 39.3664 49.2975 38.7776C50.2809 38.1888 51.4491 37.8944 52.8021 37.8944C54.1551 37.8944 55.3201 38.1888 56.2973 38.7776C57.2807 39.3664 58.0355 40.1901 58.5616 41.2487C59.0941 42.3073 59.3603 43.5381 59.3603 44.9412C59.3603 46.3443 59.0941 47.5751 58.5616 48.6337C58.0355 49.6922 57.2807 50.5159 56.2973 51.1047C55.3201 51.6935 54.1551 51.9879 52.8021 51.9879ZM52.8021 49.5826C53.6602 49.5952 54.3743 49.4104 54.9443 49.0283C55.5143 48.6462 55.9402 48.1044 56.2221 47.4028C56.5102 46.7013 56.6543 45.8807 56.6543 44.9412C56.6543 44.0016 56.5102 43.1873 56.2221 42.4983C55.9402 41.8093 55.5143 41.2737 54.9443 40.8916C54.3743 40.5096 53.6602 40.3122 52.8021 40.2997C51.944 40.2872 51.2299 40.472 50.6599 40.8541C50.0899 41.2361 49.6608 41.778 49.3727 42.4795C49.0908 43.1811 48.9499 44.0016 48.9499 44.9412C48.9499 45.8807 49.0908 46.695 49.3727 47.384C49.6608 48.0731 50.0899 48.6086 50.6599 48.9907C51.2299 49.3728 51.944 49.5701 52.8021 49.5826ZM67.0424 51.9879C65.6894 51.9879 64.5212 51.6935 63.5378 51.1047C62.5607 50.5159 61.8059 49.6922 61.2735 48.6337C60.7473 47.5751 60.4842 46.3443 60.4842 44.9412C60.4842 43.5381 60.7473 42.3073 61.2735 41.2487C61.8059 40.1901 62.5607 39.3664 63.5378 38.7776C64.5212 38.1888 65.6894 37.8944 67.0424 37.8944C68.3954 37.8944 69.5604 38.1888 70.5376 38.7776C71.521 39.3664 72.2758 40.1901 72.8019 41.2487C73.3344 42.3073 73.6006 43.5381 73.6006 44.9412C73.6006 46.3443 73.3344 47.5751 72.8019 48.6337C72.2758 49.6922 71.521 50.5159 70.5376 51.1047C69.5604 51.6935 68.3954 51.9879 67.0424 51.9879ZM67.0424 49.5826C67.9005 49.5952 68.6146 49.4104 69.1846 49.0283C69.7546 48.6462 70.1806 48.1044 70.4624 47.4028C70.7506 46.7013 70.8946 45.8807 70.8946 44.9412C70.8946 44.0016 70.7506 43.1873 70.4624 42.4983C70.1806 41.8093 69.7546 41.2737 69.1846 40.8916C68.6146 40.5096 67.9005 40.3122 67.0424 40.2997C66.1843 40.2872 65.4702 40.472 64.9002 40.8541C64.3302 41.2361 63.9011 41.778 63.613 42.4795C63.3311 43.1811 63.1902 44.0016 63.1902 44.9412C63.1902 45.8807 63.3311 46.695 63.613 47.384C63.9011 48.0731 64.3302 48.6086 64.9002 48.9907C65.4702 49.3728 66.1843 49.5701 67.0424 49.5826ZM75.4762 51.7061V38.1763H79.8546C79.961 38.1763 80.1803 38.1794 80.5123 38.1857C80.8442 38.192 81.1637 38.2139 81.4706 38.2515C82.5605 38.383 83.4844 38.762 84.2423 39.3883C85.0003 40.0147 85.5765 40.8102 85.9711 41.7748C86.3658 42.7395 86.5631 43.7949 86.5631 44.9412C86.5631 46.0874 86.3658 47.1429 85.9711 48.1075C85.5765 49.0721 85.0003 49.8676 84.2423 50.494C83.4844 51.1204 82.5605 51.4994 81.4706 51.6309C81.1637 51.6685 80.8442 51.6904 80.5123 51.6967C80.1803 51.7029 79.961 51.7061 79.8546 51.7061H75.4762ZM78.0694 49.3008H79.8546C80.0237 49.3008 80.2523 49.2976 80.5404 49.2914C80.8286 49.2788 81.0885 49.2507 81.3203 49.2068C81.9091 49.0878 82.3883 48.8122 82.7578 48.38C83.1337 47.9478 83.4093 47.4279 83.5846 46.8203C83.7663 46.2127 83.8571 45.5863 83.8571 44.9412C83.8571 44.2647 83.7632 43.6226 83.5752 43.0151C83.3936 42.4075 83.1149 41.8938 82.739 41.4742C82.3632 41.0545 81.8903 40.7883 81.3203 40.6755C81.0885 40.6254 80.8286 40.5972 80.5404 40.591C80.2523 40.5847 80.0237 40.5816 79.8546 40.5816H78.0694V49.3008Z" fill="white"/>
<path d="M23.0944 71.8263V57.3301H27.7855C27.8996 57.3301 28.1345 57.3335 28.4902 57.3402C28.8459 57.3469 29.1882 57.3704 29.517 57.4107C30.6848 57.5516 31.6747 57.9576 32.4867 58.6287C33.2988 59.2999 33.9162 60.1522 34.339 61.1857C34.7618 62.2192 34.9732 63.3501 34.9732 64.5782C34.9732 65.8064 34.7618 66.9372 34.339 67.9707C33.9162 69.0042 33.2988 69.8566 32.4867 70.5277C31.6747 71.1988 30.6848 71.6048 29.517 71.7458C29.1882 71.786 28.8459 71.8095 28.4902 71.8162C28.1345 71.8229 27.8996 71.8263 27.7855 71.8263H23.0944ZM25.8728 69.2492H27.7855C27.9667 69.2492 28.2117 69.2458 28.5204 69.2391C28.8291 69.2257 29.1076 69.1955 29.356 69.1485C29.9868 69.021 30.5002 68.7257 30.8962 68.2627C31.2988 67.7996 31.5941 67.2426 31.782 66.5916C31.9767 65.9406 32.074 65.2695 32.074 64.5782C32.074 63.8534 31.9733 63.1655 31.772 62.5145C31.5774 61.8635 31.2787 61.3132 30.876 60.8636C30.4734 60.4139 29.9667 60.1287 29.356 60.0079C29.1076 59.9542 28.8291 59.924 28.5204 59.9173C28.2117 59.9106 27.9667 59.9072 27.7855 59.9072H25.8728V69.2492ZM37.3885 71.8263V57.3301H46.8512V59.8871H40.1266V62.9877H45.6432V65.5446H40.1266V69.2693H46.8512V71.8263H37.3885ZM54.7405 72.1283C53.6667 72.1283 52.6969 71.9404 51.8312 71.5646C50.9721 71.182 50.2641 70.6384 49.7071 69.9337C49.1567 69.2224 48.8078 68.3767 48.6601 67.3969L51.5191 66.9741C51.7204 67.8063 52.1365 68.4472 52.7674 68.8969C53.3982 69.3465 54.1163 69.5713 54.9217 69.5713C55.3713 69.5713 55.8075 69.5009 56.2303 69.3599C56.6531 69.219 56.9988 69.0109 57.2672 68.7358C57.5424 68.4606 57.68 68.1217 57.68 67.719C57.68 67.5714 57.6565 67.4305 57.6095 67.2962C57.5692 67.1553 57.4988 67.0244 57.3981 66.9036C57.2974 66.7828 57.1531 66.6687 56.9652 66.5614C56.784 66.454 56.5525 66.3567 56.2706 66.2694L52.5056 65.1621C52.2238 65.0815 51.8949 64.9675 51.5191 64.8198C51.15 64.6722 50.7909 64.4608 50.4419 64.1856C50.093 63.9104 49.801 63.548 49.5661 63.0984C49.3379 62.642 49.2239 62.0682 49.2239 61.377C49.2239 60.4038 49.4688 59.5951 49.9587 58.9509C50.4486 58.3066 51.103 57.8267 51.9218 57.5113C52.7405 57.1959 53.6465 57.0415 54.6398 57.0483C55.6398 57.0617 56.5323 57.2328 57.3176 57.5617C58.1028 57.8905 58.7605 58.3704 59.2906 59.0012C59.8208 59.6253 60.2034 60.3904 60.4383 61.2964L57.4786 61.7998C57.3712 61.33 57.1733 60.934 56.8847 60.6119C56.5961 60.2898 56.2505 60.0448 55.8478 59.877C55.4518 59.7092 55.0357 59.6186 54.5995 59.6052C54.17 59.5918 53.764 59.6522 53.3814 59.7864C53.0056 59.9139 52.6969 60.1018 52.4553 60.3502C52.2204 60.5985 52.103 60.8938 52.103 61.236C52.103 61.5515 52.2003 61.8098 52.3949 62.0112C52.5895 62.2058 52.8345 62.3635 53.1298 62.4843C53.4251 62.6051 53.7271 62.7058 54.0358 62.7863L56.5525 63.4709C56.9283 63.5715 57.3444 63.7058 57.8008 63.8735C58.2571 64.0346 58.6933 64.2628 59.1094 64.5581C59.5322 64.8467 59.8779 65.2292 60.1463 65.7057C60.4215 66.1822 60.5591 66.7862 60.5591 67.5177C60.5591 68.2962 60.3946 68.9774 60.0658 69.5613C59.7436 70.1384 59.3074 70.6183 58.7571 71.0008C58.2068 71.3766 57.5826 71.6585 56.8847 71.8464C56.1934 72.0343 55.4787 72.1283 54.7405 72.1283ZM62.973 71.8263V57.3301H65.7112V71.8263H62.973ZM74.7693 72.1283C73.8565 72.1283 72.9874 71.9672 72.162 71.6451C71.3365 71.3162 70.605 70.833 69.9674 70.1955C69.3366 69.5579 68.8366 68.7693 68.4675 67.8298C68.1051 66.8902 67.9239 65.8064 67.9239 64.5782C67.9239 62.9742 68.2292 61.6119 68.8399 60.4911C69.4574 59.3636 70.2828 58.5046 71.3164 57.914C72.3566 57.3234 73.5076 57.0281 74.7693 57.0281C76.635 57.0281 78.1014 57.461 79.1685 58.3267C80.2355 59.1925 80.9503 60.4173 81.3127 62.0011L78.5141 62.4038C78.2524 61.5582 77.8229 60.8837 77.2256 60.3804C76.635 59.8703 75.8766 59.6119 74.9505 59.6052C74.031 59.5918 73.266 59.7898 72.6552 60.1992C72.0445 60.6085 71.5848 61.1891 71.2761 61.9407C70.9741 62.6924 70.8231 63.5715 70.8231 64.5782C70.8231 65.5849 70.9741 66.4573 71.2761 67.1956C71.5848 67.9338 72.0445 68.5076 72.6552 68.917C73.266 69.3264 74.031 69.5378 74.9505 69.5512C75.5746 69.5646 76.1384 69.4572 76.6417 69.2291C77.1517 69.0009 77.5813 68.6418 77.9302 68.1519C78.2792 67.662 78.5275 67.0345 78.6752 66.2694H76.38V64.1554H81.5946C81.608 64.2426 81.618 64.397 81.6248 64.6185C81.6315 64.8399 81.6348 64.9675 81.6348 65.001C81.6348 66.3902 81.3529 67.6217 80.7892 68.6955C80.2255 69.7693 79.4302 70.6116 78.4034 71.2223C77.3766 71.8263 76.1652 72.1283 74.7693 72.1283ZM83.6524 71.8263V57.3301H86.4309L92.7327 66.9942V57.3301H95.5111V71.8263H92.7327L86.4309 62.1622V71.8263H83.6524Z" fill="white"/>
</svg>
