<svg width="178" height="48" viewBox="0 0 178 48" fill="none" xmlns="http://www.w3.org/2000/svg">
<path d="M21.4305 0.149412L9.2557 5.44604C8.59325 5.734 8.16504 6.3875 8.16504 7.10963V13.4402C8.16504 14.0952 8.83645 14.5339 9.43623 14.2713L21.7871 8.86274C22.0153 8.76277 22.275 8.76128 22.5032 8.85826L26.7495 10.6517C27.0852 10.7934 27.303 11.1231 27.303 11.4872V21.7358C27.303 22.0998 27.0852 22.4296 26.748 22.5713L16.1458 27.0473C15.4744 27.3308 15.0372 27.9888 15.0372 28.7184V35.0102C15.0372 35.6592 15.6997 36.0979 16.298 35.8457L34.3572 28.2171C35.0286 27.9336 35.4658 27.2756 35.4658 26.546V6.67397C35.4658 5.94437 35.0286 5.2864 34.3572 5.00291L22.8568 0.143445C22.3988 -0.0505159 21.8826 -0.0475315 21.4275 0.150906L21.4305 0.149412Z" fill="#C42026"/>
<path d="M16.3107 47.906L26.2102 43.5851C26.8711 43.2971 27.2994 42.6436 27.2994 41.923V35.585C27.2994 34.9315 26.6279 34.4913 26.0296 34.7539L16.1287 39.0792C15.4677 39.3672 15.041 40.0207 15.041 40.7413V47.0749C15.041 47.7284 15.7124 48.1671 16.3107 47.906Z" fill="#C42026"/>
<path d="M8.71929 26.4605L19.3155 21.9829C19.9869 21.6995 20.4241 21.0415 20.4241 20.3119V14.0201C20.4241 13.3711 19.7616 12.9324 19.1634 13.1846L1.10856 20.8102C0.437157 21.0937 0 21.7517 0 22.4813V42.3578C0 43.0874 0.437157 43.7454 1.10856 44.0289L10.3381 47.9275C10.9364 48.1796 11.5989 47.741 11.5989 47.0919V40.8001C11.5989 40.0706 11.1632 39.4126 10.4903 39.1291L8.7178 38.3801C8.3821 38.2384 8.16427 37.9086 8.16427 37.5446V27.296C8.16427 26.9319 8.3821 26.6022 8.7178 26.4605H8.71929Z" fill="#C42026"/>
<path d="M47.6548 17.1294C48.3694 15.8359 49.3646 14.8288 50.6433 14.1066C51.9204 13.3845 53.3692 13.0234 54.988 13.0234C56.9709 13.0234 58.6688 13.5471 60.0817 14.5945C61.4946 15.6419 62.4391 17.0698 62.915 18.8796H58.439C58.1063 18.1813 57.6333 17.6502 57.0231 17.2846C56.4113 16.9191 55.7176 16.737 54.9402 16.737C53.6855 16.737 52.6709 17.1742 51.8936 18.0455C51.1162 18.9184 50.7268 20.0851 50.7268 21.5458C50.7268 23.0065 51.1147 24.1732 51.8936 25.046C52.6709 25.9189 53.6869 26.356 54.9402 26.356C55.7176 26.356 56.4128 26.174 57.0231 25.8085C57.6333 25.4429 58.1063 24.9118 58.439 24.2135H62.915C62.4391 26.0233 61.4946 27.4467 60.0817 28.4866C58.6688 29.5265 56.9709 30.0458 54.988 30.0458C53.3692 30.0458 51.9204 29.6847 50.6433 28.9626C49.3661 28.2404 48.3694 27.2363 47.6548 25.9517C46.9416 24.6656 46.5835 23.1989 46.5835 21.5473C46.5835 19.8956 46.9401 18.4245 47.6548 17.1309V17.1294Z" fill="#FEFEFE"/>
<path d="M75.9537 18.012C76.8743 19.0206 77.3353 20.4052 77.3353 22.1658V29.9257H73.2875V22.7119C73.2875 21.8226 73.0577 21.1333 72.5967 20.6409C72.1357 20.1486 71.518 19.9024 70.7406 19.9024C69.9633 19.9024 69.3441 20.1486 68.8831 20.6409C68.4221 21.1333 68.1923 21.8226 68.1923 22.7119V29.9257H64.1206V12.3096H68.1923V18.4283C68.6056 17.8419 69.1681 17.3734 69.8827 17.0243C70.5959 16.6752 71.3986 16.5006 72.2864 16.5006C73.8097 16.5006 75.0317 17.0049 75.9522 18.012H75.9537Z" fill="#FEFEFE"/>
<path d="M92.0212 24.2603H82.8081C82.8722 25.0854 83.1378 25.7165 83.6063 26.1522C84.0748 26.5894 84.6492 26.8072 85.3325 26.8072C86.3486 26.8072 87.0543 26.379 87.4512 25.5211H91.784C91.5617 26.3939 91.1618 27.1802 90.5814 27.8785C90.0025 28.5767 89.2759 29.1243 88.4031 29.5212C87.5303 29.918 86.5545 30.1165 85.4743 30.1165C84.1733 30.1165 83.014 29.839 81.9979 29.2839C80.9819 28.7289 80.1881 27.9352 79.6167 26.9027C79.0452 25.8717 78.7603 24.6647 78.7603 23.2846C78.7603 21.9045 79.0422 20.6974 79.6047 19.6664C80.1687 18.6355 80.958 17.8417 81.974 17.2852C82.9886 16.7302 84.1554 16.4512 85.4728 16.4512C86.7902 16.4512 87.9018 16.7212 88.9014 17.2613C89.9011 17.8014 90.6829 18.5713 91.2469 19.571C91.8108 20.5706 92.0914 21.7374 92.0914 23.0712C92.0914 23.4517 92.0675 23.8485 92.0197 24.2618L92.0212 24.2603ZM87.9272 21.9985C87.9272 21.3002 87.6884 20.7452 87.2125 20.3319C86.7365 19.9201 86.1412 19.7127 85.4265 19.7127C84.7119 19.7127 84.1688 19.9111 83.7003 20.308C83.2318 20.7049 82.9424 21.2689 82.8319 21.9985H87.9257H87.9272Z" fill="#FEFEFE"/>
<path d="M99.4963 17.1301C100.211 16.7094 101.005 16.499 101.878 16.499V20.8079H100.759C99.7425 20.8079 98.9815 21.0258 98.4728 21.4629C97.964 21.9001 97.7118 22.6655 97.7118 23.7606V29.9256H93.6401V16.6423H97.7118V18.8564C98.1878 18.1268 98.7831 17.5509 99.4978 17.1301H99.4963Z" fill="#FEFEFE"/>
<path d="M109.091 17.1301C109.806 16.7094 110.599 16.499 111.472 16.499V20.8079H110.353C109.337 20.8079 108.576 21.0258 108.067 21.4629C107.559 21.9001 107.307 22.6655 107.307 23.7606V29.9256H103.235V16.6423H107.307V18.8564C107.783 18.1268 108.378 17.5509 109.092 17.1301H109.091Z" fill="#FEFEFE"/>
<path d="M126.397 16.6416L118.065 36.2332H113.684L116.731 29.4729L111.327 16.6416H115.873L118.945 24.9506L121.992 16.6416H126.396H126.397Z" fill="#FEFEFE"/>
<path d="M142.159 21.2493C141.714 22.0505 141.032 22.698 140.112 23.1889C139.191 23.6813 138.048 23.9275 136.683 23.9275H134.16V29.9268H130.088V13.2148H136.683C138.017 13.2148 139.143 13.4446 140.064 13.9056C140.985 14.3667 141.674 15.0008 142.135 15.8094C142.594 16.6196 142.826 17.5476 142.826 18.595C142.826 19.5633 142.603 20.4481 142.159 21.2493ZM138.112 20.1422C138.493 19.7767 138.684 19.262 138.684 18.595C138.684 17.9281 138.493 17.4134 138.112 17.0478C137.73 16.6823 137.152 16.5002 136.374 16.5002H134.16V20.6898H136.374C137.152 20.6898 137.73 20.5078 138.112 20.1422Z" fill="#FEFEFE"/>
<path d="M144.648 14.6307C144.196 14.21 143.969 13.6907 143.969 13.0716C143.969 12.4524 144.196 11.9093 144.648 11.4885C145.1 11.0678 145.684 10.8574 146.398 10.8574C147.113 10.8574 147.671 11.0678 148.124 11.4885C148.577 11.9093 148.803 12.4375 148.803 13.0716C148.803 13.7057 148.577 14.21 148.124 14.6307C147.672 15.0515 147.096 15.2618 146.398 15.2618C145.7 15.2618 145.1 15.0515 144.648 14.6307ZM148.421 16.6419V29.9253H144.35V16.6419H148.421Z" fill="#FEFEFE"/>
<path d="M150.811 19.6664C151.375 18.6355 152.16 17.8417 153.168 17.2852C154.177 16.7302 155.33 16.4512 156.631 16.4512C158.298 16.4512 159.69 16.8883 160.809 17.7612C161.928 18.634 162.662 19.8649 163.011 21.4509H158.678C158.313 20.4348 157.607 19.9275 156.56 19.9275C155.813 19.9275 155.218 20.217 154.774 20.7959C154.329 21.3748 154.107 22.2044 154.107 23.2831C154.107 24.3618 154.329 25.1914 154.774 25.7703C155.217 26.3492 155.812 26.6386 156.56 26.6386C157.607 26.6386 158.313 26.1313 158.678 25.1153H163.011C162.662 26.6714 161.923 27.8934 160.797 28.7811C159.669 29.6704 158.281 30.1135 156.631 30.1135C155.33 30.1135 154.175 29.836 153.168 29.2809C152.16 28.7259 151.375 27.9322 150.811 26.8997C150.247 25.8687 149.966 24.6617 149.966 23.2816C149.966 21.9015 150.248 20.6944 150.811 19.6635V19.6664Z" fill="#FEFEFE"/>
<path d="M172.701 29.9267L168.654 24.3555V29.9267H164.583V12.3105H168.654V22.0474L172.678 16.6433H177.702L172.179 23.3096L177.748 29.9282H172.701V29.9267Z" fill="#FEFEFE"/>
</svg>
