<svg width="130" height="120" viewBox="0 0 130 120" fill="none" xmlns="http://www.w3.org/2000/svg">
<path d="M0 102.062L54.0749 112.029L41.9388 87.8611L0 102.062Z" fill="#FF7F00"/>
<path d="M129.715 75.3626L100.264 63.4785L85.6711 85.9838L129.715 75.3626Z" fill="#FF7F00"/>
<path d="M123.802 59.8111C123.802 66.1848 122.795 72.3297 120.937 78.0849C117.295 89.4011 110.346 99.2226 101.24 106.437C91.1 114.473 78.2898 119.274 64.3481 119.274C49.5221 119.274 35.9604 113.846 25.5462 104.863C16.1749 96.7832 9.35023 85.8293 6.4501 73.3638C5.43372 69.0052 4.89412 64.4701 4.89412 59.8111C4.89412 26.977 31.5132 0.35791 64.3473 0.35791C97.183 0.35791 123.802 26.977 123.802 59.8111Z" fill="#C42026"/>
<g clip-path="url(#clip0_991_578)">
<mask id="mask0_991_578" style="mask-type:luminance" maskUnits="userSpaceOnUse" x="4" y="0" width="121" height="120">
<path d="M122.626 73.2448C130.896 41.1954 111.585 9.20415 79.4942 1.79024C47.4033 -5.62367 14.6843 14.3473 6.41449 46.3966C-1.85537 78.4459 17.4555 110.437 49.5464 117.851C81.6374 125.265 114.356 105.294 122.626 73.2448Z" fill="white"/>
</mask>
<g mask="url(#mask0_991_578)">
<path opacity="0.12" d="M4.565 0V120" stroke="white" stroke-width="9.66443" stroke-miterlimit="10"/>
<path opacity="0.12" d="M34.3632 0V120" stroke="white" stroke-width="9.66443" stroke-miterlimit="10"/>
<path opacity="0.12" d="M64.1625 0V120" stroke="white" stroke-width="9.66443" stroke-miterlimit="10"/>
<path opacity="0.12" d="M93.9615 0V120" stroke="white" stroke-width="9.66443" stroke-miterlimit="10"/>
<path opacity="0.12" d="M123.76 0V120" stroke="white" stroke-width="9.66443" stroke-miterlimit="10"/>
</g>
</g>
<path opacity="0.5" d="M118.122 87.7853L106.444 101.879L35.5717 111.946C35.5717 111.946 29.0919 108.288 24.2965 103.893C19.4643 99.4631 12.6187 92.583 12.6187 92.583L118.122 87.7853Z" fill="#A30006"/>
<path d="M0.538086 74.8993H129.397V96.6381L0.538086 102.282V74.8993Z" fill="#FFCA00"/>
<path d="M48.2081 43.36C46.9281 43.36 45.7721 43.136 44.7401 42.688C43.7161 42.232 42.8721 41.584 42.2081 40.744C41.5521 39.896 41.1361 38.888 40.9601 37.72L44.3681 37.216C44.6081 38.208 45.1041 38.972 45.8561 39.508C46.6081 40.044 47.4641 40.312 48.4241 40.312C48.9601 40.312 49.4801 40.228 49.9841 40.06C50.4881 39.892 50.9001 39.644 51.2201 39.316C51.5481 38.988 51.7121 38.584 51.7121 38.104C51.7121 37.928 51.6841 37.76 51.6281 37.6C51.5801 37.432 51.4961 37.276 51.3761 37.132C51.2561 36.988 51.0841 36.852 50.8601 36.724C50.6441 36.596 50.3681 36.48 50.0321 36.376L45.5441 35.056C45.2081 34.96 44.8161 34.824 44.3681 34.648C43.9281 34.472 43.5001 34.22 43.0841 33.892C42.6681 33.564 42.3201 33.132 42.0401 32.596C41.7681 32.052 41.6321 31.368 41.6321 30.544C41.6321 29.384 41.9241 28.42 42.5081 27.652C43.0921 26.884 43.8721 26.312 44.8481 25.936C45.8241 25.56 46.9041 25.376 48.0881 25.384C49.2801 25.4 50.3441 25.604 51.2801 25.996C52.2161 26.388 53.0001 26.96 53.6321 27.712C54.2641 28.456 54.7201 29.368 55.0001 30.448L51.4721 31.048C51.3441 30.488 51.1081 30.016 50.7641 29.632C50.4201 29.248 50.0081 28.956 49.5281 28.756C49.0561 28.556 48.5601 28.448 48.0401 28.432C47.5281 28.416 47.0441 28.488 46.5881 28.648C46.1401 28.8 45.7721 29.024 45.4841 29.32C45.2041 29.616 45.0641 29.968 45.0641 30.376C45.0641 30.752 45.1801 31.06 45.4121 31.3C45.6441 31.532 45.9361 31.72 46.2881 31.864C46.6401 32.008 47.0001 32.128 47.3681 32.224L50.3681 33.04C50.8161 33.16 51.3121 33.32 51.8561 33.52C52.4001 33.712 52.9201 33.984 53.4161 34.336C53.9201 34.68 54.3321 35.136 54.6521 35.704C54.9801 36.272 55.1441 36.992 55.1441 37.864C55.1441 38.792 54.9481 39.604 54.5561 40.3C54.1721 40.988 53.6521 41.56 52.9961 42.016C52.3401 42.464 51.5961 42.8 50.7641 43.024C49.9401 43.248 49.0881 43.36 48.2081 43.36ZM57.7816 43V25.72H69.0616V28.768H61.0456V32.464H67.6216V35.512H61.0456V39.952H69.0616V43H57.7816ZM78.6273 43.36C76.8993 43.36 75.4073 42.984 74.1513 42.232C72.9033 41.48 71.9393 40.428 71.2593 39.076C70.5873 37.724 70.2513 36.152 70.2513 34.36C70.2513 32.568 70.5873 30.996 71.2593 29.644C71.9393 28.292 72.9033 27.24 74.1513 26.488C75.4073 25.736 76.8993 25.36 78.6273 25.36C80.3553 25.36 81.8433 25.736 83.0913 26.488C84.3473 27.24 85.3113 28.292 85.9833 29.644C86.6633 30.996 87.0033 32.568 87.0033 34.36C87.0033 36.152 86.6633 37.724 85.9833 39.076C85.3113 40.428 84.3473 41.48 83.0913 42.232C81.8433 42.984 80.3553 43.36 78.6273 43.36ZM78.6273 40.288C79.7233 40.304 80.6353 40.068 81.3633 39.58C82.0913 39.092 82.6353 38.4 82.9953 37.504C83.3633 36.608 83.5473 35.56 83.5473 34.36C83.5473 33.16 83.3633 32.12 82.9953 31.24C82.6353 30.36 82.0913 29.676 81.3633 29.188C80.6353 28.7 79.7233 28.448 78.6273 28.432C77.5313 28.416 76.6193 28.652 75.8913 29.14C75.1633 29.628 74.6153 30.32 74.2473 31.216C73.8873 32.112 73.7073 33.16 73.7073 34.36C73.7073 35.56 73.8873 36.6 74.2473 37.48C74.6153 38.36 75.1633 39.044 75.8913 39.532C76.6193 40.02 77.5313 40.272 78.6273 40.288Z" fill="white"/>
<path d="M24.2601 64.1141V51.1541H32.1801V53.6021H26.7081V56.4101H31.1001V58.8581H26.7081V64.1141H24.2601ZM33.805 64.1141V51.1541H39.277C39.403 51.1541 39.571 51.1601 39.781 51.1721C39.997 51.1781 40.189 51.1961 40.357 51.2261C41.131 51.3461 41.764 51.6011 42.256 51.9911C42.754 52.3811 43.12 52.8731 43.354 53.4671C43.588 54.0551 43.705 54.7121 43.705 55.4381C43.705 56.5241 43.435 57.4541 42.895 58.2281C42.355 58.9961 41.509 59.4701 40.357 59.6501L39.277 59.7221H36.253V64.1141H33.805ZM41.113 64.1141L38.557 58.8401L41.077 58.3541L43.885 64.1141H41.113ZM36.253 57.4361H39.169C39.295 57.4361 39.433 57.4301 39.583 57.4181C39.733 57.4061 39.871 57.3821 39.997 57.3461C40.327 57.2561 40.582 57.1061 40.762 56.8961C40.942 56.6801 41.065 56.4431 41.131 56.1851C41.203 55.9211 41.239 55.6721 41.239 55.4381C41.239 55.2041 41.203 54.9581 41.131 54.7001C41.065 54.4361 40.942 54.1991 40.762 53.9891C40.582 53.7731 40.327 53.6201 39.997 53.5301C39.871 53.4941 39.733 53.4701 39.583 53.4581C39.433 53.4461 39.295 53.4401 39.169 53.4401H36.253V57.4361ZM46.0436 64.1141V51.1541H48.4916V64.1141H46.0436ZM51.1897 64.1141V51.1541H59.6497V53.4401H53.6377V56.2121H58.5697V58.4981H53.6377V61.8281H59.6497V64.1141H51.1897ZM61.8069 64.1141V51.1541H64.2909L69.9249 59.7941V51.1541H72.4089V64.1141H69.9249L64.2909 55.4741V64.1141H61.8069ZM74.9202 64.1141V51.1541H79.1142C79.2162 51.1541 79.4262 51.1571 79.7442 51.1631C80.0622 51.1691 80.3682 51.1901 80.6622 51.2261C81.7062 51.3521 82.5912 51.7151 83.3172 52.3151C84.0432 52.9151 84.5952 53.6771 84.9732 54.6011C85.3512 55.5251 85.5402 56.5361 85.5402 57.6341C85.5402 58.7321 85.3512 59.7431 84.9732 60.6671C84.5952 61.5911 84.0432 62.3531 83.3172 62.9531C82.5912 63.5531 81.7062 63.9161 80.6622 64.0421C80.3682 64.0781 80.0622 64.0991 79.7442 64.1051C79.4262 64.1111 79.2162 64.1141 79.1142 64.1141H74.9202ZM77.4042 61.8101H79.1142C79.2762 61.8101 79.4952 61.8071 79.7712 61.8011C80.0472 61.7891 80.2962 61.7621 80.5182 61.7201C81.0822 61.6061 81.5412 61.3421 81.8952 60.9281C82.2552 60.5141 82.5192 60.0161 82.6872 59.4341C82.8612 58.8521 82.9482 58.2521 82.9482 57.6341C82.9482 56.9861 82.8582 56.3711 82.6782 55.7891C82.5042 55.2071 82.2372 54.7151 81.8772 54.3131C81.5172 53.9111 81.0642 53.6561 80.5182 53.5481C80.2962 53.5001 80.0472 53.4731 79.7712 53.4671C79.4952 53.4611 79.2762 53.4581 79.1142 53.4581H77.4042V61.8101ZM87.8795 64.1141V51.1541H90.3275V61.8281H95.9075V64.1141H87.8795ZM98.8128 64.1141V58.8401L94.3848 51.1541H97.2468L100.055 56.0321L102.863 51.1541H105.725L101.297 58.8401V64.1141H98.8128Z" fill="white"/>
<path d="M21.3363 89.3423V83.7423H23.7603C24.2617 83.7423 24.6937 83.825 25.0563 83.9903C25.419 84.1503 25.699 84.3823 25.8963 84.6863C26.0937 84.9903 26.1923 85.353 26.1923 85.7743C26.1923 86.1903 26.0937 86.5503 25.8963 86.8543C25.699 87.1583 25.419 87.393 25.0563 87.5583C24.6937 87.7183 24.2617 87.7983 23.7603 87.7983H22.0563L22.6323 87.2143V89.3423H21.3363ZM22.6323 87.3583L22.0563 86.7423H23.6883C24.0883 86.7423 24.387 86.657 24.5843 86.4863C24.7817 86.3156 24.8803 86.0783 24.8803 85.7743C24.8803 85.465 24.7817 85.225 24.5843 85.0543C24.387 84.8836 24.0883 84.7983 23.6883 84.7983H22.0563L22.6323 84.1823V87.3583ZM28.3096 85.9983H31.0056V87.0063H28.3096V85.9983ZM28.4056 88.3023H31.4536V89.3423H27.1176V83.7423H31.3496V84.7823H28.4056V88.3023ZM32.4848 89.3423V83.7423H33.5568L36.8608 87.7743H36.3408V83.7423H37.6208V89.3423H36.5568L33.2448 85.3103H33.7648V89.3423H32.4848ZM41.6257 89.4383C41.1937 89.4383 40.791 89.369 40.4177 89.2303C40.0497 89.0863 39.7297 88.8836 39.4577 88.6223C39.1857 88.361 38.9724 88.0543 38.8177 87.7023C38.6684 87.3503 38.5937 86.9636 38.5937 86.5423C38.5937 86.121 38.6684 85.7343 38.8177 85.3823C38.9724 85.0303 39.1857 84.7236 39.4577 84.4623C39.735 84.201 40.0577 84.001 40.4257 83.8623C40.7937 83.7183 41.1964 83.6463 41.6337 83.6463C42.119 83.6463 42.5564 83.7316 42.9457 83.9023C43.3404 84.0676 43.671 84.313 43.9377 84.6383L43.1057 85.4063C42.9137 85.1876 42.7004 85.025 42.4657 84.9183C42.231 84.8063 41.975 84.7503 41.6977 84.7503C41.4364 84.7503 41.1964 84.793 40.9777 84.8783C40.759 84.9636 40.5697 85.0863 40.4097 85.2463C40.2497 85.4063 40.1244 85.5956 40.0337 85.8143C39.9484 86.033 39.9057 86.2756 39.9057 86.5423C39.9057 86.809 39.9484 87.0516 40.0337 87.2703C40.1244 87.489 40.2497 87.6783 40.4097 87.8383C40.5697 87.9983 40.759 88.121 40.9777 88.2063C41.1964 88.2916 41.4364 88.3343 41.6977 88.3343C41.975 88.3343 42.231 88.281 42.4657 88.1743C42.7004 88.0623 42.9137 87.8943 43.1057 87.6703L43.9377 88.4383C43.671 88.7636 43.3404 89.0116 42.9457 89.1823C42.5564 89.353 42.1164 89.4383 41.6257 89.4383ZM43.9753 89.3423L46.4713 83.7423H47.7513L50.2553 89.3423H48.8953L46.8473 84.3983H47.3593L45.3033 89.3423H43.9753ZM45.2233 88.1423L45.5673 87.1583H48.4473L48.7993 88.1423H45.2233ZM50.8363 89.3423V83.7423H53.2603C53.7617 83.7423 54.1937 83.825 54.5563 83.9903C54.919 84.1503 55.199 84.3823 55.3963 84.6863C55.5937 84.9903 55.6923 85.353 55.6923 85.7743C55.6923 86.1903 55.5937 86.5503 55.3963 86.8543C55.199 87.153 54.919 87.3823 54.5563 87.5423C54.1937 87.7023 53.7617 87.7823 53.2603 87.7823H51.5563L52.1323 87.2143V89.3423H50.8363ZM54.3963 89.3423L52.9963 87.3103H54.3803L55.7963 89.3423H54.3963ZM52.1323 87.3583L51.5563 86.7503H53.1883C53.5883 86.7503 53.887 86.665 54.0843 86.4943C54.2817 86.3183 54.3803 86.0783 54.3803 85.7743C54.3803 85.465 54.2817 85.225 54.0843 85.0543C53.887 84.8836 53.5883 84.7983 53.1883 84.7983H51.5563L52.1323 84.1823V87.3583ZM56.7191 89.3423V83.7423H58.0151V89.3423H56.7191ZM58.6081 89.3423L61.1041 83.7423H62.3841L64.8881 89.3423H63.5281L61.4801 84.3983H61.9921L59.9361 89.3423H58.6081ZM59.8561 88.1423L60.2001 87.1583H63.0801L63.4321 88.1423H59.8561ZM65.4691 89.3423V83.7423H66.5411L69.8451 87.7743H69.3251V83.7423H70.6051V89.3423H69.5411L66.2291 85.3103H66.7491V89.3423H65.4691ZM74.1957 89.3423V83.7423H75.2677L77.6517 87.6943H77.0837L79.4277 83.7423H80.4917L80.5077 89.3423H79.2917L79.2837 85.6063H79.5077L77.6357 88.7503H77.0517L75.1397 85.6063H75.4117V89.3423H74.1957ZM84.3243 89.4383C83.5297 89.4383 82.9083 89.217 82.4603 88.7743C82.0123 88.3316 81.7883 87.6996 81.7883 86.8783V83.7423H83.0843V86.8303C83.0843 87.3636 83.1937 87.7476 83.4123 87.9823C83.631 88.217 83.9377 88.3343 84.3323 88.3343C84.727 88.3343 85.0337 88.217 85.2523 87.9823C85.471 87.7476 85.5803 87.3636 85.5803 86.8303V83.7423H86.8603V86.8783C86.8603 87.6996 86.6363 88.3316 86.1883 88.7743C85.7403 89.217 85.119 89.4383 84.3243 89.4383ZM88.141 89.3423V83.7423H90.685C91.293 83.7423 91.829 83.8596 92.293 84.0943C92.757 84.3236 93.1197 84.6463 93.381 85.0623C93.6423 85.4783 93.773 85.9716 93.773 86.5423C93.773 87.1076 93.6423 87.601 93.381 88.0223C93.1197 88.4383 92.757 88.7636 92.293 88.9983C91.829 89.2276 91.293 89.3423 90.685 89.3423H88.141ZM89.437 88.2783H90.621C90.9943 88.2783 91.317 88.209 91.589 88.0703C91.8663 87.9263 92.0797 87.7236 92.229 87.4623C92.3837 87.201 92.461 86.8943 92.461 86.5423C92.461 86.185 92.3837 85.8783 92.229 85.6223C92.0797 85.361 91.8663 85.161 91.589 85.0223C91.317 84.8783 90.9943 84.8063 90.621 84.8063H89.437V88.2783ZM93.9363 89.3423L96.4323 83.7423H97.7123L100.216 89.3423H98.8563L96.8083 84.3983H97.3203L95.2643 89.3423H93.9363ZM95.1843 88.1423L95.5283 87.1583H98.4083L98.7603 88.1423H95.1843ZM104.637 83.7423H105.933V89.3423H104.637V83.7423ZM102.093 89.3423H100.797V83.7423H102.093V89.3423ZM104.733 87.0463H101.997V85.9503H104.733V87.0463Z" fill="#1A1A1A"/>
<defs>
<clipPath id="clip0_991_578">
<rect width="119.195" height="120" fill="white" transform="translate(4.56493)"/>
</clipPath>
</defs>
</svg>
