<svg width="14" height="14" viewBox="0 0 14 14" fill="none" xmlns="http://www.w3.org/2000/svg">
<g clip-path="url(#clip0_970_7234)">
<path d="M7.19922 0.846344C7.34126 0.676009 7.57874 0.619491 7.78223 0.707672C7.98583 0.796057 8.10663 1.00891 8.0791 1.22916L7.56641 5.33365H12.25C12.4439 5.33365 12.6208 5.44522 12.7031 5.62076C12.7854 5.79641 12.7579 6.00395 12.6338 6.15298L6.80078 13.153C6.6587 13.3235 6.42137 13.38 6.21777 13.2917C6.01417 13.2033 5.89337 12.9914 5.9209 12.7711L6.43359 8.66666H1.75C1.55599 8.66666 1.37916 8.55426 1.29688 8.37857C1.21473 8.20293 1.24207 7.99531 1.36621 7.84634L7.19922 0.846344Z" fill="#FF7700" stroke="#FF7700" stroke-linecap="round" stroke-linejoin="round"/>
</g>
<defs>
<clipPath id="clip0_970_7234">
<rect width="14" height="14" fill="white"/>
</clipPath>
</defs>
</svg>
